G04 Layer_Color=65535*
%FSLAX25Y25*%
%MOIN*%
G70*
G01*
G75*
%ADD11C,0.01000*%
%ADD21C,0.00984*%
%ADD22C,0.00787*%
%ADD23C,0.02362*%
D11*
X142199Y140898D02*
X141199Y141898D01*
X139200D01*
X138200Y140898D01*
Y136900D01*
X139200Y135900D01*
X141199D01*
X142199Y136900D01*
X144198Y135900D02*
X146197D01*
X145198D01*
Y141898D01*
X144198Y140898D01*
X110150Y142350D02*
Y148348D01*
X113149D01*
X114149Y147348D01*
Y145349D01*
X113149Y144349D01*
X110150D01*
X116148Y142350D02*
X118147D01*
X117148D01*
Y148348D01*
X116148Y147348D01*
X108650Y258350D02*
Y264348D01*
X111649D01*
X112649Y263348D01*
Y261349D01*
X111649Y260349D01*
X108650D01*
X118647Y258350D02*
X114648D01*
X118647Y262349D01*
Y263348D01*
X117647Y264348D01*
X115648D01*
X114648Y263348D01*
X140650Y200850D02*
Y206848D01*
X143649D01*
X144649Y205848D01*
Y203849D01*
X143649Y202849D01*
X140650D01*
X146648Y205848D02*
X147648Y206848D01*
X149647D01*
X150647Y205848D01*
Y204849D01*
X149647Y203849D01*
X148647D01*
X149647D01*
X150647Y202849D01*
Y201850D01*
X149647Y200850D01*
X147648D01*
X146648Y201850D01*
X140349Y272166D02*
Y276165D01*
X139349Y277165D01*
X137350D01*
X136350Y276165D01*
Y272166D01*
X137350Y271166D01*
X139349D01*
X138349Y273166D02*
X140349Y271166D01*
X139349D02*
X140349Y272166D01*
X142348Y271166D02*
X144347D01*
X143348D01*
Y277165D01*
X142348Y276165D01*
X249650Y270150D02*
Y276148D01*
X252649D01*
X253649Y275148D01*
Y273149D01*
X252649Y272149D01*
X249650D01*
X251649D02*
X253649Y270150D01*
X255648D02*
X257647D01*
X256648D01*
Y276148D01*
X255648Y275148D01*
X202100Y270200D02*
Y276198D01*
X205099D01*
X206099Y275198D01*
Y273199D01*
X205099Y272199D01*
X202100D01*
X204099D02*
X206099Y270200D01*
X212097D02*
X208098D01*
X212097Y274199D01*
Y275198D01*
X211097Y276198D01*
X209098D01*
X208098Y275198D01*
X226100Y270200D02*
Y276198D01*
X229099D01*
X230099Y275198D01*
Y273199D01*
X229099Y272199D01*
X226100D01*
X228099D02*
X230099Y270200D01*
X232098Y275198D02*
X233098Y276198D01*
X235097D01*
X236097Y275198D01*
Y274199D01*
X235097Y273199D01*
X234097D01*
X235097D01*
X236097Y272199D01*
Y271200D01*
X235097Y270200D01*
X233098D01*
X232098Y271200D01*
X177150Y270150D02*
Y276148D01*
X180149D01*
X181149Y275148D01*
Y273149D01*
X180149Y272149D01*
X177150D01*
X179149D02*
X181149Y270150D01*
X186147D02*
Y276148D01*
X183148Y273149D01*
X187147D01*
X111100Y211200D02*
Y217198D01*
X114099D01*
X115099Y216198D01*
Y214199D01*
X114099Y213199D01*
X111100D01*
X113099D02*
X115099Y211200D01*
X121097Y217198D02*
X117098D01*
Y214199D01*
X119097Y215199D01*
X120097D01*
X121097Y214199D01*
Y212200D01*
X120097Y211200D01*
X118098D01*
X117098Y212200D01*
X283150Y277648D02*
Y272650D01*
X284150Y271650D01*
X286149D01*
X287149Y272650D01*
Y277648D01*
X289148Y271650D02*
X291147D01*
X290148D01*
Y277648D01*
X289148Y276648D01*
D21*
X152216Y228213D02*
G03*
X152216Y228213I-492J0D01*
G01*
X285992Y267618D02*
G03*
X285992Y267618I-492J0D01*
G01*
D22*
X149732Y113360D02*
G03*
X148774Y127161I-4232J6640D01*
G01*
X142226D02*
G03*
X141268Y113360I3274J-7161D01*
G01*
X298000Y267776D02*
G03*
X303000Y267776I2500J0D01*
G01*
X113500Y200000D02*
Y200900D01*
Y179100D02*
Y180000D01*
Y200000D02*
X116500D01*
Y180000D02*
Y200000D01*
X110500Y180000D02*
X116500D01*
X110500D02*
Y200000D01*
X113500D01*
X137748Y225654D02*
Y267780D01*
X135780Y225654D02*
Y267780D01*
X154283Y225654D02*
Y267780D01*
X135780Y225654D02*
X154283D01*
X135780Y267780D02*
X154283D01*
X140000Y177500D02*
Y197500D01*
Y177500D02*
X150000D01*
Y197500D01*
X140000D02*
X150000D01*
X179500Y259000D02*
Y259900D01*
Y238100D02*
Y239000D01*
Y259000D02*
X182500D01*
Y239000D02*
Y259000D01*
X176500Y239000D02*
X182500D01*
X176500D02*
Y259000D01*
X179500D01*
X252000D02*
Y259900D01*
Y238100D02*
Y239000D01*
Y259000D02*
X255000D01*
Y239000D02*
Y259000D01*
X249000Y239000D02*
X255000D01*
X249000D02*
Y259000D01*
X252000D01*
X290067Y227224D02*
X310933D01*
X303000Y267776D02*
X310933D01*
X290067D02*
X298000D01*
X310933Y227224D02*
Y267776D01*
X290067Y227224D02*
Y267776D01*
X204500Y238100D02*
Y239000D01*
Y259000D02*
Y259900D01*
X201500Y239000D02*
X204500D01*
X201500D02*
Y259000D01*
X207500D01*
Y239000D02*
Y259000D01*
X204500Y239000D02*
X207500D01*
X228500Y238100D02*
Y239000D01*
Y259000D02*
Y259900D01*
X225500Y239000D02*
X228500D01*
X225500D02*
Y259000D01*
X231500D01*
Y239000D02*
Y259000D01*
X228500Y239000D02*
X231500D01*
X109500Y109000D02*
X119500D01*
X109500D02*
Y139000D01*
X119500D01*
Y109000D02*
Y139000D01*
X108000Y235000D02*
Y255000D01*
Y235000D02*
X118000D01*
Y255000D01*
X108000D02*
X118000D01*
D23*
X295185Y263839D02*
G03*
X295185Y263839I-1181J0D01*
G01*
M02*
