G04 Layer_Physical_Order=1*
G04 Layer_Color=255*
%FSLAX25Y25*%
%MOIN*%
G70*
G01*
G75*
%ADD10C,0.02000*%
%ADD11C,0.01000*%
%ADD12C,0.05512*%
%ADD13R,0.06299X0.06299*%
%ADD14C,0.06299*%
%ADD15C,0.05905*%
%ADD16R,0.05905X0.05905*%
%ADD17R,0.05315X0.05315*%
%ADD18C,0.05315*%
%ADD19R,0.05905X0.05905*%
%ADD20C,0.05000*%
G36*
X114509Y208957D02*
X114537Y208702D01*
X114584Y208455D01*
X114649Y208217D01*
X114732Y207987D01*
X114834Y207766D01*
X114955Y207553D01*
X115095Y207350D01*
X115253Y207155D01*
X115429Y206968D01*
X111571D01*
X111747Y207155D01*
X111905Y207350D01*
X112045Y207553D01*
X112165Y207766D01*
X112268Y207987D01*
X112351Y208217D01*
X112416Y208455D01*
X112463Y208702D01*
X112491Y208957D01*
X112500Y209222D01*
X114500D01*
X114509Y208957D01*
D02*
G37*
G36*
X142692Y196237D02*
X142905Y196070D01*
X143128Y195923D01*
X143360Y195795D01*
X143603Y195688D01*
X143857Y195601D01*
X144120Y195534D01*
X144393Y195487D01*
X144677Y195460D01*
X144971Y195453D01*
X142047Y192529D01*
X142040Y192823D01*
X142013Y193107D01*
X141966Y193380D01*
X141899Y193643D01*
X141812Y193897D01*
X141705Y194140D01*
X141577Y194372D01*
X141430Y194595D01*
X141263Y194808D01*
X141076Y195010D01*
X142490Y196424D01*
X142692Y196237D01*
D02*
G37*
G36*
X144889Y179560D02*
X144733Y179673D01*
X144549Y179730D01*
X144337D01*
X144097Y179673D01*
X143828Y179560D01*
X143531Y179391D01*
X143206Y179164D01*
X142852Y178881D01*
X142060Y178146D01*
X140646Y179560D01*
X141042Y179970D01*
X141664Y180706D01*
X141891Y181031D01*
X142060Y181328D01*
X142173Y181597D01*
X142230Y181837D01*
Y182049D01*
X142173Y182233D01*
X142060Y182389D01*
X144889Y179560D01*
D02*
G37*
G36*
X326452Y105547D02*
X294472D01*
Y115998D01*
X196500D01*
Y105547D01*
X153211D01*
X152933Y105963D01*
X153029Y106195D01*
X153201Y107500D01*
Y109332D01*
X177363Y133494D01*
X177363Y133494D01*
X178113Y134408D01*
X178670Y135450D01*
X179013Y136581D01*
X179129Y137757D01*
Y176103D01*
X229313Y226287D01*
X230020Y226356D01*
X231482Y226800D01*
X232830Y227520D01*
X234011Y228489D01*
X234980Y229670D01*
X235700Y231018D01*
X236144Y232480D01*
X236213Y233187D01*
X244563Y241537D01*
X245313Y242450D01*
X245870Y243493D01*
X246213Y244624D01*
X246329Y245800D01*
Y257974D01*
X246829Y258210D01*
X247670Y257520D01*
X249018Y256800D01*
X250480Y256356D01*
X252000Y256207D01*
X253520Y256356D01*
X254982Y256800D01*
X256330Y257520D01*
X257511Y258489D01*
X258480Y259670D01*
X259200Y261018D01*
X259644Y262480D01*
X259793Y264000D01*
X259644Y265520D01*
X259386Y266369D01*
X259684Y266771D01*
X277173D01*
X277612Y266271D01*
X277504Y265453D01*
Y259547D01*
X277676Y258242D01*
X278180Y257026D01*
X278605Y256471D01*
X278117Y255558D01*
X277662Y254059D01*
X277509Y252500D01*
X277662Y250941D01*
X278117Y249442D01*
X278855Y248060D01*
X279315Y247500D01*
X278855Y246940D01*
X278117Y245558D01*
X277662Y244059D01*
X277509Y242500D01*
X277662Y240941D01*
X278117Y239442D01*
X278855Y238060D01*
X279849Y236849D01*
X281060Y235856D01*
X282054Y235324D01*
X282193Y234683D01*
X282047Y234493D01*
X281649Y233532D01*
X281579Y233000D01*
X289421D01*
X289351Y233532D01*
X288953Y234493D01*
X288807Y234683D01*
X288946Y235324D01*
X289940Y235856D01*
X291151Y236849D01*
X292144Y238060D01*
X292883Y239442D01*
X293338Y240941D01*
X293491Y242500D01*
X293338Y244059D01*
X292883Y245558D01*
X292144Y246940D01*
X291685Y247500D01*
X292144Y248060D01*
X292883Y249442D01*
X293338Y250941D01*
X293491Y252500D01*
X293338Y254059D01*
X292883Y255558D01*
X292395Y256471D01*
X292820Y257026D01*
X293324Y258242D01*
X293496Y259547D01*
Y265453D01*
X293388Y266271D01*
X293827Y266771D01*
X302703D01*
X307567Y261906D01*
X307662Y260941D01*
X308117Y259442D01*
X308856Y258060D01*
X309315Y257500D01*
X308856Y256940D01*
X308117Y255558D01*
X307662Y254059D01*
X307509Y252500D01*
X307662Y250941D01*
X308117Y249442D01*
X308856Y248060D01*
X309315Y247500D01*
X308856Y246940D01*
X308117Y245558D01*
X307662Y244059D01*
X307509Y242500D01*
X307662Y240941D01*
X308117Y239442D01*
X308856Y238060D01*
X309315Y237500D01*
X308856Y236940D01*
X308117Y235558D01*
X307662Y234059D01*
X307509Y232500D01*
X307662Y230941D01*
X308117Y229442D01*
X308856Y228060D01*
X309849Y226849D01*
X311060Y225855D01*
X312442Y225117D01*
X313941Y224662D01*
X315500Y224509D01*
X317059Y224662D01*
X318558Y225117D01*
X319940Y225855D01*
X321151Y226849D01*
X322145Y228060D01*
X322883Y229442D01*
X323338Y230941D01*
X323491Y232500D01*
X323338Y234059D01*
X322883Y235558D01*
X322145Y236940D01*
X321685Y237500D01*
X322145Y238060D01*
X322883Y239442D01*
X323338Y240941D01*
X323491Y242500D01*
X323338Y244059D01*
X322883Y245558D01*
X322145Y246940D01*
X321685Y247500D01*
X322145Y248060D01*
X322883Y249442D01*
X323338Y250941D01*
X323491Y252500D01*
X323338Y254059D01*
X322883Y255558D01*
X322145Y256940D01*
X321685Y257500D01*
X322145Y258060D01*
X322883Y259442D01*
X323338Y260941D01*
X323491Y262500D01*
X323338Y264059D01*
X322883Y265558D01*
X322145Y266940D01*
X321151Y268151D01*
X319940Y269145D01*
X318558Y269883D01*
X317059Y270338D01*
X316094Y270433D01*
X309463Y277063D01*
X308549Y277813D01*
X307507Y278370D01*
X306376Y278713D01*
X305200Y278829D01*
X248100D01*
X248100Y278829D01*
X246924Y278713D01*
X245793Y278370D01*
X244750Y277813D01*
X243837Y277063D01*
X236037Y269263D01*
X235438Y268534D01*
X235362Y268500D01*
X234913Y268493D01*
X234816Y268529D01*
X234011Y269511D01*
X232830Y270480D01*
X231482Y271200D01*
X230020Y271644D01*
X228500Y271793D01*
X226980Y271644D01*
X225518Y271200D01*
X224170Y270480D01*
X222989Y269511D01*
X222020Y268330D01*
X221300Y266982D01*
X220856Y265520D01*
X220707Y264000D01*
X220856Y262480D01*
X221300Y261018D01*
X222020Y259670D01*
X222989Y258489D01*
X224170Y257520D01*
X225518Y256800D01*
X226980Y256356D01*
X228500Y256207D01*
X230020Y256356D01*
X231482Y256800D01*
X232830Y257520D01*
X233771Y258292D01*
X234271Y258056D01*
Y248297D01*
X227687Y241713D01*
X226980Y241644D01*
X225518Y241200D01*
X224170Y240480D01*
X222989Y239511D01*
X222020Y238330D01*
X221300Y236982D01*
X220856Y235520D01*
X220787Y234813D01*
X168837Y182863D01*
X168087Y181949D01*
X167530Y180907D01*
X167187Y179776D01*
X167071Y178600D01*
Y140255D01*
X144674Y117858D01*
X142842D01*
X141537Y117686D01*
X140321Y117182D01*
X139277Y116381D01*
X138475Y115336D01*
X137971Y114120D01*
X137799Y112815D01*
Y107500D01*
X137971Y106195D01*
X138067Y105963D01*
X137789Y105547D01*
X117815D01*
X117782Y106047D01*
X118758Y106176D01*
X119974Y106680D01*
X121019Y107481D01*
X121577Y108208D01*
X122307Y108430D01*
X123349Y108987D01*
X124263Y109737D01*
X134363Y119837D01*
X135113Y120750D01*
X135670Y121793D01*
X136013Y122924D01*
X136129Y124100D01*
Y165103D01*
X145530Y174504D01*
X147953D01*
X149258Y174676D01*
X150474Y175180D01*
X151519Y175981D01*
X152320Y177026D01*
X152824Y178242D01*
X152996Y179547D01*
Y185453D01*
X152824Y186758D01*
X152320Y187974D01*
X151895Y188529D01*
X152383Y189442D01*
X152838Y190941D01*
X152991Y192500D01*
X152838Y194059D01*
X152383Y195558D01*
X151645Y196940D01*
X150651Y198151D01*
X149440Y199144D01*
X148058Y199883D01*
X146559Y200338D01*
X145594Y200433D01*
X143829Y202197D01*
Y228505D01*
X143850Y228524D01*
X150150D01*
X151455Y228696D01*
X152671Y229200D01*
X153716Y230001D01*
X154517Y231045D01*
X155021Y232262D01*
X155193Y233567D01*
Y239866D01*
X155021Y241172D01*
X154517Y242388D01*
X154169Y242841D01*
X154566Y243583D01*
X155032Y245119D01*
X155189Y246717D01*
X155032Y248314D01*
X154566Y249850D01*
X153809Y251266D01*
X152790Y252507D01*
X151904Y253235D01*
X152013Y253367D01*
X152570Y254409D01*
X152913Y255540D01*
X153029Y256717D01*
X152913Y257893D01*
X152570Y259024D01*
X152347Y259442D01*
X152604Y259871D01*
X153603D01*
X173471Y240003D01*
Y238879D01*
X173020Y238330D01*
X172300Y236982D01*
X171856Y235520D01*
X171707Y234000D01*
X171856Y232480D01*
X172300Y231018D01*
X173020Y229670D01*
X173989Y228489D01*
X175170Y227520D01*
X176054Y227048D01*
X176127Y226553D01*
X173102Y223528D01*
X172730Y223492D01*
X171316Y223063D01*
X170013Y222366D01*
X168871Y221429D01*
X167934Y220287D01*
X167237Y218984D01*
X166808Y217570D01*
X166664Y216100D01*
X166808Y214630D01*
X167237Y213216D01*
X167934Y211913D01*
X168871Y210771D01*
X170013Y209834D01*
X171316Y209137D01*
X172730Y208709D01*
X174200Y208564D01*
X175670Y208709D01*
X177084Y209137D01*
X178387Y209834D01*
X179529Y210771D01*
X180466Y211913D01*
X181163Y213216D01*
X181591Y214630D01*
X181628Y215002D01*
X192563Y225937D01*
X193313Y226851D01*
X193870Y227893D01*
X194213Y229024D01*
X194329Y230200D01*
Y255200D01*
X194213Y256376D01*
X193870Y257507D01*
X193313Y258549D01*
X192563Y259463D01*
X187213Y264813D01*
X187144Y265520D01*
X186700Y266982D01*
X185980Y268330D01*
X185011Y269511D01*
X183830Y270480D01*
X182482Y271200D01*
X181020Y271644D01*
X179500Y271793D01*
X177980Y271644D01*
X176518Y271200D01*
X175170Y270480D01*
X173989Y269511D01*
X173020Y268330D01*
X172300Y266982D01*
X171856Y265520D01*
X171707Y264000D01*
X171856Y262480D01*
X172300Y261018D01*
X173020Y259670D01*
X173989Y258489D01*
X175170Y257520D01*
X176518Y256800D01*
X177980Y256356D01*
X178687Y256287D01*
X182271Y252703D01*
Y248909D01*
X181809Y248717D01*
X160363Y270163D01*
X159450Y270913D01*
X158407Y271470D01*
X157276Y271813D01*
X156100Y271929D01*
X128900D01*
X128900Y271929D01*
X127724Y271813D01*
X126593Y271470D01*
X125550Y270913D01*
X124637Y270163D01*
X124637Y270163D01*
X112406Y257933D01*
X111441Y257838D01*
X109942Y257383D01*
X108560Y256645D01*
X107349Y255651D01*
X106356Y254440D01*
X106047Y253863D01*
X105547Y253989D01*
Y279452D01*
X326452D01*
Y105547D01*
D02*
G37*
G36*
X177588Y218074D02*
X177417Y217893D01*
X177265Y217708D01*
X177131Y217521D01*
X177015Y217331D01*
X176917Y217137D01*
X176837Y216941D01*
X176775Y216741D01*
X176732Y216539D01*
X176707Y216334D01*
X176700Y216125D01*
X174225Y218600D01*
X174434Y218607D01*
X174639Y218632D01*
X174841Y218675D01*
X175041Y218737D01*
X175237Y218817D01*
X175431Y218915D01*
X175621Y219031D01*
X175808Y219165D01*
X175993Y219317D01*
X176174Y219488D01*
X177588Y218074D01*
D02*
G37*
G36*
X106481Y233481D02*
X106971Y233105D01*
Y223000D01*
X107087Y221824D01*
X107430Y220693D01*
X107471Y220616D01*
Y209879D01*
X107020Y209330D01*
X106300Y207982D01*
X106047Y207151D01*
X105547Y207225D01*
Y233877D01*
X106047Y234047D01*
X106481Y233481D01*
D02*
G37*
G36*
X117192Y177278D02*
X117012Y177085D01*
X116851Y176884D01*
X116709Y176677D01*
X116587Y176462D01*
X116483Y176241D01*
X116399Y176012D01*
X116335Y175777D01*
X116289Y175534D01*
X116263Y175284D01*
X116256Y175028D01*
X113528Y177756D01*
X113784Y177763D01*
X114034Y177789D01*
X114277Y177835D01*
X114512Y177899D01*
X114741Y177983D01*
X114962Y178087D01*
X115177Y178209D01*
X115384Y178351D01*
X115585Y178512D01*
X115778Y178692D01*
X117192Y177278D01*
D02*
G37*
G36*
X149559Y112802D02*
X149162Y112391D01*
X148537Y111654D01*
X148309Y111328D01*
X148138Y111031D01*
X148024Y110763D01*
X147966Y110522D01*
X147965Y110311D01*
X148021Y110128D01*
X148133Y109974D01*
X145316Y112790D01*
X145471Y112678D01*
X145653Y112623D01*
X145865Y112624D01*
X146105Y112681D01*
X146374Y112796D01*
X146671Y112967D01*
X146996Y113194D01*
X147351Y113478D01*
X148144Y114216D01*
X149559Y112802D01*
D02*
G37*
G36*
X117448Y115810D02*
X117508Y115640D01*
X117609Y115490D01*
X117750Y115360D01*
X117931Y115250D01*
X118152Y115160D01*
X118414Y115090D01*
X118715Y115040D01*
X119058Y115010D01*
X119440Y115000D01*
Y113000D01*
X119058Y112990D01*
X118715Y112960D01*
X118414Y112910D01*
X118152Y112840D01*
X117931Y112750D01*
X117750Y112640D01*
X117609Y112510D01*
X117508Y112360D01*
X117448Y112190D01*
X117428Y112000D01*
Y116000D01*
X117448Y115810D01*
D02*
G37*
G36*
X106300Y202018D02*
X107020Y200670D01*
X107989Y199489D01*
X109170Y198520D01*
X110518Y197800D01*
X111980Y197356D01*
X113500Y197207D01*
X115020Y197356D01*
X116482Y197800D01*
X117830Y198520D01*
X118971Y199457D01*
X119224Y199413D01*
X119471Y199325D01*
Y189497D01*
X109237Y179263D01*
X108487Y178349D01*
X107930Y177307D01*
X107587Y176176D01*
X107471Y175000D01*
Y155500D01*
X107485Y155360D01*
X107477Y155220D01*
X108477Y133720D01*
X108648Y132550D01*
X109043Y131437D01*
X109648Y130421D01*
X109639Y130299D01*
X108849Y129651D01*
X107855Y128440D01*
X107117Y127058D01*
X106662Y125559D01*
X106509Y124000D01*
X106662Y122441D01*
X107117Y120942D01*
X107605Y120029D01*
X107180Y119474D01*
X106676Y118258D01*
X106504Y116953D01*
Y111047D01*
X106676Y109742D01*
X107180Y108526D01*
X107981Y107481D01*
X109026Y106680D01*
X110242Y106176D01*
X111218Y106047D01*
X111185Y105547D01*
X105547D01*
Y202775D01*
X106047Y202850D01*
X106300Y202018D01*
D02*
G37*
G36*
X115253Y172845D02*
X115095Y172650D01*
X114955Y172447D01*
X114834Y172234D01*
X114732Y172013D01*
X114649Y171783D01*
X114584Y171545D01*
X114537Y171298D01*
X114509Y171043D01*
X114500Y170778D01*
X112500D01*
X112491Y171043D01*
X112463Y171298D01*
X112416Y171545D01*
X112351Y171783D01*
X112268Y172013D01*
X112165Y172234D01*
X112045Y172447D01*
X111905Y172650D01*
X111747Y172845D01*
X111571Y173032D01*
X115429D01*
X115253Y172845D01*
D02*
G37*
G36*
X115311Y138317D02*
X115355Y138050D01*
X115421Y137791D01*
X115507Y137540D01*
X115615Y137297D01*
X115743Y137062D01*
X115893Y136835D01*
X116063Y136616D01*
X116254Y136405D01*
X116467Y136202D01*
X112337Y136010D01*
X112530Y136232D01*
X112701Y136460D01*
X112850Y136694D01*
X112978Y136934D01*
X113084Y137180D01*
X113168Y137431D01*
X113231Y137689D01*
X113272Y137953D01*
X113292Y138223D01*
X113290Y138498D01*
X115287Y138592D01*
X115311Y138317D01*
D02*
G37*
G36*
X132230Y197393D02*
X132787Y196351D01*
X133537Y195437D01*
X137067Y191906D01*
X137162Y190941D01*
X137617Y189442D01*
X138105Y188529D01*
X137680Y187974D01*
X137176Y186758D01*
X137004Y185453D01*
Y183030D01*
X125837Y171863D01*
X125087Y170949D01*
X124530Y169907D01*
X124187Y168776D01*
X124071Y167600D01*
Y126597D01*
X122813Y125340D01*
X122343Y125508D01*
X122338Y125559D01*
X121883Y127058D01*
X121144Y128440D01*
X120151Y129651D01*
X119276Y130368D01*
X119663Y130887D01*
X120171Y131954D01*
X120461Y133100D01*
X120522Y134280D01*
X119529Y155640D01*
Y172503D01*
X129763Y182737D01*
X130513Y183651D01*
X131070Y184693D01*
X131413Y185824D01*
X131529Y187000D01*
Y197981D01*
X132029Y198055D01*
X132230Y197393D01*
D02*
G37*
G36*
X114810Y237040D02*
X114640Y236980D01*
X114490Y236880D01*
X114360Y236740D01*
X114250Y236560D01*
X114160Y236340D01*
X114090Y236080D01*
X114040Y235780D01*
X114010Y235440D01*
X114000Y235060D01*
X112000D01*
X111990Y235440D01*
X111960Y235780D01*
X111910Y236080D01*
X111840Y236340D01*
X111750Y236560D01*
X111640Y236740D01*
X111510Y236880D01*
X111360Y236980D01*
X111190Y237040D01*
X111000Y237060D01*
X115000D01*
X114810Y237040D01*
D02*
G37*
G36*
X232192Y236278D02*
X232012Y236085D01*
X231851Y235884D01*
X231709Y235677D01*
X231587Y235462D01*
X231483Y235241D01*
X231399Y235012D01*
X231335Y234776D01*
X231289Y234534D01*
X231263Y234284D01*
X231256Y234028D01*
X228528Y236756D01*
X228784Y236763D01*
X229034Y236789D01*
X229276Y236835D01*
X229512Y236899D01*
X229741Y236983D01*
X229962Y237087D01*
X230177Y237209D01*
X230384Y237351D01*
X230585Y237512D01*
X230778Y237692D01*
X232192Y236278D01*
D02*
G37*
G36*
X135483Y259409D02*
X121237Y245163D01*
X121022Y244901D01*
X120527Y244975D01*
X120320Y245474D01*
X119895Y246029D01*
X120383Y246942D01*
X120838Y248441D01*
X120933Y249406D01*
X131397Y259871D01*
X135291D01*
X135483Y259409D01*
D02*
G37*
G36*
X180509Y237957D02*
X180537Y237702D01*
X180584Y237455D01*
X180649Y237216D01*
X180732Y236987D01*
X180834Y236766D01*
X180955Y236553D01*
X181095Y236350D01*
X181253Y236155D01*
X181429Y235968D01*
X177571D01*
X177747Y236155D01*
X177905Y236350D01*
X178045Y236553D01*
X178165Y236766D01*
X178268Y236987D01*
X178351Y237216D01*
X178416Y237455D01*
X178463Y237702D01*
X178491Y237957D01*
X178500Y238222D01*
X180500D01*
X180509Y237957D01*
D02*
G37*
G36*
X228472Y231244D02*
X228216Y231237D01*
X227966Y231211D01*
X227724Y231165D01*
X227488Y231101D01*
X227259Y231017D01*
X227038Y230913D01*
X226823Y230791D01*
X226616Y230649D01*
X226415Y230488D01*
X226222Y230308D01*
X224808Y231722D01*
X224988Y231915D01*
X225149Y232116D01*
X225291Y232323D01*
X225413Y232538D01*
X225517Y232759D01*
X225601Y232988D01*
X225665Y233224D01*
X225711Y233466D01*
X225737Y233716D01*
X225744Y233972D01*
X228472Y231244D01*
D02*
G37*
G36*
X182263Y263716D02*
X182289Y263466D01*
X182335Y263224D01*
X182399Y262988D01*
X182483Y262759D01*
X182587Y262538D01*
X182709Y262323D01*
X182851Y262116D01*
X183012Y261915D01*
X183192Y261722D01*
X181778Y260308D01*
X181585Y260488D01*
X181384Y260649D01*
X181177Y260791D01*
X180962Y260913D01*
X180741Y261017D01*
X180512Y261101D01*
X180277Y261165D01*
X180034Y261211D01*
X179784Y261237D01*
X179528Y261244D01*
X182256Y263972D01*
X182263Y263716D01*
D02*
G37*
G36*
X313192Y266237D02*
X313405Y266070D01*
X313628Y265922D01*
X313860Y265795D01*
X314103Y265688D01*
X314356Y265601D01*
X314620Y265534D01*
X314893Y265487D01*
X315177Y265460D01*
X315471Y265453D01*
X312547Y262529D01*
X312540Y262823D01*
X312513Y263107D01*
X312466Y263380D01*
X312399Y263644D01*
X312312Y263897D01*
X312205Y264140D01*
X312077Y264372D01*
X311930Y264595D01*
X311763Y264808D01*
X311576Y265010D01*
X312990Y266424D01*
X313192Y266237D01*
D02*
G37*
G36*
X116924Y252510D02*
X116737Y252308D01*
X116570Y252095D01*
X116422Y251872D01*
X116295Y251640D01*
X116188Y251397D01*
X116101Y251144D01*
X116034Y250880D01*
X115987Y250607D01*
X115960Y250323D01*
X115953Y250029D01*
X113030Y252953D01*
X113323Y252960D01*
X113607Y252987D01*
X113880Y253034D01*
X114144Y253101D01*
X114397Y253188D01*
X114640Y253295D01*
X114873Y253422D01*
X115095Y253570D01*
X115308Y253737D01*
X115510Y253924D01*
X116924Y252510D01*
D02*
G37*
%LPC*%
G36*
X149123Y129343D02*
X146000D01*
Y126219D01*
X146455Y126279D01*
X147345Y126648D01*
X148108Y127234D01*
X148695Y127998D01*
X149063Y128888D01*
X149123Y129343D01*
D02*
G37*
G36*
X204500Y271793D02*
X202980Y271644D01*
X201518Y271200D01*
X200170Y270480D01*
X198989Y269511D01*
X198020Y268330D01*
X197300Y266982D01*
X196856Y265520D01*
X196707Y264000D01*
X196856Y262480D01*
X197300Y261018D01*
X198020Y259670D01*
X198989Y258489D01*
X200170Y257520D01*
X201518Y256800D01*
X202980Y256356D01*
X204500Y256207D01*
X206020Y256356D01*
X207482Y256800D01*
X208830Y257520D01*
X210011Y258489D01*
X210980Y259670D01*
X211700Y261018D01*
X212144Y262480D01*
X212293Y264000D01*
X212144Y265520D01*
X211700Y266982D01*
X210980Y268330D01*
X210011Y269511D01*
X208830Y270480D01*
X207482Y271200D01*
X206020Y271644D01*
X204500Y271793D01*
D02*
G37*
G36*
X145000Y129343D02*
X141877D01*
X141937Y128888D01*
X142305Y127998D01*
X142892Y127234D01*
X143656Y126648D01*
X144545Y126279D01*
X145000Y126219D01*
Y129343D01*
D02*
G37*
G36*
Y133466D02*
X144545Y133406D01*
X143656Y133037D01*
X142892Y132451D01*
X142305Y131687D01*
X141937Y130797D01*
X141877Y130343D01*
X145000D01*
Y133466D01*
D02*
G37*
G36*
X285000Y232000D02*
X281579D01*
X281649Y231468D01*
X282047Y230507D01*
X282681Y229681D01*
X283507Y229047D01*
X284468Y228649D01*
X285000Y228579D01*
Y232000D01*
D02*
G37*
G36*
X252000Y241793D02*
X250480Y241644D01*
X249018Y241200D01*
X247670Y240480D01*
X246489Y239511D01*
X245520Y238330D01*
X244800Y236982D01*
X244356Y235520D01*
X244207Y234000D01*
X244356Y232480D01*
X244800Y231018D01*
X245520Y229670D01*
X246489Y228489D01*
X247670Y227520D01*
X249018Y226800D01*
X250480Y226356D01*
X252000Y226207D01*
X253520Y226356D01*
X254982Y226800D01*
X256330Y227520D01*
X257511Y228489D01*
X258480Y229670D01*
X259200Y231018D01*
X259644Y232480D01*
X259793Y234000D01*
X259644Y235520D01*
X259200Y236982D01*
X258480Y238330D01*
X257511Y239511D01*
X256330Y240480D01*
X254982Y241200D01*
X253520Y241644D01*
X252000Y241793D01*
D02*
G37*
G36*
X204500D02*
X202980Y241644D01*
X201518Y241200D01*
X200170Y240480D01*
X198989Y239511D01*
X198020Y238330D01*
X197300Y236982D01*
X196856Y235520D01*
X196707Y234000D01*
X196856Y232480D01*
X197300Y231018D01*
X198020Y229670D01*
X198989Y228489D01*
X200170Y227520D01*
X201518Y226800D01*
X202980Y226356D01*
X204500Y226207D01*
X206020Y226356D01*
X207482Y226800D01*
X208830Y227520D01*
X210011Y228489D01*
X210980Y229670D01*
X211700Y231018D01*
X212144Y232480D01*
X212293Y234000D01*
X212144Y235520D01*
X211700Y236982D01*
X210980Y238330D01*
X210011Y239511D01*
X208830Y240480D01*
X207482Y241200D01*
X206020Y241644D01*
X204500Y241793D01*
D02*
G37*
G36*
X146000Y133466D02*
Y130343D01*
X149123D01*
X149063Y130797D01*
X148695Y131687D01*
X148108Y132451D01*
X147345Y133037D01*
X146455Y133406D01*
X146000Y133466D01*
D02*
G37*
G36*
X296474Y185998D02*
X202500D01*
Y168000D01*
X296474D01*
Y185998D01*
D02*
G37*
G36*
X289421Y232000D02*
X286000D01*
Y228579D01*
X286532Y228649D01*
X287493Y229047D01*
X288319Y229681D01*
X288953Y230507D01*
X289351Y231468D01*
X289421Y232000D01*
D02*
G37*
%LPD*%
D10*
X137800Y199700D02*
X145000Y192500D01*
X137800Y199700D02*
Y242500D01*
X142017Y246717D01*
X147000D01*
X114500Y114000D02*
X120000D01*
X130100Y124100D01*
Y167600D01*
X145000Y182500D01*
X305200Y272800D02*
X315500Y262500D01*
X248100Y272800D02*
X305200D01*
X240300Y265000D02*
X248100Y272800D01*
X240300Y245800D02*
Y265000D01*
X228500Y234000D02*
X240300Y245800D01*
X179500Y264000D02*
X188300Y255200D01*
Y230200D02*
Y255200D01*
X174200Y216100D02*
X188300Y230200D01*
X179500Y234000D02*
Y242500D01*
X156100Y265900D02*
X179500Y242500D01*
X128900Y265900D02*
X156100D01*
X113000Y250000D02*
X128900Y265900D01*
X113500Y205000D02*
Y222500D01*
X113000Y223000D02*
X113500Y222500D01*
X113000Y223000D02*
Y240000D01*
X113500Y155500D02*
X114500Y134000D01*
X113500Y155500D02*
Y175000D01*
X125500Y187000D01*
Y240900D01*
X141317Y256717D01*
X147000D01*
X145500Y110157D02*
X173100Y137757D01*
Y178600D01*
X228500Y234000D01*
D11*
X206499Y108998D02*
X205499Y109998D01*
X203500D01*
X202500Y108998D01*
Y107999D01*
X203500Y106999D01*
X205499D01*
X206499Y105999D01*
Y105000D01*
X205499Y104000D01*
X203500D01*
X202500Y105000D01*
X211497Y104000D02*
X209498D01*
X208498Y105000D01*
Y106999D01*
X209498Y107999D01*
X211497D01*
X212497Y106999D01*
Y105999D01*
X208498D01*
X214496Y104000D02*
Y107999D01*
X217495D01*
X218495Y106999D01*
Y104000D01*
X220494D02*
X222494D01*
X221494D01*
Y107999D01*
X220494D01*
X226492Y104000D02*
X228492D01*
X229491Y105000D01*
Y106999D01*
X228492Y107999D01*
X226492D01*
X225493Y106999D01*
Y105000D01*
X226492Y104000D01*
X231491Y107999D02*
Y104000D01*
Y105999D01*
X232490Y106999D01*
X233490Y107999D01*
X234490D01*
X237489Y103000D02*
X241487D01*
X243487Y109998D02*
Y104000D01*
X246486D01*
X247485Y105000D01*
Y108998D01*
X246486Y109998D01*
X243487D01*
X250484Y104000D02*
X252484D01*
X253484Y105000D01*
Y106999D01*
X252484Y107999D01*
X250484D01*
X249485Y106999D01*
Y105000D01*
X250484Y104000D01*
X256483D02*
X258482D01*
X259482Y105000D01*
Y106999D01*
X258482Y107999D01*
X256483D01*
X255483Y106999D01*
Y105000D01*
X256483Y104000D01*
X261481Y107999D02*
Y104000D01*
Y105999D01*
X262481Y106999D01*
X263480Y107999D01*
X264480D01*
X267479Y109998D02*
Y104000D01*
X271478D01*
X274477D02*
X276476D01*
X277476Y105000D01*
Y106999D01*
X276476Y107999D01*
X274477D01*
X273477Y106999D01*
Y105000D01*
X274477Y104000D01*
X283474Y107999D02*
X280475D01*
X279475Y106999D01*
Y105000D01*
X280475Y104000D01*
X283474D01*
X285473D02*
Y109998D01*
Y105999D02*
X288472Y107999D01*
X285473Y105999D02*
X288472Y104000D01*
X212499Y178998D02*
X211499Y179998D01*
X209500D01*
X208500Y178998D01*
Y177999D01*
X209500Y176999D01*
X211499D01*
X212499Y175999D01*
Y175000D01*
X211499Y174000D01*
X209500D01*
X208500Y175000D01*
X214498Y174000D02*
Y179998D01*
X217497D01*
X218497Y178998D01*
Y176999D01*
X217497Y175999D01*
X214498D01*
X220496Y174000D02*
Y177999D01*
X222496Y179998D01*
X224495Y177999D01*
Y174000D01*
Y176999D01*
X220496D01*
X230493Y178998D02*
X229493Y179998D01*
X227494D01*
X226494Y178998D01*
Y175000D01*
X227494Y174000D01*
X229493D01*
X230493Y175000D01*
X236491Y179998D02*
X232492D01*
Y174000D01*
X236491D01*
X232492Y176999D02*
X234492D01*
X248487Y179998D02*
X244488D01*
Y176999D01*
X246488D01*
X244488D01*
Y174000D01*
X253485Y179998D02*
X251486D01*
X250486Y178998D01*
Y175000D01*
X251486Y174000D01*
X253485D01*
X254485Y175000D01*
Y178998D01*
X253485Y179998D01*
X256485Y174000D02*
Y179998D01*
X259484D01*
X260483Y178998D01*
Y176999D01*
X259484Y175999D01*
X256485D01*
X258484D02*
X260483Y174000D01*
X268481Y179998D02*
Y174000D01*
X272479D01*
X277478Y179998D02*
X275478D01*
X274479Y178998D01*
Y175000D01*
X275478Y174000D01*
X277478D01*
X278477Y175000D01*
Y178998D01*
X277478Y179998D01*
X284475Y178998D02*
X283476Y179998D01*
X281476D01*
X280477Y178998D01*
Y175000D01*
X281476Y174000D01*
X283476D01*
X284475Y175000D01*
X286475Y179998D02*
Y174000D01*
Y175999D01*
X290474Y179998D01*
X287474Y176999D01*
X290474Y174000D01*
D12*
X113500Y175000D02*
D03*
Y205000D02*
D03*
X179500Y234000D02*
D03*
Y264000D02*
D03*
X252000Y234000D02*
D03*
Y264000D02*
D03*
X204500D02*
D03*
Y234000D02*
D03*
X228500Y264000D02*
D03*
Y234000D02*
D03*
D13*
X147000Y236717D02*
D03*
D14*
Y246717D02*
D03*
Y256717D02*
D03*
D15*
X145000Y192500D02*
D03*
X315500Y232500D02*
D03*
Y242500D02*
D03*
Y252500D02*
D03*
Y262500D02*
D03*
X285500Y232500D02*
D03*
Y242500D02*
D03*
Y252500D02*
D03*
X114500Y134000D02*
D03*
Y124000D02*
D03*
X113000Y250000D02*
D03*
D16*
X145000Y182500D02*
D03*
X114500Y114000D02*
D03*
X113000Y240000D02*
D03*
D17*
X145500Y110157D02*
D03*
D18*
Y129843D02*
D03*
D19*
X285500Y262500D02*
D03*
D20*
X174200Y216100D02*
D03*
M02*
