M48
;Layer_Color=9474304
;FILE_FORMAT=2:5
INCH,LZ
;TYPE=PLATED
T1F00S00C0.02800
T2F00S00C0.03150
T3F00S00C0.03346
T4F00S00C0.03543
T5F00S00C0.03937
%
T01
X01742Y02161
T02
X01455Y0110157
Y0129843
T03
X01795Y0234
X02045
X02285
X0252
Y0264
X02285
X02045
X01795
X01135Y0205
Y0175
T04
X01145Y0114
Y0124
Y0134
X03155Y02325
Y02425
Y02525
Y02625
X02855
Y02525
Y02425
Y02325
X0113Y024
Y025
X0145Y01925
Y01825
T05
X0147Y0236717
Y0246717
Y0256717
M30
