G04 Layer_Physical_Order=1*
G04 Layer_Color=255*
%FSLAX25Y25*%
%MOIN*%
G70*
G01*
G75*
%ADD10C,0.02000*%
%ADD11C,0.01000*%
%ADD12C,0.05512*%
%ADD13O,0.07874X0.03937*%
%ADD14O,0.07874X0.03937*%
%ADD15C,0.05906*%
%ADD16R,0.05906X0.05906*%
%ADD17R,0.05315X0.05315*%
%ADD18C,0.05315*%
%ADD19R,0.05315X0.05315*%
%ADD20C,0.04724*%
%ADD21C,0.06500*%
G36*
X431952Y105547D02*
X402476D01*
Y124998D01*
X316500D01*
Y105547D01*
X105547D01*
Y290952D01*
X431952D01*
Y105547D01*
D02*
G37*
%LPC*%
G36*
X257500Y282793D02*
X255980Y282644D01*
X254518Y282200D01*
X253170Y281480D01*
X251989Y280511D01*
X251020Y279330D01*
X250300Y277982D01*
X249856Y276520D01*
X249707Y275000D01*
X249856Y273480D01*
X250300Y272018D01*
X251020Y270670D01*
X251989Y269489D01*
X253170Y268520D01*
X254518Y267800D01*
X255980Y267356D01*
X257500Y267207D01*
X259020Y267356D01*
X260482Y267800D01*
X261830Y268520D01*
X263011Y269489D01*
X263980Y270670D01*
X264700Y272018D01*
X265144Y273480D01*
X265293Y275000D01*
X265144Y276520D01*
X264700Y277982D01*
X263980Y279330D01*
X263011Y280511D01*
X261830Y281480D01*
X260482Y282200D01*
X259020Y282644D01*
X257500Y282793D01*
D02*
G37*
G36*
X157657Y258123D02*
Y255000D01*
X160781D01*
X160721Y255455D01*
X160352Y256345D01*
X159766Y257109D01*
X159002Y257695D01*
X158112Y258063D01*
X157657Y258123D01*
D02*
G37*
G36*
X156657D02*
X156203Y258063D01*
X155313Y257695D01*
X154549Y257109D01*
X153963Y256345D01*
X153594Y255455D01*
X153534Y255000D01*
X156657D01*
Y258123D01*
D02*
G37*
G36*
X160781Y254000D02*
X157657D01*
Y250877D01*
X158112Y250937D01*
X159002Y251305D01*
X159766Y251891D01*
X160352Y252656D01*
X160721Y253545D01*
X160781Y254000D01*
D02*
G37*
G36*
X156657D02*
X153534D01*
X153594Y253545D01*
X153963Y252656D01*
X154549Y251891D01*
X155313Y251305D01*
X156203Y250937D01*
X156657Y250877D01*
Y254000D01*
D02*
G37*
G36*
X223500Y252790D02*
X221883Y252631D01*
X220328Y252159D01*
X218894Y251393D01*
X217638Y250362D01*
X216607Y249106D01*
X216250Y248437D01*
X215750D01*
X215393Y249106D01*
X214362Y250362D01*
X213106Y251393D01*
X211672Y252159D01*
X210117Y252631D01*
X208500Y252790D01*
X206883Y252631D01*
X205328Y252159D01*
X203894Y251393D01*
X202638Y250362D01*
X201607Y249106D01*
X201250Y248437D01*
X200750D01*
X200393Y249106D01*
X199362Y250362D01*
X198106Y251393D01*
X196672Y252159D01*
X195117Y252631D01*
X193500Y252790D01*
X191883Y252631D01*
X190328Y252159D01*
X188894Y251393D01*
X187638Y250362D01*
X186607Y249106D01*
X185841Y247672D01*
X185369Y246117D01*
X185210Y244500D01*
X185369Y242883D01*
X185841Y241328D01*
X186607Y239894D01*
X187638Y238638D01*
X188894Y237607D01*
X190328Y236841D01*
X191883Y236369D01*
X193500Y236210D01*
X195117Y236369D01*
X196672Y236841D01*
X198106Y237607D01*
X199362Y238638D01*
X200393Y239894D01*
X200750Y240563D01*
X201250D01*
X201607Y239894D01*
X202471Y238842D01*
Y238500D01*
X202587Y237324D01*
X202930Y236193D01*
X203487Y235151D01*
X204237Y234237D01*
X213787Y224687D01*
X213856Y223980D01*
X214300Y222518D01*
X215020Y221170D01*
X215471Y220621D01*
Y209259D01*
X215349Y209110D01*
X214665Y207831D01*
X214244Y206443D01*
X214102Y205000D01*
X214244Y203557D01*
X214665Y202169D01*
X215349Y200890D01*
X216269Y199769D01*
X217390Y198849D01*
X218669Y198165D01*
X220057Y197744D01*
X221500Y197602D01*
X222943Y197744D01*
X224331Y198165D01*
X225610Y198849D01*
X226731Y199769D01*
X227651Y200890D01*
X228335Y202169D01*
X228756Y203557D01*
X228898Y205000D01*
X228756Y206443D01*
X228335Y207831D01*
X227651Y209110D01*
X227529Y209259D01*
Y220621D01*
X227980Y221170D01*
X228700Y222518D01*
X229144Y223980D01*
X229293Y225500D01*
X229144Y227020D01*
X228700Y228482D01*
X227980Y229830D01*
X227011Y231011D01*
X225830Y231980D01*
X224482Y232700D01*
X223020Y233144D01*
X222313Y233213D01*
X215476Y240050D01*
X215750Y240563D01*
X216250D01*
X216607Y239894D01*
X217638Y238638D01*
X218894Y237607D01*
X220328Y236841D01*
X221883Y236369D01*
X223500Y236210D01*
X225117Y236369D01*
X226672Y236841D01*
X228106Y237607D01*
X229362Y238638D01*
X230393Y239894D01*
X231159Y241328D01*
X231631Y242883D01*
X231790Y244500D01*
X231631Y246117D01*
X231159Y247672D01*
X230393Y249106D01*
X229362Y250362D01*
X228106Y251393D01*
X226672Y252159D01*
X225117Y252631D01*
X223500Y252790D01*
D02*
G37*
G36*
X184500Y262158D02*
X169185D01*
Y246843D01*
X184500D01*
Y262158D01*
D02*
G37*
G36*
X414953Y237953D02*
X399047D01*
Y222047D01*
X403028D01*
X403363Y221547D01*
X403149Y221032D01*
X403079Y220500D01*
X407000D01*
Y220000D01*
D01*
Y220500D01*
X410921D01*
X410851Y221032D01*
X410638Y221547D01*
X410972Y222047D01*
X414953D01*
Y237953D01*
D02*
G37*
G36*
X410921Y219500D02*
X407500D01*
Y216079D01*
X408032Y216149D01*
X408993Y216547D01*
X409819Y217181D01*
X410453Y218007D01*
X410851Y218968D01*
X410921Y219500D01*
D02*
G37*
G36*
X406500D02*
X403079D01*
X403149Y218968D01*
X403547Y218007D01*
X404181Y217181D01*
X405007Y216547D01*
X405968Y216149D01*
X406500Y216079D01*
Y219500D01*
D02*
G37*
G36*
X257500Y252793D02*
X255980Y252644D01*
X254518Y252200D01*
X253170Y251480D01*
X251989Y250511D01*
X251020Y249330D01*
X250300Y247982D01*
X249856Y246520D01*
X249707Y245000D01*
X249856Y243480D01*
X250300Y242018D01*
X251020Y240670D01*
X251471Y240121D01*
Y233700D01*
X251587Y232524D01*
X251930Y231393D01*
X252471Y230381D01*
Y226666D01*
X251855Y225916D01*
X251117Y224535D01*
X250662Y223035D01*
X250509Y221476D01*
X250662Y219917D01*
X251117Y218418D01*
X251855Y217037D01*
X252849Y215826D01*
X254060Y214832D01*
X255442Y214093D01*
X256941Y213639D01*
X258500Y213485D01*
X260059Y213639D01*
X261558Y214093D01*
X262940Y214832D01*
X264151Y215826D01*
X265144Y217037D01*
X265883Y218418D01*
X266338Y219917D01*
X266491Y221476D01*
X266338Y223035D01*
X265883Y224535D01*
X265144Y225916D01*
X264529Y226666D01*
Y232700D01*
X264413Y233876D01*
X264070Y235007D01*
X263529Y236019D01*
Y240121D01*
X263980Y240670D01*
X264700Y242018D01*
X265144Y243480D01*
X265293Y245000D01*
X265144Y246520D01*
X264700Y247982D01*
X263980Y249330D01*
X263011Y250511D01*
X261830Y251480D01*
X260482Y252200D01*
X259020Y252644D01*
X257500Y252793D01*
D02*
G37*
G36*
X337000Y246293D02*
X335480Y246144D01*
X334018Y245700D01*
X332670Y244980D01*
X331489Y244011D01*
X330520Y242830D01*
X329800Y241482D01*
X329356Y240020D01*
X329207Y238500D01*
X329356Y236980D01*
X329800Y235518D01*
X330520Y234170D01*
X330971Y233621D01*
Y231584D01*
X330930Y231507D01*
X330587Y230376D01*
X330471Y229200D01*
Y225379D01*
X330020Y224830D01*
X329300Y223482D01*
X328856Y222020D01*
X328707Y220500D01*
X328856Y218980D01*
X329300Y217518D01*
X330020Y216170D01*
X330989Y214989D01*
X332170Y214020D01*
X333518Y213300D01*
X334980Y212856D01*
X336500Y212707D01*
X338020Y212856D01*
X339482Y213300D01*
X340830Y214020D01*
X342011Y214989D01*
X342980Y216170D01*
X343700Y217518D01*
X344144Y218980D01*
X344293Y220500D01*
X344144Y222020D01*
X343700Y223482D01*
X342980Y224830D01*
X342529Y225379D01*
Y227316D01*
X342570Y227393D01*
X342913Y228524D01*
X343029Y229700D01*
X343029Y229700D01*
Y233621D01*
X343480Y234170D01*
X344200Y235518D01*
X344644Y236980D01*
X344793Y238500D01*
X344644Y240020D01*
X344200Y241482D01*
X343480Y242830D01*
X342511Y244011D01*
X341330Y244980D01*
X339982Y245700D01*
X338520Y246144D01*
X337000Y246293D01*
D02*
G37*
G36*
X119000Y208921D02*
Y205500D01*
X122421D01*
X122351Y206032D01*
X121953Y206993D01*
X121319Y207819D01*
X120493Y208453D01*
X119532Y208851D01*
X119000Y208921D01*
D02*
G37*
G36*
X118000D02*
X117468Y208851D01*
X116507Y208453D01*
X115681Y207819D01*
X115047Y206993D01*
X114649Y206032D01*
X114579Y205500D01*
X118000D01*
Y208921D01*
D02*
G37*
G36*
X191500Y233293D02*
X189980Y233144D01*
X188518Y232700D01*
X187170Y231980D01*
X185989Y231011D01*
X185020Y229830D01*
X184300Y228482D01*
X183856Y227020D01*
X183707Y225500D01*
X183856Y223980D01*
X184300Y222518D01*
X185020Y221170D01*
X185471Y220621D01*
Y209259D01*
X185349Y209110D01*
X184665Y207831D01*
X184244Y206443D01*
X184102Y205000D01*
X184244Y203557D01*
X184665Y202169D01*
X185349Y200890D01*
X186269Y199769D01*
X187390Y198849D01*
X188669Y198165D01*
X190057Y197744D01*
X190248Y197725D01*
X194971Y193003D01*
Y191585D01*
X194471Y191338D01*
X193894Y191781D01*
X192981Y192159D01*
X192500Y192222D01*
Y188500D01*
Y184777D01*
X192981Y184841D01*
X193894Y185219D01*
X194471Y185662D01*
X194971Y185415D01*
Y171343D01*
X194967Y171325D01*
X194971Y171270D01*
Y170730D01*
X194967Y170675D01*
X194971Y170657D01*
Y156343D01*
X195087Y155166D01*
X195430Y154035D01*
X195987Y152993D01*
X196737Y152079D01*
X200759Y148057D01*
X200458Y147651D01*
X199602Y148109D01*
X198159Y148547D01*
X196657Y148695D01*
X195156Y148547D01*
X193713Y148109D01*
X192383Y147398D01*
X191217Y146441D01*
X190260Y145275D01*
X189549Y143945D01*
X189111Y142501D01*
X188963Y141000D01*
X189111Y139499D01*
X189549Y138055D01*
X190260Y136725D01*
X190628Y136276D01*
Y123724D01*
X190260Y123275D01*
X189549Y121945D01*
X189111Y120501D01*
X188963Y119000D01*
X189111Y117499D01*
X189549Y116055D01*
X190260Y114725D01*
X191217Y113559D01*
X192383Y112602D01*
X193713Y111891D01*
X195156Y111453D01*
X196657Y111305D01*
X198159Y111453D01*
X199602Y111891D01*
X200932Y112602D01*
X202098Y113559D01*
X203055Y114725D01*
X203766Y116055D01*
X204204Y117499D01*
X204352Y119000D01*
X204204Y120501D01*
X203766Y121945D01*
X203055Y123275D01*
X202686Y123724D01*
Y136276D01*
X203055Y136725D01*
X203766Y138055D01*
X204204Y139499D01*
X204352Y141000D01*
X204204Y142501D01*
X203766Y143945D01*
X203309Y144800D01*
X203715Y145101D01*
X208552Y140265D01*
X208589Y140212D01*
X208685Y140109D01*
Y133343D01*
X210314D01*
Y126657D01*
X208685D01*
Y111343D01*
X224000D01*
Y126657D01*
X222372D01*
Y133343D01*
X224000D01*
Y148658D01*
X217231D01*
X217201Y148687D01*
X217128Y148741D01*
X208325Y157544D01*
X208516Y158006D01*
X208968D01*
X209743Y158108D01*
X210466Y158407D01*
X211086Y158883D01*
X211561Y159503D01*
X211562Y159505D01*
X211648Y159531D01*
X212472Y159971D01*
X215000D01*
X216176Y160087D01*
X217307Y160430D01*
X218350Y160987D01*
X219263Y161737D01*
X226263Y168737D01*
X226263Y168737D01*
X227013Y169650D01*
X227570Y170693D01*
X227913Y171824D01*
X228029Y173000D01*
Y183621D01*
X228480Y184170D01*
X229200Y185518D01*
X229644Y186980D01*
X229793Y188500D01*
X229644Y190020D01*
X229200Y191482D01*
X228480Y192830D01*
X227511Y194011D01*
X226330Y194980D01*
X224982Y195700D01*
X223520Y196144D01*
X222000Y196293D01*
X220480Y196144D01*
X219018Y195700D01*
X217670Y194980D01*
X216489Y194011D01*
X215520Y192830D01*
X214800Y191482D01*
X214356Y190020D01*
X214207Y188500D01*
X214356Y186980D01*
X214800Y185518D01*
X215520Y184170D01*
X215971Y183621D01*
Y175497D01*
X215287Y174813D01*
X215082Y174844D01*
X214730Y174964D01*
X213920Y175951D01*
X212859Y176822D01*
X211648Y177469D01*
X210335Y177868D01*
X208968Y178002D01*
X207029D01*
Y195500D01*
X206913Y196676D01*
X206570Y197807D01*
X206013Y198849D01*
X205263Y199763D01*
X198775Y206252D01*
X198756Y206443D01*
X198335Y207831D01*
X197651Y209110D01*
X197529Y209259D01*
Y220621D01*
X197980Y221170D01*
X198700Y222518D01*
X199144Y223980D01*
X199293Y225500D01*
X199144Y227020D01*
X198700Y228482D01*
X197980Y229830D01*
X197011Y231011D01*
X195830Y231980D01*
X194482Y232700D01*
X193020Y233144D01*
X191500Y233293D01*
D02*
G37*
G36*
Y192222D02*
X191019Y192159D01*
X190106Y191781D01*
X189321Y191179D01*
X188719Y190394D01*
X188341Y189480D01*
X188277Y189000D01*
X191500D01*
Y192222D01*
D02*
G37*
G36*
X156500Y203793D02*
X154980Y203644D01*
X153518Y203200D01*
X152170Y202480D01*
X150989Y201511D01*
X150020Y200330D01*
X149300Y198982D01*
X148856Y197520D01*
X148707Y196000D01*
X148856Y194480D01*
X149300Y193018D01*
X150020Y191670D01*
X150989Y190489D01*
X152170Y189520D01*
X153518Y188800D01*
X154980Y188356D01*
X156500Y188207D01*
X158020Y188356D01*
X159482Y188800D01*
X160830Y189520D01*
X162011Y190489D01*
X162980Y191670D01*
X163700Y193018D01*
X164144Y194480D01*
X164293Y196000D01*
X164144Y197520D01*
X163700Y198982D01*
X162980Y200330D01*
X162011Y201511D01*
X160830Y202480D01*
X159482Y203200D01*
X158020Y203644D01*
X156500Y203793D01*
D02*
G37*
G36*
X122421Y204500D02*
X118500D01*
X114579D01*
X114649Y203968D01*
X114863Y203453D01*
X114528Y202953D01*
X110547D01*
Y187047D01*
X126453D01*
Y202953D01*
X122472D01*
X122137Y203453D01*
X122351Y203968D01*
X122421Y204500D01*
D02*
G37*
G36*
X266453Y201476D02*
X250547D01*
Y185571D01*
X266453D01*
Y201476D01*
D02*
G37*
G36*
X191500Y188000D02*
X188277D01*
X188341Y187520D01*
X188719Y186606D01*
X189321Y185821D01*
X190106Y185219D01*
X191019Y184841D01*
X191500Y184777D01*
Y188000D01*
D02*
G37*
G36*
X407843Y186123D02*
Y183000D01*
X410966D01*
X410906Y183455D01*
X410537Y184344D01*
X409951Y185108D01*
X409187Y185695D01*
X408297Y186063D01*
X407843Y186123D01*
D02*
G37*
G36*
X406843D02*
X406388Y186063D01*
X405498Y185695D01*
X404734Y185108D01*
X404148Y184344D01*
X403779Y183455D01*
X403719Y183000D01*
X406843D01*
Y186123D01*
D02*
G37*
G36*
X299500Y196968D02*
X297941Y196814D01*
X296442Y196359D01*
X295060Y195621D01*
X293849Y194627D01*
X292856Y193416D01*
X292117Y192034D01*
X291662Y190535D01*
X291509Y188976D01*
X291662Y187417D01*
X292117Y185918D01*
X292856Y184537D01*
X293849Y183326D01*
X295060Y182332D01*
X296442Y181594D01*
X297941Y181139D01*
X299500Y180985D01*
X301059Y181139D01*
X302558Y181594D01*
X303940Y182332D01*
X305151Y183326D01*
X306144Y184537D01*
X306883Y185918D01*
X307338Y187417D01*
X307491Y188976D01*
X307338Y190535D01*
X306883Y192034D01*
X306144Y193416D01*
X305151Y194627D01*
X303940Y195621D01*
X302558Y196359D01*
X301059Y196814D01*
X299500Y196968D01*
D02*
G37*
G36*
X410966Y182000D02*
X407843D01*
Y178877D01*
X408297Y178937D01*
X409187Y179305D01*
X409951Y179892D01*
X410537Y180656D01*
X410906Y181545D01*
X410966Y182000D01*
D02*
G37*
G36*
X406843D02*
X403719D01*
X403779Y181545D01*
X404148Y180656D01*
X404734Y179892D01*
X405498Y179305D01*
X406388Y178937D01*
X406843Y178877D01*
Y182000D01*
D02*
G37*
G36*
X395315Y190157D02*
X380000D01*
Y174843D01*
X395315D01*
Y190157D01*
D02*
G37*
G36*
X156500Y186793D02*
X154980Y186644D01*
X153518Y186200D01*
X152170Y185480D01*
X150989Y184511D01*
X150020Y183330D01*
X149300Y181982D01*
X148856Y180520D01*
X148707Y179000D01*
X148856Y177480D01*
X149300Y176018D01*
X150020Y174670D01*
X150989Y173489D01*
X152170Y172520D01*
X153518Y171800D01*
X154980Y171356D01*
X156500Y171207D01*
X158020Y171356D01*
X159482Y171800D01*
X160830Y172520D01*
X162011Y173489D01*
X162980Y174670D01*
X163700Y176018D01*
X164144Y177480D01*
X164293Y179000D01*
X164144Y180520D01*
X163700Y181982D01*
X162980Y183330D01*
X162011Y184511D01*
X160830Y185480D01*
X159482Y186200D01*
X158020Y186644D01*
X156500Y186793D01*
D02*
G37*
G36*
X311757Y278629D02*
X311228Y278577D01*
X310699Y278535D01*
X310641Y278519D01*
X310581Y278513D01*
X310073Y278359D01*
X309561Y278215D01*
X309508Y278188D01*
X309450Y278170D01*
X308982Y277920D01*
X308508Y277679D01*
X308461Y277641D01*
X308408Y277613D01*
X307997Y277276D01*
X307580Y276947D01*
X307541Y276901D01*
X307494Y276863D01*
X300265Y269634D01*
X300212Y269596D01*
X300109Y269500D01*
X293342D01*
Y254185D01*
X308658D01*
Y260954D01*
X308687Y260984D01*
X308741Y261057D01*
X314205Y266521D01*
X331164Y266183D01*
X331351Y265720D01*
X309027Y243396D01*
X308556Y243564D01*
X308547Y243658D01*
X308109Y245102D01*
X307398Y246432D01*
X306441Y247598D01*
X305275Y248555D01*
X303945Y249266D01*
X302501Y249704D01*
X301000Y249852D01*
X299499Y249704D01*
X298055Y249266D01*
X296725Y248555D01*
X295559Y247598D01*
X294602Y246432D01*
X293891Y245102D01*
X293453Y243658D01*
X293305Y242157D01*
X293453Y240656D01*
X293891Y239213D01*
X294602Y237882D01*
X295559Y236717D01*
X296725Y235760D01*
X298055Y235049D01*
X299499Y234611D01*
X299593Y234601D01*
X299762Y234131D01*
X296237Y230606D01*
X295487Y229692D01*
X294930Y228650D01*
X294686Y227846D01*
X294641Y227822D01*
X293580Y226951D01*
X292709Y225890D01*
X292062Y224680D01*
X291664Y223366D01*
X291529Y222000D01*
X291664Y220634D01*
X292008Y219500D01*
X291664Y218366D01*
X291529Y217000D01*
X291664Y215634D01*
X292008Y214500D01*
X291664Y213366D01*
X291529Y212000D01*
X291664Y210634D01*
X292062Y209320D01*
X292709Y208110D01*
X293580Y207049D01*
X294641Y206178D01*
X295852Y205531D01*
X297165Y205132D01*
X298532Y204998D01*
X302468D01*
X303835Y205132D01*
X305148Y205531D01*
X306359Y206178D01*
X307420Y207049D01*
X308291Y208110D01*
X308938Y209320D01*
X309336Y210634D01*
X309471Y212000D01*
X309336Y213366D01*
X308992Y214500D01*
X309336Y215634D01*
X309471Y217000D01*
X309336Y218366D01*
X308992Y219500D01*
X309336Y220634D01*
X309471Y222000D01*
X309336Y223366D01*
X308938Y224680D01*
X308389Y225706D01*
X340892Y258208D01*
X340944Y258245D01*
X341049Y258343D01*
X347815D01*
Y265495D01*
X348172Y265845D01*
X356195Y265685D01*
X356279Y265045D01*
X356648Y264156D01*
X357234Y263391D01*
X357998Y262805D01*
X358888Y262437D01*
X359843Y262311D01*
X360471Y262394D01*
X360971Y262003D01*
Y243379D01*
X360520Y242830D01*
X359800Y241482D01*
X359356Y240020D01*
X359207Y238500D01*
X359356Y236980D01*
X359800Y235518D01*
X360520Y234170D01*
X360971Y233621D01*
Y231584D01*
X360930Y231507D01*
X360587Y230376D01*
X360471Y229200D01*
Y225379D01*
X360020Y224830D01*
X359300Y223482D01*
X358856Y222020D01*
X358707Y220500D01*
X358856Y218980D01*
X359300Y217518D01*
X360020Y216170D01*
X360471Y215621D01*
Y208439D01*
X359987Y207850D01*
X359430Y206807D01*
X359087Y205676D01*
X358971Y204500D01*
Y194879D01*
X358520Y194330D01*
X357800Y192982D01*
X357356Y191520D01*
X357207Y190000D01*
X357356Y188480D01*
X357800Y187018D01*
X358520Y185670D01*
X358971Y185121D01*
Y181500D01*
X359087Y180324D01*
X359430Y179193D01*
X359471Y179116D01*
Y177379D01*
X359020Y176830D01*
X358300Y175482D01*
X357856Y174020D01*
X357707Y172500D01*
X357856Y170980D01*
X358300Y169518D01*
X359020Y168170D01*
X359989Y166989D01*
X361170Y166020D01*
X362518Y165300D01*
X363980Y164856D01*
X365500Y164707D01*
X367020Y164856D01*
X368482Y165300D01*
X369830Y166020D01*
X371011Y166989D01*
X371980Y168170D01*
X372700Y169518D01*
X373144Y170980D01*
X373293Y172500D01*
X373144Y174020D01*
X372700Y175482D01*
X371980Y176830D01*
X371529Y177379D01*
Y181000D01*
X371529Y181000D01*
X371413Y182176D01*
X371070Y183307D01*
X371029Y183384D01*
Y185121D01*
X371480Y185670D01*
X372200Y187018D01*
X372644Y188480D01*
X372793Y190000D01*
X372644Y191520D01*
X372200Y192982D01*
X371480Y194330D01*
X371029Y194879D01*
Y202061D01*
X371513Y202650D01*
X372070Y203693D01*
X372413Y204824D01*
X372529Y206000D01*
Y215621D01*
X372980Y216170D01*
X373700Y217518D01*
X374144Y218980D01*
X374293Y220500D01*
X374144Y222020D01*
X373700Y223482D01*
X372980Y224830D01*
X372529Y225379D01*
Y227316D01*
X372570Y227393D01*
X372913Y228524D01*
X373029Y229700D01*
X373029Y229700D01*
Y233621D01*
X373480Y234170D01*
X374200Y235518D01*
X374644Y236980D01*
X374793Y238500D01*
X374644Y240020D01*
X374200Y241482D01*
X373480Y242830D01*
X373029Y243379D01*
Y271500D01*
X372977Y272029D01*
X372935Y272558D01*
X372919Y272616D01*
X372913Y272676D01*
X372759Y273185D01*
X372615Y273696D01*
X372588Y273750D01*
X372570Y273807D01*
X372320Y274276D01*
X372079Y274749D01*
X372041Y274796D01*
X372013Y274850D01*
X371676Y275260D01*
X371347Y275677D01*
X371301Y275717D01*
X371263Y275763D01*
X370852Y276100D01*
X370449Y276445D01*
X370396Y276475D01*
X370350Y276513D01*
X369881Y276764D01*
X369418Y277023D01*
X369360Y277042D01*
X369307Y277070D01*
X368799Y277224D01*
X368294Y277389D01*
X368234Y277396D01*
X368176Y277413D01*
X367648Y277465D01*
X367120Y277528D01*
X311877Y278628D01*
X311817Y278623D01*
X311757Y278629D01*
D02*
G37*
G36*
X118500Y176991D02*
X116941Y176838D01*
X115442Y176383D01*
X114060Y175645D01*
X112849Y174651D01*
X111855Y173440D01*
X111117Y172058D01*
X110662Y170559D01*
X110509Y169000D01*
X110662Y167441D01*
X111117Y165942D01*
X111855Y164560D01*
X112849Y163349D01*
X114060Y162355D01*
X114547Y162095D01*
Y159500D01*
X118500D01*
X122453D01*
Y162095D01*
X122940Y162355D01*
X124151Y163349D01*
X125145Y164560D01*
X125883Y165942D01*
X126338Y167441D01*
X126491Y169000D01*
X126338Y170559D01*
X125883Y172058D01*
X125145Y173440D01*
X124151Y174651D01*
X122940Y175645D01*
X121558Y176383D01*
X120059Y176838D01*
X118500Y176991D01*
D02*
G37*
G36*
X268000Y173293D02*
X266480Y173144D01*
X265018Y172700D01*
X263670Y171980D01*
X262489Y171011D01*
X261520Y169830D01*
X260800Y168482D01*
X260356Y167020D01*
X260207Y165500D01*
X260356Y163980D01*
X260800Y162518D01*
X261520Y161170D01*
X262489Y159989D01*
X263670Y159020D01*
X265018Y158300D01*
X266480Y157856D01*
X268000Y157707D01*
X269520Y157856D01*
X270982Y158300D01*
X272330Y159020D01*
X273511Y159989D01*
X274480Y161170D01*
X275200Y162518D01*
X275644Y163980D01*
X275793Y165500D01*
X275644Y167020D01*
X275200Y168482D01*
X274480Y169830D01*
X273511Y171011D01*
X272330Y171980D01*
X270982Y172700D01*
X269520Y173144D01*
X268000Y173293D01*
D02*
G37*
G36*
X122453Y158500D02*
X119000D01*
Y155047D01*
X122453D01*
Y158500D01*
D02*
G37*
G36*
X118000D02*
X114547D01*
Y155047D01*
X118000D01*
Y158500D01*
D02*
G37*
G36*
X156500Y233793D02*
X154980Y233644D01*
X153518Y233200D01*
X152170Y232480D01*
X150989Y231511D01*
X150020Y230330D01*
X149300Y228982D01*
X148856Y227520D01*
X148707Y226000D01*
X148856Y224480D01*
X149300Y223018D01*
X150020Y221670D01*
X150989Y220489D01*
X152170Y219520D01*
X153518Y218800D01*
X154980Y218356D01*
X155687Y218287D01*
X168171Y205803D01*
Y162457D01*
X168287Y161281D01*
X168630Y160150D01*
X169187Y159108D01*
X169937Y158194D01*
X172523Y155608D01*
X172449Y155093D01*
X172380Y155029D01*
X161379D01*
X160830Y155480D01*
X159482Y156200D01*
X158020Y156644D01*
X156500Y156793D01*
X154980Y156644D01*
X153518Y156200D01*
X152170Y155480D01*
X150989Y154511D01*
X150020Y153330D01*
X149300Y151982D01*
X148856Y150520D01*
X148707Y149000D01*
X148856Y147480D01*
X149300Y146018D01*
X150020Y144670D01*
X150989Y143489D01*
X152170Y142520D01*
X153518Y141800D01*
X154980Y141356D01*
X156500Y141207D01*
X158020Y141356D01*
X159482Y141800D01*
X160830Y142520D01*
X161379Y142971D01*
X182500D01*
X183676Y143087D01*
X184807Y143430D01*
X185849Y143987D01*
X186763Y144737D01*
X189463Y147437D01*
X190213Y148351D01*
X190770Y149393D01*
X191113Y150524D01*
X191229Y151700D01*
X191229Y151700D01*
Y171143D01*
X191113Y172319D01*
X190770Y173450D01*
X190213Y174492D01*
X189463Y175406D01*
X188104Y176765D01*
X188047Y177344D01*
X187609Y178787D01*
X186898Y180117D01*
X185941Y181283D01*
X184775Y182240D01*
X183445Y182951D01*
X182001Y183389D01*
X180500Y183537D01*
X180229Y183783D01*
Y208300D01*
X180113Y209476D01*
X179770Y210607D01*
X179213Y211649D01*
X178463Y212563D01*
X164213Y226813D01*
X164144Y227520D01*
X163700Y228982D01*
X162980Y230330D01*
X162011Y231511D01*
X160830Y232480D01*
X159482Y233200D01*
X158020Y233644D01*
X156500Y233793D01*
D02*
G37*
G36*
X238000Y173293D02*
X236480Y173144D01*
X235018Y172700D01*
X233670Y171980D01*
X232489Y171011D01*
X231520Y169830D01*
X230800Y168482D01*
X230356Y167020D01*
X230207Y165500D01*
X230356Y163980D01*
X230800Y162518D01*
X231520Y161170D01*
X232069Y160501D01*
X232087Y160324D01*
X232430Y159193D01*
X232987Y158150D01*
X233737Y157237D01*
X244787Y146187D01*
X244856Y145480D01*
X245300Y144018D01*
X246020Y142670D01*
X246989Y141489D01*
X248170Y140520D01*
X249518Y139800D01*
X250980Y139356D01*
X252500Y139207D01*
X254020Y139356D01*
X255482Y139800D01*
X256830Y140520D01*
X258011Y141489D01*
X258980Y142670D01*
X259700Y144018D01*
X260144Y145480D01*
X260293Y147000D01*
X260144Y148520D01*
X259700Y149982D01*
X258980Y151330D01*
X258011Y152511D01*
X256830Y153480D01*
X255482Y154200D01*
X254020Y154644D01*
X253313Y154713D01*
X245272Y162754D01*
X245644Y163980D01*
X245793Y165500D01*
X245644Y167020D01*
X245200Y168482D01*
X244480Y169830D01*
X243511Y171011D01*
X242330Y171980D01*
X240982Y172700D01*
X239520Y173144D01*
X238000Y173293D01*
D02*
G37*
G36*
X335000Y197793D02*
X333480Y197644D01*
X332018Y197200D01*
X330670Y196480D01*
X329489Y195511D01*
X328520Y194330D01*
X327800Y192982D01*
X327356Y191520D01*
X327207Y190000D01*
X327356Y188480D01*
X327800Y187018D01*
X328520Y185670D01*
X328971Y185121D01*
Y181500D01*
X329087Y180324D01*
X329430Y179193D01*
X329471Y179116D01*
Y177379D01*
X329020Y176830D01*
X328300Y175482D01*
X327856Y174020D01*
X327707Y172500D01*
X327856Y170980D01*
X328300Y169518D01*
X329020Y168170D01*
X329471Y167621D01*
Y155000D01*
X329587Y153824D01*
X329930Y152693D01*
X330487Y151651D01*
X331237Y150737D01*
X338237Y143737D01*
X338237Y143737D01*
X339151Y142987D01*
X340193Y142430D01*
X341113Y142151D01*
X341164Y141634D01*
X341562Y140320D01*
X342209Y139110D01*
X343080Y138049D01*
X344141Y137178D01*
X345352Y136531D01*
X345438Y136505D01*
X345439Y136503D01*
X345914Y135883D01*
X346534Y135407D01*
X347257Y135108D01*
X348031Y135006D01*
X351969D01*
X352743Y135108D01*
X353466Y135407D01*
X354086Y135883D01*
X354561Y136503D01*
X354562Y136505D01*
X354648Y136531D01*
X355859Y137178D01*
X356920Y138049D01*
X357791Y139110D01*
X358438Y140320D01*
X358836Y141634D01*
X358971Y143000D01*
X358836Y144366D01*
X358492Y145500D01*
X358836Y146634D01*
X358971Y148000D01*
X358836Y149366D01*
X358438Y150680D01*
X357791Y151890D01*
X356920Y152951D01*
X355859Y153822D01*
X354648Y154469D01*
X353335Y154868D01*
X351969Y155002D01*
X348031D01*
X346665Y154868D01*
X345352Y154469D01*
X344834Y154192D01*
X341529Y157497D01*
Y167621D01*
X341980Y168170D01*
X342700Y169518D01*
X343144Y170980D01*
X343293Y172500D01*
X343144Y174020D01*
X342700Y175482D01*
X341980Y176830D01*
X341529Y177379D01*
Y181000D01*
X341529Y181000D01*
X341413Y182176D01*
X341070Y183307D01*
X341029Y183384D01*
Y185121D01*
X341480Y185670D01*
X342200Y187018D01*
X342644Y188480D01*
X342793Y190000D01*
X342644Y191520D01*
X342200Y192982D01*
X341480Y194330D01*
X340511Y195511D01*
X339330Y196480D01*
X337982Y197200D01*
X336520Y197644D01*
X335000Y197793D01*
D02*
G37*
G36*
X307453Y168976D02*
X291547D01*
Y153071D01*
X293471D01*
Y149700D01*
X293587Y148524D01*
X293930Y147393D01*
X293971Y147316D01*
Y143682D01*
X293080Y142951D01*
X292209Y141890D01*
X291562Y140680D01*
X291164Y139366D01*
X291029Y138000D01*
X291164Y136634D01*
X291508Y135500D01*
X291164Y134366D01*
X291029Y133000D01*
X291164Y131634D01*
X291562Y130320D01*
X292209Y129110D01*
X293080Y128049D01*
X294141Y127178D01*
X295352Y126531D01*
X295438Y126505D01*
X295439Y126503D01*
X295914Y125883D01*
X296534Y125407D01*
X297257Y125108D01*
X298031Y125006D01*
X301969D01*
X302743Y125108D01*
X303466Y125407D01*
X304086Y125883D01*
X304561Y126503D01*
X304562Y126505D01*
X304648Y126531D01*
X305859Y127178D01*
X306920Y128049D01*
X307791Y129110D01*
X308438Y130320D01*
X308836Y131634D01*
X308971Y133000D01*
X308836Y134366D01*
X308492Y135500D01*
X308836Y136634D01*
X308971Y138000D01*
X308836Y139366D01*
X308438Y140680D01*
X307791Y141890D01*
X306920Y142951D01*
X306029Y143682D01*
Y149200D01*
X306029Y149200D01*
X305913Y150376D01*
X305570Y151507D01*
X305529Y151584D01*
Y153071D01*
X307453D01*
Y168976D01*
D02*
G37*
G36*
X253000Y120722D02*
Y117500D01*
X256223D01*
X256159Y117981D01*
X255781Y118894D01*
X255179Y119679D01*
X254394Y120281D01*
X253481Y120659D01*
X253000Y120722D01*
D02*
G37*
G36*
X252000D02*
X251519Y120659D01*
X250606Y120281D01*
X249821Y119679D01*
X249219Y118894D01*
X248841Y117981D01*
X248778Y117500D01*
X252000D01*
Y120722D01*
D02*
G37*
G36*
X256223Y116500D02*
X253000D01*
Y113277D01*
X253481Y113341D01*
X254394Y113719D01*
X255179Y114321D01*
X255781Y115106D01*
X256159Y116019D01*
X256223Y116500D01*
D02*
G37*
G36*
X252000D02*
X248778D01*
X248841Y116019D01*
X249219Y115106D01*
X249821Y114321D01*
X250606Y113719D01*
X251519Y113341D01*
X252000Y113277D01*
Y116500D01*
D02*
G37*
%LPD*%
G36*
X210533Y241927D02*
X210316Y241670D01*
X210125Y241409D01*
X209959Y241144D01*
X209819Y240874D01*
X209704Y240599D01*
X209615Y240321D01*
X209551Y240037D01*
X209513Y239750D01*
X209500Y239458D01*
X207500D01*
X207487Y239750D01*
X207449Y240037D01*
X207385Y240321D01*
X207296Y240599D01*
X207181Y240874D01*
X207041Y241144D01*
X206875Y241409D01*
X206684Y241670D01*
X206467Y241927D01*
X206225Y242179D01*
X210775D01*
X210533Y241927D01*
D02*
G37*
G36*
X219415Y229012D02*
X219616Y228851D01*
X219823Y228709D01*
X220038Y228587D01*
X220259Y228483D01*
X220488Y228399D01*
X220724Y228335D01*
X220966Y228289D01*
X221216Y228263D01*
X221472Y228256D01*
X218744Y225528D01*
X218737Y225784D01*
X218711Y226034D01*
X218665Y226276D01*
X218601Y226512D01*
X218517Y226741D01*
X218413Y226962D01*
X218291Y227177D01*
X218149Y227384D01*
X217988Y227585D01*
X217808Y227778D01*
X219222Y229192D01*
X219415Y229012D01*
D02*
G37*
G36*
X223253Y223345D02*
X223095Y223150D01*
X222955Y222947D01*
X222834Y222734D01*
X222732Y222513D01*
X222649Y222284D01*
X222584Y222045D01*
X222537Y221798D01*
X222509Y221543D01*
X222500Y221278D01*
X220500D01*
X220491Y221543D01*
X220463Y221798D01*
X220416Y222045D01*
X220351Y222284D01*
X220268Y222513D01*
X220165Y222734D01*
X220045Y222947D01*
X219905Y223150D01*
X219747Y223345D01*
X219571Y223532D01*
X223429D01*
X223253Y223345D01*
D02*
G37*
G36*
X222506Y208317D02*
X222526Y208089D01*
X222559Y207873D01*
X222605Y207668D01*
X222663Y207475D01*
X222735Y207294D01*
X222820Y207124D01*
X222918Y206967D01*
X223029Y206821D01*
X223153Y206687D01*
X219847D01*
X219971Y206821D01*
X220082Y206967D01*
X220180Y207124D01*
X220265Y207294D01*
X220337Y207475D01*
X220395Y207668D01*
X220441Y207873D01*
X220474Y208089D01*
X220494Y208317D01*
X220500Y208557D01*
X222500D01*
X222506Y208317D01*
D02*
G37*
G36*
X259253Y242845D02*
X259095Y242650D01*
X258955Y242447D01*
X258835Y242234D01*
X258732Y242013D01*
X258649Y241783D01*
X258584Y241545D01*
X258537Y241298D01*
X258509Y241043D01*
X258500Y240778D01*
X256500D01*
X256491Y241043D01*
X256463Y241298D01*
X256416Y241545D01*
X256351Y241783D01*
X256268Y242013D01*
X256166Y242234D01*
X256045Y242447D01*
X255905Y242650D01*
X255747Y242845D01*
X255571Y243032D01*
X259429D01*
X259253Y242845D01*
D02*
G37*
G36*
X259511Y225751D02*
X259543Y225482D01*
X259596Y225220D01*
X259671Y224966D01*
X259767Y224718D01*
X259884Y224478D01*
X260023Y224244D01*
X260183Y224017D01*
X260364Y223798D01*
X260567Y223585D01*
X256433D01*
X256636Y223798D01*
X256817Y224017D01*
X256977Y224244D01*
X257116Y224478D01*
X257233Y224718D01*
X257329Y224966D01*
X257404Y225220D01*
X257457Y225482D01*
X257489Y225751D01*
X257500Y226026D01*
X259500D01*
X259511Y225751D01*
D02*
G37*
G36*
X338753Y236345D02*
X338595Y236150D01*
X338455Y235947D01*
X338334Y235734D01*
X338232Y235513D01*
X338149Y235283D01*
X338084Y235045D01*
X338037Y234798D01*
X338009Y234543D01*
X338000Y234278D01*
X336000D01*
X335991Y234543D01*
X335963Y234798D01*
X335916Y235045D01*
X335851Y235283D01*
X335768Y235513D01*
X335665Y235734D01*
X335545Y235947D01*
X335405Y236150D01*
X335247Y236345D01*
X335071Y236532D01*
X338929D01*
X338753Y236345D01*
D02*
G37*
G36*
X337509Y224457D02*
X337537Y224202D01*
X337584Y223955D01*
X337649Y223716D01*
X337732Y223487D01*
X337835Y223266D01*
X337955Y223053D01*
X338095Y222850D01*
X338253Y222655D01*
X338429Y222468D01*
X334571D01*
X334747Y222655D01*
X334905Y222850D01*
X335045Y223053D01*
X335166Y223266D01*
X335268Y223487D01*
X335351Y223716D01*
X335416Y223955D01*
X335463Y224202D01*
X335491Y224457D01*
X335500Y224722D01*
X337500D01*
X337509Y224457D01*
D02*
G37*
G36*
X193253Y223345D02*
X193095Y223150D01*
X192955Y222947D01*
X192834Y222734D01*
X192732Y222513D01*
X192649Y222284D01*
X192584Y222045D01*
X192537Y221798D01*
X192509Y221543D01*
X192500Y221278D01*
X190500D01*
X190491Y221543D01*
X190463Y221798D01*
X190416Y222045D01*
X190351Y222284D01*
X190268Y222513D01*
X190165Y222734D01*
X190045Y222947D01*
X189905Y223150D01*
X189747Y223345D01*
X189571Y223532D01*
X193429D01*
X193253Y223345D01*
D02*
G37*
G36*
X192507Y208317D02*
X192526Y208089D01*
X192559Y207873D01*
X192605Y207668D01*
X192663Y207475D01*
X192735Y207294D01*
X192820Y207124D01*
X192918Y206967D01*
X193029Y206821D01*
X193154Y206687D01*
X189847D01*
X189971Y206821D01*
X190082Y206967D01*
X190180Y207124D01*
X190265Y207294D01*
X190337Y207475D01*
X190395Y207668D01*
X190441Y207873D01*
X190474Y208089D01*
X190494Y208317D01*
X190500Y208557D01*
X192500D01*
X192507Y208317D01*
D02*
G37*
G36*
X193869Y204794D02*
X193894Y204612D01*
X193936Y204431D01*
X193995Y204252D01*
X194073Y204073D01*
X194167Y203895D01*
X194280Y203717D01*
X194410Y203541D01*
X194557Y203366D01*
X194723Y203192D01*
X193308Y201777D01*
X193134Y201943D01*
X192959Y202090D01*
X192782Y202220D01*
X192605Y202332D01*
X192427Y202427D01*
X192248Y202505D01*
X192069Y202564D01*
X191888Y202606D01*
X191706Y202631D01*
X191524Y202638D01*
X193862Y204976D01*
X193869Y204794D01*
D02*
G37*
G36*
X223753Y186345D02*
X223595Y186150D01*
X223455Y185947D01*
X223335Y185734D01*
X223232Y185513D01*
X223149Y185284D01*
X223084Y185045D01*
X223037Y184798D01*
X223009Y184543D01*
X223000Y184278D01*
X221000D01*
X220991Y184543D01*
X220963Y184798D01*
X220916Y185045D01*
X220851Y185284D01*
X220768Y185513D01*
X220666Y185734D01*
X220545Y185947D01*
X220405Y186150D01*
X220247Y186345D01*
X220071Y186532D01*
X223929D01*
X223753Y186345D01*
D02*
G37*
G36*
X202020Y173620D02*
X202080Y173280D01*
X202180Y172980D01*
X202320Y172720D01*
X202500Y172500D01*
X202720Y172320D01*
X202957Y172193D01*
X203167Y172255D01*
X203413Y172347D01*
X203641Y172454D01*
X203851Y172574D01*
X204045Y172709D01*
Y169291D01*
X203851Y169426D01*
X203641Y169546D01*
X203413Y169653D01*
X203167Y169745D01*
X202957Y169807D01*
X202720Y169680D01*
X202500Y169500D01*
X202320Y169280D01*
X202180Y169020D01*
X202080Y168720D01*
X202020Y168380D01*
X202000Y168000D01*
X200000Y171000D01*
X202000Y174000D01*
X202020Y173620D01*
D02*
G37*
G36*
X214108Y144662D02*
X214845Y144038D01*
X215171Y143810D01*
X215468Y143640D01*
X215737Y143525D01*
X215977Y143467D01*
X216188Y143466D01*
X216371Y143521D01*
X216526Y143633D01*
X213709Y140817D01*
X213821Y140972D01*
X213876Y141155D01*
X213875Y141366D01*
X213818Y141606D01*
X213703Y141875D01*
X213532Y142172D01*
X213305Y142498D01*
X213021Y142852D01*
X212283Y143646D01*
X213697Y145060D01*
X214108Y144662D01*
D02*
G37*
G36*
X218153Y138335D02*
X217983Y138275D01*
X217833Y138174D01*
X217703Y138034D01*
X217593Y137855D01*
X217503Y137635D01*
X217433Y137374D01*
X217383Y137074D01*
X217353Y136734D01*
X217343Y136354D01*
X215343D01*
X215333Y136734D01*
X215303Y137074D01*
X215253Y137374D01*
X215183Y137635D01*
X215093Y137855D01*
X214983Y138034D01*
X214853Y138174D01*
X214703Y138275D01*
X214533Y138335D01*
X214343Y138355D01*
X218343D01*
X218153Y138335D01*
D02*
G37*
G36*
X217353Y123263D02*
X217383Y122921D01*
X217433Y122619D01*
X217503Y122358D01*
X217593Y122136D01*
X217703Y121955D01*
X217833Y121815D01*
X217983Y121714D01*
X218153Y121654D01*
X218343Y121634D01*
X214343D01*
X214533Y121654D01*
X214703Y121714D01*
X214853Y121815D01*
X214983Y121955D01*
X215093Y122136D01*
X215183Y122358D01*
X215253Y122619D01*
X215303Y122921D01*
X215333Y123263D01*
X215343Y123645D01*
X217343D01*
X217353Y123263D01*
D02*
G37*
G36*
X197666Y122798D02*
X197692Y122549D01*
X197735Y122310D01*
X197795Y122080D01*
X197872Y121859D01*
X197967Y121648D01*
X198079Y121446D01*
X198208Y121254D01*
X198354Y121071D01*
X198518Y120898D01*
X194797D01*
X194961Y121071D01*
X195107Y121254D01*
X195236Y121446D01*
X195348Y121648D01*
X195442Y121859D01*
X195520Y122080D01*
X195580Y122310D01*
X195623Y122549D01*
X195649Y122798D01*
X195657Y123057D01*
X197657D01*
X197666Y122798D01*
D02*
G37*
G36*
X305060Y264488D02*
X304662Y264077D01*
X304038Y263340D01*
X303810Y263014D01*
X303640Y262717D01*
X303525Y262449D01*
X303467Y262209D01*
X303466Y261997D01*
X303521Y261814D01*
X303633Y261660D01*
X300817Y264476D01*
X300972Y264364D01*
X301154Y264309D01*
X301366Y264310D01*
X301606Y264368D01*
X301875Y264482D01*
X302172Y264653D01*
X302497Y264880D01*
X302852Y265164D01*
X303645Y265902D01*
X305060Y264488D01*
D02*
G37*
G36*
X340340Y263354D02*
X340185Y263468D01*
X340001Y263524D01*
X339789D01*
X339548Y263468D01*
X339280Y263354D01*
X338983Y263185D01*
X338657Y262959D01*
X338304Y262676D01*
X337512Y261940D01*
X336098Y263354D01*
X336494Y263765D01*
X337116Y264500D01*
X337342Y264825D01*
X337512Y265122D01*
X337625Y265391D01*
X337682Y265631D01*
Y265844D01*
X337625Y266027D01*
X337512Y266183D01*
X340340Y263354D01*
D02*
G37*
G36*
X368009Y242457D02*
X368037Y242202D01*
X368084Y241955D01*
X368149Y241717D01*
X368232Y241487D01*
X368335Y241266D01*
X368455Y241053D01*
X368595Y240850D01*
X368753Y240655D01*
X368929Y240468D01*
X365071D01*
X365247Y240655D01*
X365405Y240850D01*
X365545Y241053D01*
X365666Y241266D01*
X365768Y241487D01*
X365851Y241717D01*
X365916Y241955D01*
X365963Y242202D01*
X365991Y242457D01*
X366000Y242722D01*
X368000D01*
X368009Y242457D01*
D02*
G37*
G36*
X368753Y236345D02*
X368595Y236150D01*
X368455Y235947D01*
X368335Y235734D01*
X368232Y235513D01*
X368149Y235283D01*
X368084Y235045D01*
X368037Y234798D01*
X368009Y234543D01*
X368000Y234278D01*
X366000D01*
X365991Y234543D01*
X365963Y234798D01*
X365916Y235045D01*
X365851Y235283D01*
X365768Y235513D01*
X365666Y235734D01*
X365545Y235947D01*
X365405Y236150D01*
X365247Y236345D01*
X365071Y236532D01*
X368929D01*
X368753Y236345D01*
D02*
G37*
G36*
X301510Y225590D02*
X301540Y225248D01*
X301590Y224945D01*
X301660Y224683D01*
X301750Y224461D01*
X301859Y224280D01*
X301989Y224139D01*
X302139Y224038D01*
X302309Y223977D01*
X302498Y223957D01*
X298502D01*
X298691Y223977D01*
X298861Y224038D01*
X299011Y224139D01*
X299141Y224280D01*
X299250Y224461D01*
X299340Y224683D01*
X299410Y224945D01*
X299460Y225248D01*
X299490Y225590D01*
X299500Y225973D01*
X301500D01*
X301510Y225590D01*
D02*
G37*
G36*
X367509Y224457D02*
X367537Y224202D01*
X367584Y223955D01*
X367649Y223716D01*
X367732Y223487D01*
X367834Y223266D01*
X367955Y223053D01*
X368095Y222850D01*
X368253Y222655D01*
X368429Y222468D01*
X364571D01*
X364747Y222655D01*
X364905Y222850D01*
X365045Y223053D01*
X365165Y223266D01*
X365268Y223487D01*
X365351Y223716D01*
X365416Y223955D01*
X365463Y224202D01*
X365491Y224457D01*
X365500Y224722D01*
X367500D01*
X367509Y224457D01*
D02*
G37*
G36*
X368253Y218345D02*
X368095Y218150D01*
X367955Y217947D01*
X367834Y217734D01*
X367732Y217513D01*
X367649Y217284D01*
X367584Y217045D01*
X367537Y216798D01*
X367509Y216543D01*
X367500Y216278D01*
X365500D01*
X365491Y216543D01*
X365463Y216798D01*
X365416Y217045D01*
X365351Y217284D01*
X365268Y217513D01*
X365165Y217734D01*
X365045Y217947D01*
X364905Y218150D01*
X364747Y218345D01*
X364571Y218532D01*
X368429D01*
X368253Y218345D01*
D02*
G37*
G36*
X366009Y193957D02*
X366037Y193702D01*
X366084Y193455D01*
X366149Y193217D01*
X366232Y192987D01*
X366335Y192766D01*
X366455Y192553D01*
X366595Y192350D01*
X366753Y192155D01*
X366929Y191968D01*
X363071D01*
X363247Y192155D01*
X363405Y192350D01*
X363545Y192553D01*
X363666Y192766D01*
X363768Y192987D01*
X363851Y193217D01*
X363916Y193455D01*
X363963Y193702D01*
X363991Y193957D01*
X364000Y194222D01*
X366000D01*
X366009Y193957D01*
D02*
G37*
G36*
X366753Y187845D02*
X366595Y187650D01*
X366455Y187447D01*
X366335Y187234D01*
X366232Y187013D01*
X366149Y186784D01*
X366084Y186545D01*
X366037Y186298D01*
X366009Y186043D01*
X366000Y185778D01*
X364000D01*
X363991Y186043D01*
X363963Y186298D01*
X363916Y186545D01*
X363851Y186784D01*
X363768Y187013D01*
X363666Y187234D01*
X363545Y187447D01*
X363405Y187650D01*
X363247Y187845D01*
X363071Y188032D01*
X366929D01*
X366753Y187845D01*
D02*
G37*
G36*
X366509Y176457D02*
X366537Y176202D01*
X366584Y175955D01*
X366649Y175716D01*
X366732Y175487D01*
X366834Y175266D01*
X366955Y175053D01*
X367095Y174850D01*
X367253Y174655D01*
X367429Y174468D01*
X363571D01*
X363747Y174655D01*
X363905Y174850D01*
X364045Y175053D01*
X364165Y175266D01*
X364268Y175487D01*
X364351Y175716D01*
X364416Y175955D01*
X364463Y176202D01*
X364491Y176457D01*
X364500Y176722D01*
X366500D01*
X366509Y176457D01*
D02*
G37*
G36*
X159263Y225716D02*
X159289Y225466D01*
X159335Y225223D01*
X159399Y224988D01*
X159483Y224759D01*
X159587Y224538D01*
X159709Y224323D01*
X159851Y224116D01*
X160012Y223915D01*
X160192Y223722D01*
X158778Y222308D01*
X158585Y222488D01*
X158384Y222649D01*
X158177Y222791D01*
X157962Y222913D01*
X157741Y223017D01*
X157512Y223101D01*
X157276Y223165D01*
X157034Y223211D01*
X156784Y223237D01*
X156528Y223244D01*
X159256Y225972D01*
X159263Y225716D01*
D02*
G37*
G36*
X183164Y175578D02*
X183190Y175345D01*
X183235Y175118D01*
X183299Y174896D01*
X183381Y174680D01*
X183482Y174469D01*
X183602Y174264D01*
X183741Y174064D01*
X183899Y173870D01*
X184076Y173681D01*
X182661Y172267D01*
X182473Y172444D01*
X182278Y172601D01*
X182079Y172740D01*
X181873Y172861D01*
X181662Y172962D01*
X181446Y173044D01*
X181225Y173108D01*
X180997Y173152D01*
X180765Y173178D01*
X180527Y173185D01*
X183157Y175816D01*
X183164Y175578D01*
D02*
G37*
G36*
X178266Y159820D02*
X179002Y159195D01*
X179328Y158968D01*
X179625Y158797D01*
X179894Y158683D01*
X180134Y158625D01*
X180345Y158624D01*
X180528Y158679D01*
X180683Y158791D01*
X177866Y155974D01*
X177979Y156129D01*
X178034Y156312D01*
X178033Y156524D01*
X177975Y156764D01*
X177860Y157032D01*
X177690Y157329D01*
X177462Y157655D01*
X177178Y158009D01*
X176440Y158803D01*
X177855Y160217D01*
X178266Y159820D01*
D02*
G37*
G36*
X158655Y150753D02*
X158850Y150595D01*
X159053Y150455D01*
X159266Y150335D01*
X159487Y150232D01*
X159716Y150149D01*
X159955Y150084D01*
X160202Y150037D01*
X160457Y150009D01*
X160722Y150000D01*
Y148000D01*
X160457Y147991D01*
X160202Y147963D01*
X159955Y147916D01*
X159716Y147851D01*
X159487Y147768D01*
X159266Y147666D01*
X159053Y147545D01*
X158850Y147405D01*
X158655Y147247D01*
X158468Y147071D01*
Y150929D01*
X158655Y150753D01*
D02*
G37*
G36*
X239366Y163090D02*
X239289Y163002D01*
X239221Y162891D01*
X239162Y162758D01*
X239113Y162603D01*
X239072Y162426D01*
X239041Y162228D01*
X239018Y162007D01*
X239000Y161500D01*
X237000D01*
X236996Y161765D01*
X236959Y162228D01*
X236928Y162426D01*
X236887Y162603D01*
X236838Y162758D01*
X236779Y162891D01*
X236711Y163002D01*
X236634Y163090D01*
X236549Y163157D01*
X239451D01*
X239366Y163090D01*
D02*
G37*
G36*
X250415Y150512D02*
X250616Y150351D01*
X250823Y150209D01*
X251038Y150087D01*
X251259Y149983D01*
X251488Y149899D01*
X251724Y149835D01*
X251966Y149789D01*
X252216Y149763D01*
X252472Y149756D01*
X249744Y147028D01*
X249737Y147284D01*
X249711Y147534D01*
X249665Y147776D01*
X249601Y148012D01*
X249517Y148241D01*
X249413Y148462D01*
X249291Y148677D01*
X249149Y148884D01*
X248988Y149085D01*
X248808Y149278D01*
X250222Y150692D01*
X250415Y150512D01*
D02*
G37*
G36*
X336753Y187845D02*
X336595Y187650D01*
X336455Y187447D01*
X336334Y187234D01*
X336232Y187013D01*
X336149Y186784D01*
X336084Y186545D01*
X336037Y186298D01*
X336009Y186043D01*
X336000Y185778D01*
X334000D01*
X333991Y186043D01*
X333963Y186298D01*
X333916Y186545D01*
X333851Y186784D01*
X333768Y187013D01*
X333665Y187234D01*
X333545Y187447D01*
X333405Y187650D01*
X333247Y187845D01*
X333071Y188032D01*
X336929D01*
X336753Y187845D01*
D02*
G37*
G36*
X336509Y176457D02*
X336537Y176202D01*
X336584Y175955D01*
X336649Y175716D01*
X336732Y175487D01*
X336835Y175266D01*
X336955Y175053D01*
X337095Y174850D01*
X337253Y174655D01*
X337429Y174468D01*
X333571D01*
X333747Y174655D01*
X333905Y174850D01*
X334045Y175053D01*
X334166Y175266D01*
X334268Y175487D01*
X334351Y175716D01*
X334416Y175955D01*
X334463Y176202D01*
X334491Y176457D01*
X334500Y176722D01*
X336500D01*
X336509Y176457D01*
D02*
G37*
G36*
X337253Y170345D02*
X337095Y170150D01*
X336955Y169947D01*
X336835Y169734D01*
X336732Y169513D01*
X336649Y169283D01*
X336584Y169045D01*
X336537Y168798D01*
X336509Y168543D01*
X336500Y168278D01*
X334500D01*
X334491Y168543D01*
X334463Y168798D01*
X334416Y169045D01*
X334351Y169283D01*
X334268Y169513D01*
X334166Y169734D01*
X334045Y169947D01*
X333905Y170150D01*
X333747Y170345D01*
X333571Y170532D01*
X337429D01*
X337253Y170345D01*
D02*
G37*
G36*
X301310Y158063D02*
X301140Y158003D01*
X300990Y157903D01*
X300860Y157763D01*
X300750Y157583D01*
X300660Y157363D01*
X300590Y157103D01*
X300540Y156803D01*
X300510Y156463D01*
X300500Y156083D01*
X298500D01*
X298490Y156463D01*
X298460Y156803D01*
X298410Y157103D01*
X298340Y157363D01*
X298250Y157583D01*
X298140Y157763D01*
X298010Y157903D01*
X297860Y158003D01*
X297690Y158063D01*
X297500Y158083D01*
X301500D01*
X301310Y158063D01*
D02*
G37*
G36*
X301010Y141590D02*
X301040Y141248D01*
X301090Y140945D01*
X301160Y140683D01*
X301250Y140461D01*
X301359Y140280D01*
X301489Y140139D01*
X301639Y140038D01*
X301809Y139978D01*
X301998Y139957D01*
X298002D01*
X298191Y139978D01*
X298361Y140038D01*
X298511Y140139D01*
X298641Y140280D01*
X298750Y140461D01*
X298840Y140683D01*
X298910Y140945D01*
X298960Y141248D01*
X298990Y141590D01*
X299000Y141973D01*
X301000D01*
X301010Y141590D01*
D02*
G37*
D10*
X335500Y172500D02*
Y181000D01*
X335000Y181500D02*
X335500Y181000D01*
X335000Y181500D02*
Y190000D01*
X336500Y220500D02*
Y229200D01*
X337000Y229700D01*
Y238500D01*
X300000Y138000D02*
Y149200D01*
X299500Y149700D02*
X300000Y149200D01*
X299500Y149700D02*
Y161024D01*
X258500Y221476D02*
Y232700D01*
X257500Y233700D02*
X258500Y232700D01*
X257500Y233700D02*
Y245000D01*
X366500Y220500D02*
Y229200D01*
X367000Y229700D01*
Y238500D01*
X365000Y190000D02*
Y204500D01*
X366500Y206000D01*
Y220500D01*
X365500Y172500D02*
Y181000D01*
X365000Y181500D02*
X365500Y181000D01*
X365000Y181500D02*
Y190000D01*
X196657Y119000D02*
Y141000D01*
X221500Y205000D02*
Y225500D01*
X191500Y205000D02*
Y225500D01*
X216343Y119000D02*
Y141000D01*
X201000Y156343D02*
X216343Y141000D01*
X201000Y156343D02*
Y171000D01*
X207000D01*
X335500Y155000D02*
Y172500D01*
Y155000D02*
X342500Y148000D01*
X350000D01*
X156500Y149000D02*
X182500D01*
X185200Y151700D01*
Y171143D01*
X180500Y175843D02*
X185200Y171143D01*
X300500Y226343D02*
X340157Y266000D01*
X300500Y222000D02*
Y226343D01*
X301000Y261843D02*
X311757Y272600D01*
X367000Y271500D01*
Y238500D02*
Y271500D01*
X238000Y161500D02*
X252500Y147000D01*
X238000Y161500D02*
Y165500D01*
X208500Y238500D02*
X221500Y225500D01*
X208500Y238500D02*
Y244500D01*
X201000Y171000D02*
Y195500D01*
X191500Y205000D02*
X201000Y195500D01*
X156500Y226000D02*
X174200Y208300D01*
Y162457D02*
Y208300D01*
Y162457D02*
X180500Y156157D01*
X222000Y173000D02*
Y188500D01*
X215000Y166000D02*
X222000Y173000D01*
X207000Y166000D02*
X215000D01*
D11*
X322500Y113000D02*
Y116999D01*
X324499Y118998D01*
X326499Y116999D01*
Y113000D01*
Y115999D01*
X322500D01*
X332497Y118998D02*
Y113000D01*
X329498D01*
X328498Y114000D01*
Y115999D01*
X329498Y116999D01*
X332497D01*
X334496D02*
Y113000D01*
Y114999D01*
X335496Y115999D01*
X336495Y116999D01*
X337495D01*
X340494Y113000D02*
X342494D01*
X341494D01*
Y116999D01*
X340494D01*
X346492D02*
X348492D01*
X349491Y115999D01*
Y113000D01*
X346492D01*
X345493Y114000D01*
X346492Y114999D01*
X349491D01*
X351491Y113000D02*
Y116999D01*
X354490D01*
X355489Y115999D01*
Y113000D01*
X357489Y112000D02*
X361487D01*
X363487Y113000D02*
Y116999D01*
X365486Y118998D01*
X367485Y116999D01*
Y113000D01*
Y115999D01*
X363487D01*
X369485Y113000D02*
Y116999D01*
X372484D01*
X373483Y115999D01*
Y113000D01*
X376483Y116999D02*
X378482D01*
X379482Y115999D01*
Y113000D01*
X376483D01*
X375483Y114000D01*
X376483Y114999D01*
X379482D01*
X381481Y113000D02*
X383480D01*
X382481D01*
Y118998D01*
X381481D01*
X387479Y113000D02*
X389478D01*
X390478Y114000D01*
Y115999D01*
X389478Y116999D01*
X387479D01*
X386479Y115999D01*
Y114000D01*
X387479Y113000D01*
X394477Y111001D02*
X395476D01*
X396476Y112000D01*
Y116999D01*
X393477D01*
X392477Y115999D01*
Y114000D01*
X393477Y113000D01*
X396476D01*
D12*
X192000Y188500D02*
D03*
X222000D02*
D03*
X252500Y117000D02*
D03*
Y147000D02*
D03*
X156500Y179000D02*
D03*
Y149000D02*
D03*
X268000Y165500D02*
D03*
X238000D02*
D03*
X156500Y196000D02*
D03*
Y226000D02*
D03*
X365000Y190000D02*
D03*
X335000D02*
D03*
X365500Y172500D02*
D03*
X335500D02*
D03*
X366500Y220500D02*
D03*
X336500D02*
D03*
X367000Y238500D02*
D03*
X337000D02*
D03*
X257500Y245000D02*
D03*
Y275000D02*
D03*
X221500Y225500D02*
D03*
X191500D02*
D03*
D13*
X207000Y161000D02*
D03*
Y171000D02*
D03*
X300000Y128000D02*
D03*
Y138000D02*
D03*
X350000Y148000D02*
D03*
Y138000D02*
D03*
X300500Y212000D02*
D03*
Y222000D02*
D03*
D14*
X207000Y166000D02*
D03*
X300000Y133000D02*
D03*
X350000Y143000D02*
D03*
X300500Y217000D02*
D03*
D15*
X118500Y169000D02*
D03*
X299500Y188976D02*
D03*
X407000Y220000D02*
D03*
X258500Y221476D02*
D03*
X118500Y205000D02*
D03*
D16*
Y159000D02*
D03*
X299500Y161024D02*
D03*
X407000Y230000D02*
D03*
X258500Y193524D02*
D03*
X118500Y195000D02*
D03*
D17*
X180500Y156157D02*
D03*
X301000Y261843D02*
D03*
D18*
X180500Y175843D02*
D03*
X196657Y119000D02*
D03*
Y141000D02*
D03*
X301000Y242157D02*
D03*
X359843Y266000D02*
D03*
X407343Y182500D02*
D03*
X157157Y254500D02*
D03*
D19*
X216343Y119000D02*
D03*
Y141000D02*
D03*
X340157Y266000D02*
D03*
X387657Y182500D02*
D03*
X176843Y254500D02*
D03*
D20*
X191500Y205000D02*
D03*
X221500D02*
D03*
D21*
X193500Y244500D02*
D03*
X223500D02*
D03*
X208500D02*
D03*
M02*
