G04 Layer_Color=255*
%FSLAX25Y25*%
%MOIN*%
G70*
G01*
G75*
%ADD12C,0.05512*%
%ADD13O,0.07874X0.03937*%
%ADD14O,0.07874X0.03937*%
%ADD15C,0.05906*%
%ADD16R,0.05906X0.05906*%
%ADD17R,0.05315X0.05315*%
%ADD18C,0.05315*%
%ADD19R,0.05315X0.05315*%
%ADD20C,0.04724*%
%ADD21C,0.06500*%
D12*
X192000Y188500D02*
D03*
X222000D02*
D03*
X252500Y117000D02*
D03*
Y147000D02*
D03*
X156500Y179000D02*
D03*
Y149000D02*
D03*
X268000Y165500D02*
D03*
X238000D02*
D03*
X156500Y196000D02*
D03*
Y226000D02*
D03*
X365000Y190000D02*
D03*
X335000D02*
D03*
X365500Y172500D02*
D03*
X335500D02*
D03*
X366500Y220500D02*
D03*
X336500D02*
D03*
X367000Y238500D02*
D03*
X337000D02*
D03*
X257500Y245000D02*
D03*
Y275000D02*
D03*
X221500Y225500D02*
D03*
X191500D02*
D03*
D13*
X207000Y161000D02*
D03*
Y171000D02*
D03*
X300000Y128000D02*
D03*
Y138000D02*
D03*
X350000Y148000D02*
D03*
Y138000D02*
D03*
X300500Y212000D02*
D03*
Y222000D02*
D03*
D14*
X207000Y166000D02*
D03*
X300000Y133000D02*
D03*
X350000Y143000D02*
D03*
X300500Y217000D02*
D03*
D15*
X118500Y169000D02*
D03*
X299500Y188976D02*
D03*
X407000Y220000D02*
D03*
X258500Y221476D02*
D03*
X118500Y205000D02*
D03*
D16*
Y159000D02*
D03*
X299500Y161024D02*
D03*
X407000Y230000D02*
D03*
X258500Y193524D02*
D03*
X118500Y195000D02*
D03*
D17*
X180500Y156157D02*
D03*
X301000Y261843D02*
D03*
D18*
X180500Y175843D02*
D03*
X196657Y119000D02*
D03*
Y141000D02*
D03*
X301000Y242157D02*
D03*
X359843Y266000D02*
D03*
X407343Y182500D02*
D03*
X157157Y254500D02*
D03*
D19*
X216343Y119000D02*
D03*
Y141000D02*
D03*
X340157Y266000D02*
D03*
X387657Y182500D02*
D03*
X176843Y254500D02*
D03*
D20*
X191500Y205000D02*
D03*
X221500D02*
D03*
D21*
X193500Y244500D02*
D03*
X223500D02*
D03*
X208500D02*
D03*
M02*
