G04 Layer_Physical_Order=2*
G04 Layer_Color=16711680*
%FSLAX25Y25*%
%MOIN*%
G70*
G01*
G75*
%ADD10C,0.02000*%
%ADD12C,0.05512*%
%ADD13O,0.07874X0.03937*%
%ADD14O,0.07874X0.03937*%
%ADD15C,0.05906*%
%ADD16R,0.05906X0.05906*%
%ADD17R,0.05315X0.05315*%
%ADD18C,0.05315*%
%ADD19R,0.05315X0.05315*%
%ADD20C,0.04724*%
%ADD21C,0.06500*%
G36*
X431952Y105547D02*
X105547D01*
Y290952D01*
X431952D01*
Y105547D01*
D02*
G37*
%LPC*%
G36*
X360343Y269623D02*
Y266500D01*
X363466D01*
X363406Y266955D01*
X363037Y267845D01*
X362451Y268609D01*
X361687Y269195D01*
X360797Y269563D01*
X360343Y269623D01*
D02*
G37*
G36*
X359343D02*
X358888Y269563D01*
X357998Y269195D01*
X357234Y268609D01*
X356648Y267845D01*
X356279Y266955D01*
X356219Y266500D01*
X359343D01*
Y269623D01*
D02*
G37*
G36*
X363466Y265500D02*
X360343D01*
Y262377D01*
X360797Y262437D01*
X361687Y262805D01*
X362451Y263391D01*
X363037Y264156D01*
X363406Y265045D01*
X363466Y265500D01*
D02*
G37*
G36*
X359343D02*
X356219D01*
X356279Y265045D01*
X356648Y264156D01*
X357234Y263391D01*
X357998Y262805D01*
X358888Y262437D01*
X359343Y262377D01*
Y265500D01*
D02*
G37*
G36*
X257500Y282793D02*
X255980Y282644D01*
X254518Y282200D01*
X253170Y281480D01*
X252621Y281029D01*
X231000D01*
X229824Y280913D01*
X228693Y280570D01*
X227650Y280013D01*
X226737Y279263D01*
X211737Y264263D01*
X210987Y263350D01*
X210430Y262307D01*
X210087Y261176D01*
X209971Y260000D01*
Y253017D01*
X209600Y252681D01*
X208762Y252764D01*
X202763Y258763D01*
X201850Y259513D01*
X200807Y260070D01*
X199676Y260413D01*
X198500Y260529D01*
X184500D01*
Y262158D01*
X169185D01*
Y250529D01*
X168000D01*
X166824Y250413D01*
X165693Y250070D01*
X164650Y249513D01*
X163737Y248763D01*
X122316Y207342D01*
X121652Y207385D01*
X121319Y207819D01*
X120493Y208453D01*
X119532Y208851D01*
X119000Y208921D01*
Y205000D01*
X118500D01*
Y204500D01*
X114579D01*
X114649Y203968D01*
X114863Y203453D01*
X114528Y202953D01*
X110547D01*
Y187047D01*
X126453D01*
Y194406D01*
X126482Y194437D01*
X126536Y194510D01*
X151828Y219801D01*
X152170Y219520D01*
X153518Y218800D01*
X154980Y218356D01*
X156500Y218207D01*
X158020Y218356D01*
X159482Y218800D01*
X160830Y219520D01*
X162011Y220489D01*
X162980Y221670D01*
X163700Y223018D01*
X164144Y224480D01*
X164293Y226000D01*
X164144Y227520D01*
X163700Y228982D01*
X162980Y230330D01*
X162699Y230672D01*
X170497Y238471D01*
X187842D01*
X188894Y237607D01*
X190328Y236841D01*
X191883Y236369D01*
X193238Y236236D01*
X198937Y230537D01*
X199850Y229787D01*
X200893Y229230D01*
X202024Y228887D01*
X203200Y228771D01*
X210800D01*
X211976Y228887D01*
X213107Y229230D01*
X214149Y229787D01*
X214727Y230261D01*
X215082Y229906D01*
X215020Y229830D01*
X214300Y228482D01*
X213856Y227020D01*
X213707Y225500D01*
X213856Y223980D01*
X214300Y222518D01*
X215020Y221170D01*
X215989Y219989D01*
X217170Y219020D01*
X218518Y218300D01*
X219980Y217856D01*
X221500Y217707D01*
X223020Y217856D01*
X224482Y218300D01*
X225830Y219020D01*
X227011Y219989D01*
X227980Y221170D01*
X228700Y222518D01*
X229144Y223980D01*
X229293Y225500D01*
X229144Y227020D01*
X228700Y228482D01*
X227980Y229830D01*
X227011Y231011D01*
X225830Y231980D01*
X224482Y232700D01*
X223020Y233144D01*
X221500Y233293D01*
X219980Y233144D01*
X218518Y232700D01*
X217263Y232030D01*
X216962Y232436D01*
X220263Y235737D01*
X221002Y236637D01*
X221883Y236369D01*
X223500Y236210D01*
X225117Y236369D01*
X226672Y236841D01*
X228106Y237607D01*
X229362Y238638D01*
X230393Y239894D01*
X231159Y241328D01*
X231631Y242883D01*
X231790Y244500D01*
X231631Y246117D01*
X231159Y247672D01*
X230393Y249106D01*
X229362Y250362D01*
X228106Y251393D01*
X226672Y252159D01*
X225117Y252631D01*
X223500Y252790D01*
X222399Y252681D01*
X222029Y253017D01*
Y257503D01*
X233497Y268971D01*
X252621D01*
X253170Y268520D01*
X254518Y267800D01*
X255980Y267356D01*
X257500Y267207D01*
X259020Y267356D01*
X260482Y267800D01*
X261830Y268520D01*
X262379Y268971D01*
X293342D01*
Y254185D01*
X308658D01*
Y268971D01*
X328660D01*
X332366Y265265D01*
X332404Y265212D01*
X332500Y265109D01*
Y258343D01*
X347815D01*
Y273657D01*
X341046D01*
X341016Y273687D01*
X340943Y273741D01*
X335421Y279263D01*
X334507Y280013D01*
X333465Y280570D01*
X332334Y280913D01*
X331157Y281029D01*
X262379D01*
X261830Y281480D01*
X260482Y282200D01*
X259020Y282644D01*
X257500Y282793D01*
D02*
G37*
G36*
X157657Y258123D02*
Y255000D01*
X160781D01*
X160721Y255455D01*
X160352Y256345D01*
X159766Y257109D01*
X159002Y257695D01*
X158112Y258063D01*
X157657Y258123D01*
D02*
G37*
G36*
X156657D02*
X156203Y258063D01*
X155313Y257695D01*
X154549Y257109D01*
X153963Y256345D01*
X153594Y255455D01*
X153534Y255000D01*
X156657D01*
Y258123D01*
D02*
G37*
G36*
X160781Y254000D02*
X157657D01*
Y250877D01*
X158112Y250937D01*
X159002Y251305D01*
X159766Y251891D01*
X160352Y252656D01*
X160721Y253545D01*
X160781Y254000D01*
D02*
G37*
G36*
X156657D02*
X153534D01*
X153594Y253545D01*
X153963Y252656D01*
X154549Y251891D01*
X155313Y251305D01*
X156203Y250937D01*
X156657Y250877D01*
Y254000D01*
D02*
G37*
G36*
X257500Y252793D02*
X255980Y252644D01*
X254518Y252200D01*
X253170Y251480D01*
X251989Y250511D01*
X251020Y249330D01*
X250300Y247982D01*
X249856Y246520D01*
X249707Y245000D01*
X249856Y243480D01*
X250300Y242018D01*
X251020Y240670D01*
X251989Y239489D01*
X253170Y238520D01*
X254518Y237800D01*
X255980Y237356D01*
X257500Y237207D01*
X259020Y237356D01*
X260482Y237800D01*
X261830Y238520D01*
X263011Y239489D01*
X263980Y240670D01*
X264700Y242018D01*
X265144Y243480D01*
X265293Y245000D01*
X265144Y246520D01*
X264700Y247982D01*
X263980Y249330D01*
X263011Y250511D01*
X261830Y251480D01*
X260482Y252200D01*
X259020Y252644D01*
X257500Y252793D01*
D02*
G37*
G36*
X390100Y252929D02*
X305743D01*
X304566Y252813D01*
X303435Y252470D01*
X302393Y251913D01*
X301479Y251163D01*
X300077Y249761D01*
X299499Y249704D01*
X298055Y249266D01*
X296725Y248555D01*
X295559Y247598D01*
X294602Y246432D01*
X293891Y245102D01*
X293453Y243658D01*
X293305Y242157D01*
X293453Y240656D01*
X293891Y239213D01*
X294602Y237882D01*
X295559Y236717D01*
X296725Y235760D01*
X298055Y235049D01*
X299499Y234611D01*
X301000Y234463D01*
X302501Y234611D01*
X303945Y235049D01*
X305275Y235760D01*
X306441Y236717D01*
X307398Y237882D01*
X308109Y239213D01*
X308547Y240656D01*
X308568Y240871D01*
X329195D01*
X329492Y240469D01*
X329356Y240020D01*
X329207Y238500D01*
X329356Y236980D01*
X329800Y235518D01*
X330520Y234170D01*
X331489Y232989D01*
X332670Y232020D01*
X333055Y231814D01*
X332934Y231329D01*
X331700D01*
X330524Y231213D01*
X329393Y230870D01*
X328350Y230313D01*
X327437Y229563D01*
X327437Y229563D01*
X325903Y228029D01*
X305972D01*
X305148Y228469D01*
X303835Y228868D01*
X302468Y229002D01*
X298532D01*
X297165Y228868D01*
X295852Y228469D01*
X294641Y227822D01*
X293580Y226951D01*
X292709Y225890D01*
X292062Y224680D01*
X291664Y223366D01*
X291631Y223029D01*
X266338D01*
X266338Y223035D01*
X265883Y224535D01*
X265144Y225916D01*
X264151Y227127D01*
X262940Y228121D01*
X261558Y228859D01*
X260059Y229314D01*
X258500Y229468D01*
X256941Y229314D01*
X255442Y228859D01*
X254060Y228121D01*
X252849Y227127D01*
X251855Y225916D01*
X251117Y224535D01*
X250662Y223035D01*
X250509Y221476D01*
X250662Y219917D01*
X251117Y218418D01*
X251855Y217037D01*
X252849Y215826D01*
X254060Y214832D01*
X255442Y214093D01*
X256941Y213639D01*
X257906Y213544D01*
X258713Y212737D01*
X258713Y212737D01*
X259627Y211987D01*
X260669Y211430D01*
X261800Y211087D01*
X262976Y210971D01*
X262977Y210971D01*
X291631D01*
X291664Y210634D01*
X292062Y209320D01*
X292709Y208110D01*
X293580Y207049D01*
X294641Y206178D01*
X295852Y205531D01*
X297165Y205132D01*
X298532Y204998D01*
X302468D01*
X303835Y205132D01*
X305148Y205531D01*
X305972Y205971D01*
X328000D01*
X329176Y206087D01*
X330307Y206430D01*
X331349Y206987D01*
X332263Y207737D01*
X337313Y212787D01*
X338020Y212856D01*
X339482Y213300D01*
X340830Y214020D01*
X342011Y214989D01*
X342980Y216170D01*
X343598Y217326D01*
X344160Y217471D01*
X363528Y198103D01*
X363327Y197597D01*
X362018Y197200D01*
X360670Y196480D01*
X359489Y195511D01*
X358520Y194330D01*
X357800Y192982D01*
X357356Y191520D01*
X357207Y190000D01*
X357356Y188480D01*
X357800Y187018D01*
X358520Y185670D01*
X359489Y184489D01*
X360670Y183520D01*
X362018Y182800D01*
X363480Y182356D01*
X365000Y182207D01*
X366520Y182356D01*
X367982Y182800D01*
X369330Y183520D01*
X370511Y184489D01*
X371480Y185670D01*
X372200Y187018D01*
X372597Y188327D01*
X373103Y188528D01*
X379866Y181765D01*
X379904Y181712D01*
X380000Y181609D01*
Y174843D01*
X395315D01*
Y190157D01*
X388546D01*
X388516Y190187D01*
X388443Y190241D01*
X366442Y212241D01*
X366668Y212723D01*
X368020Y212856D01*
X369482Y213300D01*
X370830Y214020D01*
X372011Y214989D01*
X372980Y216170D01*
X373700Y217518D01*
X374144Y218980D01*
X374293Y220500D01*
X374144Y222020D01*
X373700Y223482D01*
X372980Y224830D01*
X372011Y226011D01*
X370830Y226980D01*
X369482Y227700D01*
X368020Y228144D01*
X366500Y228293D01*
X364980Y228144D01*
X363518Y227700D01*
X362170Y226980D01*
X360989Y226011D01*
X360020Y224830D01*
X359300Y223482D01*
X358856Y222020D01*
X358723Y220668D01*
X358241Y220442D01*
X349121Y229563D01*
X348207Y230313D01*
X347165Y230870D01*
X346034Y231213D01*
X344857Y231329D01*
X341066D01*
X340945Y231814D01*
X341330Y232020D01*
X342511Y232989D01*
X343480Y234170D01*
X344200Y235518D01*
X344644Y236980D01*
X344793Y238500D01*
X344644Y240020D01*
X344508Y240469D01*
X344805Y240871D01*
X359195D01*
X359492Y240469D01*
X359356Y240020D01*
X359207Y238500D01*
X359356Y236980D01*
X359800Y235518D01*
X360520Y234170D01*
X361489Y232989D01*
X362670Y232020D01*
X364018Y231300D01*
X365480Y230856D01*
X367000Y230707D01*
X368520Y230856D01*
X369982Y231300D01*
X371330Y232020D01*
X372511Y232989D01*
X373480Y234170D01*
X374200Y235518D01*
X374644Y236980D01*
X374793Y238500D01*
X374644Y240020D01*
X374507Y240469D01*
X374805Y240871D01*
X387603D01*
X398914Y229560D01*
X398951Y229508D01*
X399047Y229404D01*
Y222047D01*
X403028D01*
X403363Y221547D01*
X403149Y221032D01*
X403079Y220500D01*
X407000D01*
X410921D01*
X410851Y221032D01*
X410638Y221547D01*
X410972Y222047D01*
X414953D01*
Y237953D01*
X407593D01*
X407563Y237982D01*
X407490Y238036D01*
X394363Y251163D01*
X393449Y251913D01*
X392407Y252470D01*
X391276Y252813D01*
X390100Y252929D01*
D02*
G37*
G36*
X191500Y233293D02*
X189980Y233144D01*
X188518Y232700D01*
X187170Y231980D01*
X185989Y231011D01*
X185020Y229830D01*
X184300Y228482D01*
X183856Y227020D01*
X183707Y225500D01*
X183856Y223980D01*
X184300Y222518D01*
X185020Y221170D01*
X185989Y219989D01*
X187170Y219020D01*
X188518Y218300D01*
X189980Y217856D01*
X191500Y217707D01*
X193020Y217856D01*
X194482Y218300D01*
X195830Y219020D01*
X197011Y219989D01*
X197980Y221170D01*
X198700Y222518D01*
X199144Y223980D01*
X199293Y225500D01*
X199144Y227020D01*
X198700Y228482D01*
X197980Y229830D01*
X197011Y231011D01*
X195830Y231980D01*
X194482Y232700D01*
X193020Y233144D01*
X191500Y233293D01*
D02*
G37*
G36*
X410921Y219500D02*
X407500D01*
Y216079D01*
X408032Y216149D01*
X408993Y216547D01*
X409819Y217181D01*
X410453Y218007D01*
X410851Y218968D01*
X410921Y219500D01*
D02*
G37*
G36*
X406500D02*
X403079D01*
X403149Y218968D01*
X403547Y218007D01*
X404181Y217181D01*
X405007Y216547D01*
X405968Y216149D01*
X406500Y216079D01*
Y219500D01*
D02*
G37*
G36*
X118000Y208921D02*
X117468Y208851D01*
X116507Y208453D01*
X115681Y207819D01*
X115047Y206993D01*
X114649Y206032D01*
X114579Y205500D01*
X118000D01*
Y208921D01*
D02*
G37*
G36*
X191500Y212398D02*
X190057Y212256D01*
X188669Y211835D01*
X187390Y211151D01*
X186269Y210231D01*
X185349Y209110D01*
X184665Y207831D01*
X184244Y206443D01*
X184225Y206252D01*
X180003Y202029D01*
X161379D01*
X160830Y202480D01*
X159482Y203200D01*
X158020Y203644D01*
X156500Y203793D01*
X154980Y203644D01*
X153518Y203200D01*
X152170Y202480D01*
X150989Y201511D01*
X150020Y200330D01*
X149300Y198982D01*
X148856Y197520D01*
X148707Y196000D01*
X148856Y194480D01*
X149300Y193018D01*
X150020Y191670D01*
X150989Y190489D01*
X152170Y189520D01*
X153518Y188800D01*
X154980Y188356D01*
X156500Y188207D01*
X158020Y188356D01*
X159482Y188800D01*
X160830Y189520D01*
X161379Y189971D01*
X182500D01*
X183676Y190087D01*
X184807Y190430D01*
X185849Y190987D01*
X186045Y191147D01*
X186439Y190824D01*
X186430Y190807D01*
X186087Y189676D01*
X185971Y188500D01*
X186087Y187324D01*
X186430Y186193D01*
X186987Y185151D01*
X187073Y185045D01*
X187122Y184573D01*
X187147Y184508D01*
X187156Y184439D01*
X187382Y183894D01*
X187593Y183343D01*
X187634Y183287D01*
X187660Y183223D01*
X188019Y182755D01*
X188365Y182277D01*
X188419Y182233D01*
X188461Y182178D01*
X188930Y181819D01*
X189388Y181447D01*
X189451Y181419D01*
X189506Y181377D01*
X190051Y181151D01*
X190590Y180910D01*
X190658Y180900D01*
X190722Y180873D01*
X191158Y180816D01*
X198500Y173474D01*
X198164Y172366D01*
X198131Y172029D01*
X190343D01*
X189166Y171913D01*
X188035Y171570D01*
X187164Y171105D01*
X186841Y171499D01*
X186898Y171568D01*
X187609Y172898D01*
X188047Y174341D01*
X188195Y175843D01*
X188047Y177344D01*
X187609Y178787D01*
X186898Y180117D01*
X185941Y181283D01*
X184775Y182240D01*
X183445Y182951D01*
X182001Y183389D01*
X180500Y183537D01*
X178999Y183389D01*
X177555Y182951D01*
X176225Y182240D01*
X175059Y181283D01*
X174102Y180117D01*
X173391Y178787D01*
X172953Y177344D01*
X172806Y175843D01*
X172953Y174341D01*
X173391Y172898D01*
X174102Y171568D01*
X175059Y170402D01*
X176225Y169445D01*
X177555Y168734D01*
X178999Y168296D01*
X180500Y168148D01*
X182001Y168296D01*
X183445Y168734D01*
X184300Y169191D01*
X184601Y168785D01*
X179765Y163949D01*
X179712Y163911D01*
X179609Y163815D01*
X172843D01*
Y148500D01*
X188157D01*
Y155269D01*
X188187Y155299D01*
X188241Y155372D01*
X192840Y159971D01*
X201067D01*
X201072Y159970D01*
X201087Y159824D01*
X201430Y158693D01*
X201987Y157650D01*
X202737Y156737D01*
X203650Y155987D01*
X204693Y155430D01*
X205824Y155087D01*
X207000Y154971D01*
X207372D01*
X207434Y154923D01*
X207632Y154841D01*
X207812Y154726D01*
X208238Y154590D01*
X208650Y154420D01*
X208862Y154392D01*
X209067Y154327D01*
X209513Y154306D01*
X209955Y154248D01*
X210168Y154276D01*
X210382Y154266D01*
X210818Y154361D01*
X211261Y154420D01*
X211458Y154502D01*
X211668Y154548D01*
X212064Y154753D01*
X212477Y154923D01*
X212507Y154947D01*
X212590Y154954D01*
X212770Y154958D01*
X212856Y154971D01*
X213000D01*
X214176Y155087D01*
X215307Y155430D01*
X216350Y155987D01*
X217263Y156737D01*
X218013Y157650D01*
X218570Y158693D01*
X218913Y159824D01*
X219029Y161000D01*
Y175300D01*
X218913Y176476D01*
X218570Y177607D01*
X218013Y178649D01*
X217263Y179563D01*
X216350Y180313D01*
X215307Y180870D01*
X214176Y181213D01*
X213000Y181329D01*
X207697D01*
X199684Y189342D01*
X199627Y189778D01*
X199601Y189842D01*
X199590Y189910D01*
X199349Y190449D01*
X199123Y190994D01*
X199081Y191049D01*
X199053Y191112D01*
X198681Y191570D01*
X198322Y192039D01*
X198267Y192081D01*
X198223Y192135D01*
X197745Y192481D01*
X197277Y192840D01*
X197213Y192867D01*
X197157Y192907D01*
X196606Y193118D01*
X196061Y193344D01*
X195992Y193353D01*
X195927Y193378D01*
X195455Y193427D01*
X195350Y193513D01*
X194307Y194070D01*
X193176Y194413D01*
X192000Y194529D01*
X190824Y194413D01*
X189852Y194118D01*
X189587Y194560D01*
X192752Y197725D01*
X192943Y197744D01*
X194331Y198165D01*
X195610Y198849D01*
X196731Y199769D01*
X197651Y200890D01*
X198335Y202169D01*
X198756Y203557D01*
X198898Y205000D01*
X198756Y206443D01*
X198335Y207831D01*
X197651Y209110D01*
X196731Y210231D01*
X195610Y211151D01*
X194331Y211835D01*
X192943Y212256D01*
X191500Y212398D01*
D02*
G37*
G36*
X221500D02*
X220057Y212256D01*
X218669Y211835D01*
X217390Y211151D01*
X216269Y210231D01*
X215349Y209110D01*
X214665Y207831D01*
X214244Y206443D01*
X214102Y205000D01*
X214244Y203557D01*
X214665Y202169D01*
X215349Y200890D01*
X216269Y199769D01*
X217390Y198849D01*
X218669Y198165D01*
X220057Y197744D01*
X221500Y197602D01*
X222943Y197744D01*
X224331Y198165D01*
X225610Y198849D01*
X226731Y199769D01*
X227651Y200890D01*
X228335Y202169D01*
X228756Y203557D01*
X228898Y205000D01*
X228756Y206443D01*
X228335Y207831D01*
X227651Y209110D01*
X226731Y210231D01*
X225610Y211151D01*
X224331Y211835D01*
X222943Y212256D01*
X221500Y212398D01*
D02*
G37*
G36*
X156500Y186793D02*
X154980Y186644D01*
X153518Y186200D01*
X152170Y185480D01*
X151621Y185029D01*
X128500D01*
X128500Y185029D01*
X127324Y184913D01*
X126193Y184570D01*
X125151Y184013D01*
X124237Y183263D01*
X124237Y183263D01*
X117906Y176933D01*
X116941Y176838D01*
X115442Y176383D01*
X114060Y175645D01*
X112849Y174651D01*
X111855Y173440D01*
X111117Y172058D01*
X110662Y170559D01*
X110509Y169000D01*
X110662Y167441D01*
X111117Y165942D01*
X111855Y164560D01*
X112849Y163349D01*
X114060Y162355D01*
X114547Y162095D01*
Y159500D01*
X118500D01*
X122453D01*
Y162095D01*
X122940Y162355D01*
X124151Y163349D01*
X125145Y164560D01*
X125883Y165942D01*
X126338Y167441D01*
X126433Y168406D01*
X130997Y172971D01*
X151621D01*
X152170Y172520D01*
X153518Y171800D01*
X154980Y171356D01*
X156500Y171207D01*
X158020Y171356D01*
X159482Y171800D01*
X160830Y172520D01*
X162011Y173489D01*
X162980Y174670D01*
X163700Y176018D01*
X164144Y177480D01*
X164293Y179000D01*
X164144Y180520D01*
X163700Y181982D01*
X162980Y183330D01*
X162011Y184511D01*
X160830Y185480D01*
X159482Y186200D01*
X158020Y186644D01*
X156500Y186793D01*
D02*
G37*
G36*
X407843Y186123D02*
Y183000D01*
X410966D01*
X410906Y183455D01*
X410537Y184344D01*
X409951Y185108D01*
X409187Y185695D01*
X408297Y186063D01*
X407843Y186123D01*
D02*
G37*
G36*
X406843D02*
X406388Y186063D01*
X405498Y185695D01*
X404734Y185108D01*
X404148Y184344D01*
X403779Y183455D01*
X403719Y183000D01*
X406843D01*
Y186123D01*
D02*
G37*
G36*
X335000Y197793D02*
X333480Y197644D01*
X332018Y197200D01*
X330670Y196480D01*
X329489Y195511D01*
X328520Y194330D01*
X327800Y192982D01*
X327356Y191520D01*
X327207Y190000D01*
X327356Y188480D01*
X327800Y187018D01*
X328520Y185670D01*
X329489Y184489D01*
X330670Y183520D01*
X332018Y182800D01*
X333480Y182356D01*
X335000Y182207D01*
X336520Y182356D01*
X337982Y182800D01*
X339330Y183520D01*
X340511Y184489D01*
X341480Y185670D01*
X342200Y187018D01*
X342644Y188480D01*
X342793Y190000D01*
X342644Y191520D01*
X342200Y192982D01*
X341480Y194330D01*
X340511Y195511D01*
X339330Y196480D01*
X337982Y197200D01*
X336520Y197644D01*
X335000Y197793D01*
D02*
G37*
G36*
X266453Y201476D02*
X250547D01*
Y185571D01*
X257907D01*
X257938Y185541D01*
X258010Y185487D01*
X258784Y184713D01*
X259698Y183963D01*
X260740Y183406D01*
X261871Y183063D01*
X263047Y182947D01*
X294310D01*
X295060Y182332D01*
X296442Y181594D01*
X297941Y181139D01*
X299500Y180985D01*
X301059Y181139D01*
X302558Y181594D01*
X303940Y182332D01*
X305151Y183326D01*
X306144Y184537D01*
X306883Y185918D01*
X307338Y187417D01*
X307491Y188976D01*
X307338Y190535D01*
X306883Y192034D01*
X306144Y193416D01*
X305151Y194627D01*
X303940Y195621D01*
X302558Y196359D01*
X301059Y196814D01*
X299500Y196968D01*
X297941Y196814D01*
X296442Y196359D01*
X295060Y195621D01*
X294310Y195005D01*
X266453D01*
Y201476D01*
D02*
G37*
G36*
X222000Y196293D02*
X220480Y196144D01*
X219018Y195700D01*
X217670Y194980D01*
X216489Y194011D01*
X215520Y192830D01*
X214800Y191482D01*
X214356Y190020D01*
X214207Y188500D01*
X214356Y186980D01*
X214800Y185518D01*
X215520Y184170D01*
X216489Y182989D01*
X217670Y182020D01*
X219018Y181300D01*
X220480Y180856D01*
X222000Y180707D01*
X223520Y180856D01*
X224982Y181300D01*
X226330Y182020D01*
X227511Y182989D01*
X228480Y184170D01*
X229200Y185518D01*
X229644Y186980D01*
X229793Y188500D01*
X229644Y190020D01*
X229200Y191482D01*
X228480Y192830D01*
X227511Y194011D01*
X226330Y194980D01*
X224982Y195700D01*
X223520Y196144D01*
X222000Y196293D01*
D02*
G37*
G36*
X410966Y182000D02*
X407843D01*
Y178877D01*
X408297Y178937D01*
X409187Y179305D01*
X409951Y179892D01*
X410537Y180656D01*
X410906Y181545D01*
X410966Y182000D01*
D02*
G37*
G36*
X406843D02*
X403719D01*
X403779Y181545D01*
X404148Y180656D01*
X404734Y179892D01*
X405498Y179305D01*
X406388Y178937D01*
X406843Y178877D01*
Y182000D01*
D02*
G37*
G36*
X365500Y180293D02*
X363980Y180144D01*
X362518Y179700D01*
X361170Y178980D01*
X359989Y178011D01*
X359020Y176830D01*
X358300Y175482D01*
X357856Y174020D01*
X357707Y172500D01*
X357856Y170980D01*
X358300Y169518D01*
X359020Y168170D01*
X359989Y166989D01*
X361170Y166020D01*
X362518Y165300D01*
X363980Y164856D01*
X365500Y164707D01*
X367020Y164856D01*
X368482Y165300D01*
X369830Y166020D01*
X371011Y166989D01*
X371980Y168170D01*
X372700Y169518D01*
X373144Y170980D01*
X373293Y172500D01*
X373144Y174020D01*
X372700Y175482D01*
X371980Y176830D01*
X371011Y178011D01*
X369830Y178980D01*
X368482Y179700D01*
X367020Y180144D01*
X365500Y180293D01*
D02*
G37*
G36*
X335500D02*
X333980Y180144D01*
X332518Y179700D01*
X331170Y178980D01*
X329989Y178011D01*
X329020Y176830D01*
X328300Y175482D01*
X327856Y174020D01*
X327707Y172500D01*
X327856Y170980D01*
X328300Y169518D01*
X329020Y168170D01*
X329989Y166989D01*
X331170Y166020D01*
X332518Y165300D01*
X333980Y164856D01*
X335500Y164707D01*
X337020Y164856D01*
X338482Y165300D01*
X339830Y166020D01*
X341011Y166989D01*
X341980Y168170D01*
X342700Y169518D01*
X343144Y170980D01*
X343293Y172500D01*
X343144Y174020D01*
X342700Y175482D01*
X341980Y176830D01*
X341011Y178011D01*
X339830Y178980D01*
X338482Y179700D01*
X337020Y180144D01*
X335500Y180293D01*
D02*
G37*
G36*
X238000Y173293D02*
X236480Y173144D01*
X235018Y172700D01*
X233670Y171980D01*
X232489Y171011D01*
X231520Y169830D01*
X230800Y168482D01*
X230356Y167020D01*
X230207Y165500D01*
X230356Y163980D01*
X230800Y162518D01*
X231520Y161170D01*
X232489Y159989D01*
X233670Y159020D01*
X235018Y158300D01*
X236480Y157856D01*
X238000Y157707D01*
X239520Y157856D01*
X240982Y158300D01*
X242330Y159020D01*
X243511Y159989D01*
X244480Y161170D01*
X245200Y162518D01*
X245644Y163980D01*
X245793Y165500D01*
X245644Y167020D01*
X245200Y168482D01*
X244480Y169830D01*
X243511Y171011D01*
X242330Y171980D01*
X240982Y172700D01*
X239520Y173144D01*
X238000Y173293D01*
D02*
G37*
G36*
X122453Y158500D02*
X119000D01*
Y155047D01*
X122453D01*
Y158500D01*
D02*
G37*
G36*
X118000D02*
X114547D01*
Y155047D01*
X118000D01*
Y158500D01*
D02*
G37*
G36*
X268000Y173293D02*
X266480Y173144D01*
X265018Y172700D01*
X263670Y171980D01*
X262489Y171011D01*
X261520Y169830D01*
X260800Y168482D01*
X260356Y167020D01*
X260207Y165500D01*
X260356Y163980D01*
X260800Y162518D01*
X261520Y161170D01*
X262489Y159989D01*
X263670Y159020D01*
X265018Y158300D01*
X266480Y157856D01*
X267187Y157787D01*
X268213Y156761D01*
X268213Y156760D01*
X269127Y156011D01*
X270169Y155454D01*
X271300Y155110D01*
X272476Y154995D01*
X272477Y154995D01*
X291547D01*
Y153071D01*
X307453D01*
Y168976D01*
X291547D01*
Y167053D01*
X275634D01*
X275200Y168482D01*
X274480Y169830D01*
X273511Y171011D01*
X272330Y171980D01*
X270982Y172700D01*
X269520Y173144D01*
X268000Y173293D01*
D02*
G37*
G36*
X351969Y155002D02*
X348031D01*
X346665Y154868D01*
X345352Y154469D01*
X344141Y153822D01*
X343080Y152951D01*
X342209Y151890D01*
X341562Y150680D01*
X341164Y149366D01*
X341131Y149029D01*
X327500D01*
X326324Y148913D01*
X325193Y148570D01*
X324150Y148013D01*
X323237Y147263D01*
X320003Y144029D01*
X305472D01*
X304648Y144469D01*
X303335Y144868D01*
X301969Y145002D01*
X298031D01*
X296665Y144868D01*
X295352Y144469D01*
X294141Y143822D01*
X293080Y142951D01*
X292209Y141890D01*
X291562Y140680D01*
X291164Y139366D01*
X291131Y139029D01*
X268997D01*
X260213Y147813D01*
X260144Y148520D01*
X259700Y149982D01*
X258980Y151330D01*
X258011Y152511D01*
X256830Y153480D01*
X255482Y154200D01*
X254020Y154644D01*
X252500Y154793D01*
X250980Y154644D01*
X249518Y154200D01*
X248170Y153480D01*
X247621Y153029D01*
X202657D01*
X201481Y152913D01*
X200350Y152570D01*
X199308Y152013D01*
X198394Y151263D01*
X195735Y148604D01*
X195156Y148547D01*
X193713Y148109D01*
X192383Y147398D01*
X191217Y146441D01*
X190260Y145275D01*
X189549Y143945D01*
X189111Y142501D01*
X188963Y141000D01*
X189111Y139499D01*
X189549Y138055D01*
X190260Y136725D01*
X191217Y135559D01*
X192383Y134602D01*
X193713Y133891D01*
X195156Y133453D01*
X196657Y133306D01*
X198159Y133453D01*
X199602Y133891D01*
X200932Y134602D01*
X202098Y135559D01*
X203055Y136725D01*
X203766Y138055D01*
X204204Y139499D01*
X204261Y140077D01*
X205155Y140971D01*
X208685D01*
Y133343D01*
X224000D01*
Y140971D01*
X247621D01*
X248170Y140520D01*
X249518Y139800D01*
X250980Y139356D01*
X251687Y139287D01*
X262237Y128737D01*
X263151Y127987D01*
X264193Y127430D01*
X265324Y127087D01*
X266500Y126971D01*
X292568D01*
X292987Y126576D01*
X292993Y126308D01*
X292958Y126043D01*
X293010Y125653D01*
X293020Y125259D01*
X293095Y125003D01*
X293130Y124737D01*
X293281Y124374D01*
X293392Y123997D01*
X293422Y123948D01*
X292503Y123029D01*
X257338D01*
X256990Y123297D01*
X256926Y123323D01*
X256869Y123364D01*
X256318Y123575D01*
X255773Y123800D01*
X255704Y123810D01*
X255640Y123834D01*
X255053Y123895D01*
X254468Y123972D01*
X254399Y123963D01*
X254330Y123970D01*
X253748Y123877D01*
X253163Y123800D01*
X253099Y123774D01*
X253030Y123763D01*
X252491Y123522D01*
X251946Y123297D01*
X251891Y123254D01*
X251828Y123226D01*
X251459Y122926D01*
X251324Y122913D01*
X250193Y122570D01*
X249150Y122013D01*
X248237Y121263D01*
X247487Y120350D01*
X246930Y119307D01*
X246587Y118176D01*
X246471Y117000D01*
X246587Y115824D01*
X246930Y114693D01*
X247487Y113651D01*
X248237Y112737D01*
X249150Y111987D01*
X250193Y111430D01*
X251324Y111087D01*
X251459Y111074D01*
X251828Y110774D01*
X251891Y110746D01*
X251946Y110703D01*
X252491Y110478D01*
X253030Y110237D01*
X253099Y110226D01*
X253163Y110200D01*
X253747Y110123D01*
X254330Y110030D01*
X254399Y110037D01*
X254468Y110028D01*
X255053Y110105D01*
X255640Y110166D01*
X255704Y110190D01*
X255773Y110200D01*
X256318Y110425D01*
X256869Y110636D01*
X256926Y110677D01*
X256990Y110703D01*
X257338Y110971D01*
X295000D01*
X296176Y111087D01*
X297307Y111430D01*
X298349Y111987D01*
X299263Y112737D01*
X304263Y117737D01*
X305013Y118650D01*
X305570Y119693D01*
X305913Y120824D01*
X306026Y121971D01*
X323300D01*
X324476Y122087D01*
X325607Y122430D01*
X326649Y122987D01*
X327563Y123737D01*
X335797Y131971D01*
X344067D01*
X344123Y131961D01*
X344494Y131946D01*
X344523Y131923D01*
X344936Y131753D01*
X345332Y131548D01*
X345542Y131502D01*
X345740Y131420D01*
X346182Y131361D01*
X346618Y131266D01*
X346832Y131276D01*
X347045Y131248D01*
X347487Y131306D01*
X347933Y131327D01*
X348137Y131392D01*
X348350Y131420D01*
X348762Y131590D01*
X349188Y131726D01*
X349368Y131842D01*
X349566Y131923D01*
X349628Y131971D01*
X350000D01*
X351176Y132087D01*
X352307Y132430D01*
X353349Y132987D01*
X354263Y133737D01*
X355013Y134651D01*
X355570Y135693D01*
X355913Y136824D01*
X355956Y137258D01*
X356920Y138049D01*
X357791Y139110D01*
X358438Y140320D01*
X358836Y141634D01*
X358971Y143000D01*
X358836Y144366D01*
X358492Y145500D01*
X358836Y146634D01*
X358971Y148000D01*
X358836Y149366D01*
X358438Y150680D01*
X357791Y151890D01*
X356920Y152951D01*
X355859Y153822D01*
X354648Y154469D01*
X353335Y154868D01*
X351969Y155002D01*
D02*
G37*
G36*
X156500Y156793D02*
X154980Y156644D01*
X153518Y156200D01*
X152170Y155480D01*
X150989Y154511D01*
X150020Y153330D01*
X149300Y151982D01*
X148856Y150520D01*
X148707Y149000D01*
X148856Y147480D01*
X149300Y146018D01*
X150020Y144670D01*
X150989Y143489D01*
X152170Y142520D01*
X153518Y141800D01*
X154980Y141356D01*
X156500Y141207D01*
X158020Y141356D01*
X159482Y141800D01*
X160830Y142520D01*
X162011Y143489D01*
X162980Y144670D01*
X163700Y146018D01*
X164144Y147480D01*
X164293Y149000D01*
X164144Y150520D01*
X163700Y151982D01*
X162980Y153330D01*
X162011Y154511D01*
X160830Y155480D01*
X159482Y156200D01*
X158020Y156644D01*
X156500Y156793D01*
D02*
G37*
G36*
X224000Y126657D02*
X208685D01*
Y111343D01*
X224000D01*
Y126657D01*
D02*
G37*
G36*
X196657Y126695D02*
X195156Y126547D01*
X193713Y126109D01*
X192383Y125398D01*
X191217Y124441D01*
X190260Y123275D01*
X189549Y121945D01*
X189111Y120501D01*
X188963Y119000D01*
X189111Y117499D01*
X189549Y116055D01*
X190260Y114725D01*
X191217Y113559D01*
X192383Y112602D01*
X193713Y111891D01*
X195156Y111453D01*
X196657Y111305D01*
X198159Y111453D01*
X199602Y111891D01*
X200932Y112602D01*
X202098Y113559D01*
X203055Y114725D01*
X203766Y116055D01*
X204204Y117499D01*
X204352Y119000D01*
X204204Y120501D01*
X203766Y121945D01*
X203055Y123275D01*
X202098Y124441D01*
X200932Y125398D01*
X199602Y126109D01*
X198159Y126547D01*
X196657Y126695D01*
D02*
G37*
%LPD*%
G36*
X259655Y276753D02*
X259850Y276595D01*
X260053Y276455D01*
X260266Y276335D01*
X260487Y276232D01*
X260717Y276149D01*
X260955Y276084D01*
X261202Y276037D01*
X261457Y276009D01*
X261722Y276000D01*
Y274000D01*
X261457Y273991D01*
X261202Y273963D01*
X260955Y273916D01*
X260717Y273851D01*
X260487Y273768D01*
X260266Y273665D01*
X260053Y273545D01*
X259850Y273405D01*
X259655Y273247D01*
X259468Y273071D01*
Y276929D01*
X259655Y276753D01*
D02*
G37*
G36*
X255532Y273071D02*
X255345Y273247D01*
X255150Y273405D01*
X254947Y273545D01*
X254734Y273665D01*
X254513Y273768D01*
X254283Y273851D01*
X254045Y273916D01*
X253798Y273963D01*
X253543Y273991D01*
X253278Y274000D01*
Y276000D01*
X253543Y276009D01*
X253798Y276037D01*
X254045Y276084D01*
X254283Y276149D01*
X254513Y276232D01*
X254734Y276335D01*
X254947Y276455D01*
X255150Y276595D01*
X255345Y276753D01*
X255532Y276929D01*
Y273071D01*
D02*
G37*
G36*
X337923Y269662D02*
X338660Y269038D01*
X338986Y268810D01*
X339283Y268639D01*
X339551Y268525D01*
X339791Y268467D01*
X340003Y268466D01*
X340186Y268521D01*
X340340Y268634D01*
X337524Y265817D01*
X337636Y265971D01*
X337691Y266155D01*
X337690Y266366D01*
X337632Y266606D01*
X337518Y266875D01*
X337347Y267172D01*
X337120Y267497D01*
X336836Y267852D01*
X336098Y268646D01*
X337512Y270060D01*
X337923Y269662D01*
D02*
G37*
G36*
X179496Y256310D02*
X179557Y256140D01*
X179657Y255990D01*
X179798Y255860D01*
X179979Y255750D01*
X180200Y255660D01*
X180462Y255590D01*
X180764Y255540D01*
X181106Y255510D01*
X181488Y255500D01*
Y253500D01*
X181106Y253490D01*
X180764Y253460D01*
X180462Y253410D01*
X180200Y253340D01*
X179979Y253250D01*
X179798Y253140D01*
X179657Y253010D01*
X179557Y252860D01*
X179496Y252690D01*
X179476Y252500D01*
Y256500D01*
X179496Y256310D01*
D02*
G37*
G36*
X205857Y248575D02*
X206088Y248399D01*
X206333Y248243D01*
X206593Y248110D01*
X206868Y247997D01*
X207158Y247905D01*
X207463Y247834D01*
X207783Y247785D01*
X208118Y247757D01*
X208468Y247750D01*
X205250Y244532D01*
X205243Y244882D01*
X205215Y245217D01*
X205166Y245537D01*
X205095Y245842D01*
X205003Y246132D01*
X204890Y246407D01*
X204756Y246667D01*
X204601Y246912D01*
X204425Y247143D01*
X204227Y247358D01*
X205642Y248773D01*
X205857Y248575D01*
D02*
G37*
G36*
X191179Y242225D02*
X190927Y242467D01*
X190670Y242684D01*
X190409Y242875D01*
X190144Y243041D01*
X189874Y243181D01*
X189600Y243296D01*
X189321Y243385D01*
X189037Y243449D01*
X188750Y243487D01*
X188458Y243500D01*
Y245500D01*
X188750Y245513D01*
X189037Y245551D01*
X189321Y245615D01*
X189600Y245704D01*
X189874Y245819D01*
X190144Y245959D01*
X190409Y246125D01*
X190670Y246316D01*
X190927Y246533D01*
X191179Y246775D01*
Y242225D01*
D02*
G37*
G36*
X196757Y244118D02*
X196785Y243783D01*
X196834Y243463D01*
X196905Y243158D01*
X196997Y242868D01*
X197109Y242593D01*
X197243Y242333D01*
X197399Y242088D01*
X197575Y241857D01*
X197773Y241642D01*
X196358Y240227D01*
X196143Y240425D01*
X195912Y240601D01*
X195667Y240757D01*
X195407Y240891D01*
X195132Y241003D01*
X194842Y241095D01*
X194537Y241166D01*
X194217Y241215D01*
X193882Y241243D01*
X193533Y241250D01*
X196750Y244467D01*
X196757Y244118D01*
D02*
G37*
G36*
X122855Y197941D02*
X122458Y197529D01*
X121833Y196793D01*
X121606Y196467D01*
X121435Y196170D01*
X121320Y195901D01*
X121263Y195661D01*
X121261Y195450D01*
X121317Y195267D01*
X121429Y195112D01*
X118612Y197929D01*
X118767Y197817D01*
X118950Y197761D01*
X119161Y197763D01*
X119401Y197820D01*
X119670Y197935D01*
X119967Y198106D01*
X120293Y198333D01*
X120647Y198617D01*
X121441Y199355D01*
X122855Y197941D01*
D02*
G37*
G36*
X304576Y244319D02*
X304399Y244130D01*
X304241Y243936D01*
X304102Y243736D01*
X303982Y243531D01*
X303881Y243320D01*
X303799Y243104D01*
X303735Y242882D01*
X303690Y242655D01*
X303664Y242422D01*
X303657Y242184D01*
X301027Y244815D01*
X301265Y244822D01*
X301497Y244848D01*
X301725Y244892D01*
X301946Y244956D01*
X302163Y245038D01*
X302373Y245140D01*
X302578Y245260D01*
X302778Y245399D01*
X302973Y245556D01*
X303161Y245733D01*
X304576Y244319D01*
D02*
G37*
G36*
X404470Y233958D02*
X405207Y233333D01*
X405533Y233106D01*
X405830Y232935D01*
X406099Y232820D01*
X406339Y232763D01*
X406550Y232761D01*
X406733Y232817D01*
X406888Y232929D01*
X404071Y230112D01*
X404183Y230267D01*
X404239Y230450D01*
X404237Y230661D01*
X404180Y230901D01*
X404065Y231170D01*
X403894Y231467D01*
X403667Y231793D01*
X403383Y232147D01*
X402645Y232941D01*
X404059Y234355D01*
X404470Y233958D01*
D02*
G37*
G36*
X261460Y221153D02*
X261487Y220870D01*
X261534Y220596D01*
X261601Y220333D01*
X261688Y220080D01*
X261795Y219837D01*
X261923Y219604D01*
X262070Y219381D01*
X262237Y219169D01*
X262424Y218966D01*
X261010Y217552D01*
X260808Y217739D01*
X260595Y217907D01*
X260372Y218054D01*
X260140Y218181D01*
X259897Y218288D01*
X259644Y218375D01*
X259380Y218443D01*
X259107Y218490D01*
X258823Y218517D01*
X258529Y218524D01*
X261453Y221447D01*
X261460Y221153D01*
D02*
G37*
G36*
X336472Y217744D02*
X336216Y217737D01*
X335966Y217711D01*
X335723Y217665D01*
X335488Y217601D01*
X335259Y217517D01*
X335038Y217413D01*
X334823Y217291D01*
X334616Y217149D01*
X334415Y216988D01*
X334222Y216808D01*
X332808Y218222D01*
X332988Y218415D01*
X333149Y218616D01*
X333291Y218823D01*
X333413Y219038D01*
X333517Y219259D01*
X333601Y219488D01*
X333665Y219724D01*
X333711Y219966D01*
X333737Y220216D01*
X333744Y220472D01*
X336472Y217744D01*
D02*
G37*
G36*
X297545Y215291D02*
X297351Y215426D01*
X297141Y215546D01*
X296913Y215653D01*
X296667Y215745D01*
X296405Y215823D01*
X296125Y215887D01*
X295828Y215936D01*
X295513Y215972D01*
X294833Y216000D01*
Y218000D01*
X295182Y218007D01*
X295828Y218064D01*
X296125Y218113D01*
X296405Y218177D01*
X296667Y218255D01*
X296913Y218347D01*
X297141Y218454D01*
X297351Y218574D01*
X297545Y218709D01*
Y215291D01*
D02*
G37*
G36*
X385423Y186162D02*
X386160Y185538D01*
X386486Y185310D01*
X386783Y185140D01*
X387051Y185025D01*
X387291Y184967D01*
X387503Y184966D01*
X387686Y185021D01*
X387840Y185134D01*
X385024Y182317D01*
X385136Y182472D01*
X385191Y182655D01*
X385190Y182866D01*
X385132Y183106D01*
X385018Y183375D01*
X384847Y183672D01*
X384619Y183997D01*
X384335Y184352D01*
X383598Y185145D01*
X385012Y186560D01*
X385423Y186162D01*
D02*
G37*
G36*
X191476Y202638D02*
X191294Y202631D01*
X191112Y202606D01*
X190931Y202564D01*
X190752Y202505D01*
X190573Y202427D01*
X190395Y202332D01*
X190217Y202220D01*
X190041Y202090D01*
X189866Y201943D01*
X189692Y201777D01*
X188277Y203192D01*
X188443Y203366D01*
X188590Y203541D01*
X188720Y203717D01*
X188832Y203895D01*
X188927Y204073D01*
X189005Y204252D01*
X189064Y204431D01*
X189106Y204612D01*
X189131Y204794D01*
X189138Y204976D01*
X191476Y202638D01*
D02*
G37*
G36*
X158655Y197753D02*
X158850Y197595D01*
X159053Y197455D01*
X159266Y197335D01*
X159487Y197232D01*
X159716Y197149D01*
X159955Y197084D01*
X160202Y197037D01*
X160457Y197009D01*
X160722Y197000D01*
Y195000D01*
X160457Y194991D01*
X160202Y194963D01*
X159955Y194916D01*
X159716Y194851D01*
X159487Y194768D01*
X159266Y194666D01*
X159053Y194545D01*
X158850Y194405D01*
X158655Y194247D01*
X158468Y194071D01*
Y197929D01*
X158655Y197753D01*
D02*
G37*
G36*
X194763Y188216D02*
X194789Y187966D01*
X194835Y187724D01*
X194899Y187488D01*
X194983Y187259D01*
X195087Y187038D01*
X195209Y186823D01*
X195351Y186616D01*
X195512Y186415D01*
X195692Y186222D01*
X194278Y184808D01*
X194085Y184988D01*
X193884Y185149D01*
X193677Y185291D01*
X193462Y185413D01*
X193241Y185517D01*
X193012Y185601D01*
X192777Y185665D01*
X192534Y185711D01*
X192284Y185737D01*
X192028Y185744D01*
X194756Y188472D01*
X194763Y188216D01*
D02*
G37*
G36*
X204045Y164291D02*
X203851Y164426D01*
X203641Y164546D01*
X203413Y164653D01*
X203167Y164745D01*
X202905Y164823D01*
X202625Y164887D01*
X202328Y164936D01*
X202013Y164972D01*
X201333Y165000D01*
Y167000D01*
X201682Y167007D01*
X202328Y167064D01*
X202625Y167113D01*
X202905Y167177D01*
X203167Y167255D01*
X203413Y167347D01*
X203641Y167454D01*
X203851Y167574D01*
X204045Y167709D01*
Y164291D01*
D02*
G37*
G36*
X210149Y162574D02*
X210359Y162454D01*
X210587Y162347D01*
X210833Y162255D01*
X211095Y162177D01*
X211375Y162113D01*
X211672Y162064D01*
X211987Y162028D01*
X212667Y162000D01*
Y160000D01*
X212318Y159993D01*
X211672Y159936D01*
X211375Y159887D01*
X211095Y159823D01*
X210833Y159745D01*
X210587Y159653D01*
X210359Y159546D01*
X210149Y159426D01*
X209955Y159291D01*
Y162709D01*
X210149Y162574D01*
D02*
G37*
G36*
X184560Y158803D02*
X184162Y158392D01*
X183538Y157655D01*
X183310Y157329D01*
X183140Y157032D01*
X183025Y156764D01*
X182967Y156524D01*
X182966Y156312D01*
X183021Y156129D01*
X183133Y155974D01*
X180317Y158791D01*
X180472Y158679D01*
X180655Y158624D01*
X180866Y158625D01*
X181106Y158683D01*
X181375Y158797D01*
X181672Y158968D01*
X181998Y159195D01*
X182352Y159479D01*
X183145Y160217D01*
X184560Y158803D01*
D02*
G37*
G36*
X154532Y177071D02*
X154345Y177247D01*
X154150Y177405D01*
X153947Y177545D01*
X153734Y177665D01*
X153513Y177768D01*
X153284Y177851D01*
X153045Y177916D01*
X152798Y177963D01*
X152543Y177991D01*
X152278Y178000D01*
Y180000D01*
X152543Y180009D01*
X152798Y180037D01*
X153045Y180084D01*
X153284Y180149D01*
X153513Y180232D01*
X153734Y180334D01*
X153947Y180455D01*
X154150Y180595D01*
X154345Y180753D01*
X154532Y180929D01*
Y177071D01*
D02*
G37*
G36*
X122424Y171510D02*
X122237Y171308D01*
X122070Y171095D01*
X121923Y170872D01*
X121795Y170640D01*
X121688Y170397D01*
X121601Y170143D01*
X121534Y169880D01*
X121487Y169607D01*
X121460Y169323D01*
X121453Y169029D01*
X118529Y171953D01*
X118823Y171960D01*
X119107Y171987D01*
X119380Y172034D01*
X119643Y172101D01*
X119897Y172188D01*
X120140Y172295D01*
X120372Y172423D01*
X120595Y172570D01*
X120808Y172737D01*
X121010Y172924D01*
X122424Y171510D01*
D02*
G37*
G36*
X261328Y193256D02*
X261271Y193072D01*
Y192860D01*
X261328Y192619D01*
X261441Y192351D01*
X261611Y192054D01*
X261837Y191728D01*
X262120Y191375D01*
X262855Y190583D01*
X261441Y189169D01*
X261031Y189565D01*
X260295Y190187D01*
X259970Y190413D01*
X259673Y190583D01*
X259404Y190696D01*
X259164Y190753D01*
X258952D01*
X258768Y190696D01*
X258612Y190583D01*
X261441Y193411D01*
X261328Y193256D01*
D02*
G37*
G36*
X297391Y186909D02*
X297179Y187112D01*
X296959Y187294D01*
X296732Y187454D01*
X296499Y187592D01*
X296258Y187710D01*
X296010Y187806D01*
X295756Y187880D01*
X295494Y187934D01*
X295226Y187966D01*
X294950Y187976D01*
Y189976D01*
X295226Y189987D01*
X295494Y190019D01*
X295756Y190072D01*
X296010Y190147D01*
X296258Y190243D01*
X296499Y190360D01*
X296732Y190499D01*
X296959Y190659D01*
X297179Y190841D01*
X297391Y191043D01*
Y186909D01*
D02*
G37*
G36*
X270763Y165216D02*
X270789Y164966D01*
X270835Y164724D01*
X270899Y164488D01*
X270983Y164259D01*
X271087Y164038D01*
X271209Y163823D01*
X271351Y163616D01*
X271512Y163415D01*
X271692Y163222D01*
X270278Y161808D01*
X270085Y161988D01*
X269884Y162149D01*
X269677Y162291D01*
X269462Y162413D01*
X269241Y162517D01*
X269012Y162601D01*
X268776Y162665D01*
X268534Y162711D01*
X268284Y162737D01*
X268028Y162744D01*
X270756Y165472D01*
X270763Y165216D01*
D02*
G37*
G36*
X296571Y159024D02*
X296551Y159214D01*
X296491Y159384D01*
X296390Y159534D01*
X296249Y159664D01*
X296068Y159774D01*
X295847Y159864D01*
X295585Y159934D01*
X295284Y159984D01*
X294941Y160014D01*
X294559Y160024D01*
Y162024D01*
X294941Y162034D01*
X295284Y162064D01*
X295585Y162114D01*
X295847Y162184D01*
X296068Y162274D01*
X296249Y162384D01*
X296390Y162514D01*
X296491Y162664D01*
X296551Y162834D01*
X296571Y163024D01*
Y159024D01*
D02*
G37*
G36*
X250532Y145071D02*
X250345Y145247D01*
X250150Y145405D01*
X249947Y145545D01*
X249734Y145666D01*
X249513Y145768D01*
X249284Y145851D01*
X249045Y145916D01*
X248798Y145963D01*
X248543Y145991D01*
X248278Y146000D01*
Y148000D01*
X248543Y148009D01*
X248798Y148037D01*
X249045Y148084D01*
X249284Y148149D01*
X249513Y148232D01*
X249734Y148335D01*
X249947Y148455D01*
X250150Y148595D01*
X250345Y148753D01*
X250532Y148929D01*
Y145071D01*
D02*
G37*
G36*
X255263Y146716D02*
X255289Y146466D01*
X255335Y146223D01*
X255399Y145988D01*
X255483Y145759D01*
X255587Y145538D01*
X255709Y145323D01*
X255851Y145116D01*
X256012Y144915D01*
X256192Y144722D01*
X254778Y143308D01*
X254585Y143488D01*
X254384Y143649D01*
X254177Y143791D01*
X253962Y143913D01*
X253741Y144017D01*
X253512Y144101D01*
X253276Y144165D01*
X253034Y144211D01*
X252784Y144237D01*
X252528Y144244D01*
X255256Y146972D01*
X255263Y146716D01*
D02*
G37*
G36*
X347045Y141291D02*
X346851Y141426D01*
X346641Y141546D01*
X346413Y141653D01*
X346167Y141745D01*
X345905Y141823D01*
X345625Y141887D01*
X345328Y141936D01*
X345013Y141972D01*
X344333Y142000D01*
Y144000D01*
X344682Y144007D01*
X345328Y144064D01*
X345625Y144113D01*
X345905Y144177D01*
X346167Y144255D01*
X346413Y144347D01*
X346641Y144454D01*
X346851Y144574D01*
X347045Y144709D01*
Y141291D01*
D02*
G37*
G36*
X200233Y143161D02*
X200056Y142973D01*
X199899Y142778D01*
X199760Y142578D01*
X199639Y142373D01*
X199538Y142163D01*
X199456Y141946D01*
X199392Y141725D01*
X199348Y141497D01*
X199322Y141265D01*
X199315Y141027D01*
X196684Y143657D01*
X196922Y143664D01*
X197155Y143690D01*
X197382Y143735D01*
X197604Y143798D01*
X197820Y143881D01*
X198031Y143982D01*
X198236Y144102D01*
X198436Y144241D01*
X198630Y144399D01*
X198819Y144576D01*
X200233Y143161D01*
D02*
G37*
G36*
X347045Y136291D02*
X346851Y136426D01*
X346641Y136546D01*
X346413Y136653D01*
X346167Y136745D01*
X345905Y136823D01*
X345625Y136887D01*
X345328Y136936D01*
X345013Y136972D01*
X344333Y137000D01*
Y139000D01*
X344682Y139007D01*
X345328Y139064D01*
X345625Y139113D01*
X345905Y139177D01*
X346167Y139255D01*
X346413Y139347D01*
X346641Y139454D01*
X346851Y139574D01*
X347045Y139709D01*
Y136291D01*
D02*
G37*
G36*
X297045Y131291D02*
X296851Y131426D01*
X296641Y131546D01*
X296413Y131653D01*
X296167Y131745D01*
X295905Y131823D01*
X295625Y131887D01*
X295328Y131936D01*
X295013Y131972D01*
X294333Y132000D01*
Y134000D01*
X294682Y134007D01*
X295328Y134064D01*
X295625Y134113D01*
X295905Y134177D01*
X296167Y134255D01*
X296413Y134347D01*
X296641Y134454D01*
X296851Y134574D01*
X297045Y134709D01*
Y131291D01*
D02*
G37*
G36*
X303149Y129574D02*
X303359Y129454D01*
X303587Y129347D01*
X303833Y129255D01*
X304095Y129177D01*
X304375Y129113D01*
X304672Y129064D01*
X304987Y129028D01*
X305667Y129000D01*
Y127000D01*
X305318Y126993D01*
X304672Y126936D01*
X304375Y126887D01*
X304095Y126823D01*
X303833Y126745D01*
X303587Y126653D01*
X303359Y126546D01*
X303149Y126426D01*
X302955Y126291D01*
Y129709D01*
X303149Y129574D01*
D02*
G37*
G36*
X301809Y126023D02*
X301639Y125962D01*
X301489Y125861D01*
X301359Y125720D01*
X301250Y125539D01*
X301160Y125317D01*
X301090Y125055D01*
X301040Y124752D01*
X301010Y124410D01*
X301000Y124027D01*
X299000D01*
X298990Y124410D01*
X298960Y124752D01*
X298910Y125055D01*
X298840Y125317D01*
X298750Y125539D01*
X298641Y125720D01*
X298511Y125861D01*
X298361Y125962D01*
X298191Y126023D01*
X298002Y126043D01*
X301998D01*
X301809Y126023D01*
D02*
G37*
G36*
X254655Y118753D02*
X254850Y118595D01*
X255053Y118455D01*
X255266Y118334D01*
X255487Y118232D01*
X255716Y118149D01*
X255955Y118084D01*
X256202Y118037D01*
X256457Y118009D01*
X256722Y118000D01*
Y116000D01*
X256457Y115991D01*
X256202Y115963D01*
X255955Y115916D01*
X255716Y115851D01*
X255487Y115768D01*
X255266Y115665D01*
X255053Y115545D01*
X254850Y115405D01*
X254655Y115247D01*
X254468Y115071D01*
Y118929D01*
X254655Y118753D01*
D02*
G37*
D10*
X301000Y242157D02*
X305743Y246900D01*
X390100D01*
X407000Y230000D01*
X300000Y128000D02*
X323300D01*
X333300Y138000D01*
X350000D01*
X252500Y117000D02*
X295000D01*
X300000Y122000D01*
Y128000D01*
X328000Y212000D02*
X336500Y220500D01*
X300500Y212000D02*
X328000D01*
X252500Y147000D02*
X266500Y133000D01*
X300000D01*
X180500Y156157D02*
X190343Y166000D01*
X207000D01*
X168000Y244500D02*
X193500D01*
X118500Y195000D02*
X168000Y244500D01*
X231000Y275000D02*
X257500D01*
X216000Y260000D02*
X231000Y275000D01*
X216000Y240000D02*
Y260000D01*
X210800Y234800D02*
X216000Y240000D01*
X203200Y234800D02*
X210800D01*
X193500Y244500D02*
X203200Y234800D01*
X327500Y143000D02*
X350000D01*
X322500Y138000D02*
X327500Y143000D01*
X300000Y138000D02*
X322500D01*
X192000Y188500D02*
X205200Y175300D01*
X213000D01*
Y161000D02*
Y175300D01*
X207000Y161000D02*
X213000D01*
X118500Y169000D02*
X128500Y179000D01*
X156500D01*
X268000Y165500D02*
X272476Y161024D01*
X299500D01*
X258500Y193524D02*
X263047Y188976D01*
X299500D01*
X258500Y221476D02*
X262976Y217000D01*
X300500D01*
X196657Y141000D02*
X202657Y147000D01*
X252500D01*
X176843Y254500D02*
X198500D01*
X208500Y244500D01*
X182500Y196000D02*
X191500Y205000D01*
X156500Y196000D02*
X182500D01*
X331157Y275000D02*
X340157Y266000D01*
X257500Y275000D02*
X331157D01*
X344857Y225300D02*
X387657Y182500D01*
X331700Y225300D02*
X344857D01*
X328400Y222000D02*
X331700Y225300D01*
X300500Y222000D02*
X328400D01*
D12*
X192000Y188500D02*
D03*
X222000D02*
D03*
X252500Y117000D02*
D03*
Y147000D02*
D03*
X156500Y179000D02*
D03*
Y149000D02*
D03*
X268000Y165500D02*
D03*
X238000D02*
D03*
X156500Y196000D02*
D03*
Y226000D02*
D03*
X365000Y190000D02*
D03*
X335000D02*
D03*
X365500Y172500D02*
D03*
X335500D02*
D03*
X366500Y220500D02*
D03*
X336500D02*
D03*
X367000Y238500D02*
D03*
X337000D02*
D03*
X257500Y245000D02*
D03*
Y275000D02*
D03*
X221500Y225500D02*
D03*
X191500D02*
D03*
D13*
X207000Y161000D02*
D03*
Y171000D02*
D03*
X300000Y128000D02*
D03*
Y138000D02*
D03*
X350000Y148000D02*
D03*
Y138000D02*
D03*
X300500Y212000D02*
D03*
Y222000D02*
D03*
D14*
X207000Y166000D02*
D03*
X300000Y133000D02*
D03*
X350000Y143000D02*
D03*
X300500Y217000D02*
D03*
D15*
X118500Y169000D02*
D03*
X299500Y188976D02*
D03*
X407000Y220000D02*
D03*
X258500Y221476D02*
D03*
X118500Y205000D02*
D03*
D16*
Y159000D02*
D03*
X299500Y161024D02*
D03*
X407000Y230000D02*
D03*
X258500Y193524D02*
D03*
X118500Y195000D02*
D03*
D17*
X180500Y156157D02*
D03*
X301000Y261843D02*
D03*
D18*
X180500Y175843D02*
D03*
X196657Y119000D02*
D03*
Y141000D02*
D03*
X301000Y242157D02*
D03*
X359843Y266000D02*
D03*
X407343Y182500D02*
D03*
X157157Y254500D02*
D03*
D19*
X216343Y119000D02*
D03*
Y141000D02*
D03*
X340157Y266000D02*
D03*
X387657Y182500D02*
D03*
X176843Y254500D02*
D03*
D20*
X191500Y205000D02*
D03*
X221500D02*
D03*
D21*
X193500Y244500D02*
D03*
X223500D02*
D03*
X208500D02*
D03*
M02*
