G04 Layer_Color=8388736*
%FSLAX25Y25*%
%MOIN*%
G70*
G01*
G75*
%ADD25C,0.06312*%
%ADD26O,0.08674X0.04737*%
%ADD27O,0.08674X0.04737*%
%ADD28C,0.06706*%
%ADD29R,0.06706X0.06706*%
%ADD30R,0.06115X0.06115*%
%ADD31C,0.06115*%
%ADD32R,0.06115X0.06115*%
%ADD33C,0.05524*%
%ADD34C,0.07300*%
D25*
X192000Y188500D02*
D03*
X222000D02*
D03*
X252500Y117000D02*
D03*
Y147000D02*
D03*
X156500Y179000D02*
D03*
Y149000D02*
D03*
X268000Y165500D02*
D03*
X238000D02*
D03*
X156500Y196000D02*
D03*
Y226000D02*
D03*
X365000Y190000D02*
D03*
X335000D02*
D03*
X365500Y172500D02*
D03*
X335500D02*
D03*
X366500Y220500D02*
D03*
X336500D02*
D03*
X367000Y238500D02*
D03*
X337000D02*
D03*
X257500Y245000D02*
D03*
Y275000D02*
D03*
X221500Y225500D02*
D03*
X191500D02*
D03*
D26*
X207000Y161000D02*
D03*
Y171000D02*
D03*
X300000Y128000D02*
D03*
Y138000D02*
D03*
X350000Y148000D02*
D03*
Y138000D02*
D03*
X300500Y212000D02*
D03*
Y222000D02*
D03*
D27*
X207000Y166000D02*
D03*
X300000Y133000D02*
D03*
X350000Y143000D02*
D03*
X300500Y217000D02*
D03*
D28*
X118500Y169000D02*
D03*
X299500Y188976D02*
D03*
X407000Y220000D02*
D03*
X258500Y221476D02*
D03*
X118500Y205000D02*
D03*
D29*
Y159000D02*
D03*
X299500Y161024D02*
D03*
X407000Y230000D02*
D03*
X258500Y193524D02*
D03*
X118500Y195000D02*
D03*
D30*
X180500Y156157D02*
D03*
X301000Y261843D02*
D03*
D31*
X180500Y175843D02*
D03*
X196657Y119000D02*
D03*
Y141000D02*
D03*
X301000Y242157D02*
D03*
X359843Y266000D02*
D03*
X407343Y182500D02*
D03*
X157157Y254500D02*
D03*
D32*
X216343Y119000D02*
D03*
Y141000D02*
D03*
X340157Y266000D02*
D03*
X387657Y182500D02*
D03*
X176843Y254500D02*
D03*
D33*
X191500Y205000D02*
D03*
X221500D02*
D03*
D34*
X193500Y244500D02*
D03*
X223500D02*
D03*
X208500D02*
D03*
M02*
