M48
;Layer_Color=9474304
;FILE_FORMAT=2:5
INCH,LZ
;TYPE=PLATED
T1F00S00C0.02756
T2F00S00C0.03150
T3F00S00C0.03346
T4F00S00C0.03500
T5F00S00C0.03543
%
T01
X01915Y0205
X02215
T02
X0196657Y0119
X0216343
Y0141
X0196657
X01805Y0156157
X0387657Y01825
X0407343
X0359843Y0266
X0340157
X0301Y0261843
Y0242157
X0176843Y02545
X0157157
X01805Y0175843
T03
X01565Y0149
X02525Y0147
Y0117
X03355Y01725
X0335Y019
X0365
X03655Y01725
X03665Y02205
X0367Y02385
X0337
X03365Y02205
X02575Y0245
Y0275
X02215Y02255
X01915
X01565Y0226
Y0196
Y0179
X0192Y01885
X0222
X0238Y01655
X0268
T04
X01935Y02445
X02085
X02235
T05
X03Y0128
Y0133
Y0138
X035
Y0143
Y0148
X0407Y022
Y023
X03005Y0222
Y0217
Y0212
X02995Y0188976
Y0161024
X02585Y0193524
Y0221476
X0207Y0171
Y0166
Y0161
X01185Y0159
Y0169
Y0195
Y0205
M30
