G04 Layer_Physical_Order=2*
G04 Layer_Color=16711680*
%FSLAX25Y25*%
%MOIN*%
G70*
G01*
G75*
%ADD10R,0.05000X0.06000*%
%ADD12R,0.06000X0.05000*%
%ADD19R,0.09000X0.07500*%
%ADD25C,0.01000*%
%ADD26C,0.01500*%
%ADD27C,0.15000*%
%ADD28C,0.05905*%
%ADD29R,0.05905X0.05905*%
%ADD30R,0.10000X0.06000*%
%ADD31O,0.10000X0.06000*%
%ADD32C,0.06000*%
%ADD33R,0.05905X0.05905*%
%ADD34C,0.10650*%
%ADD35C,0.03000*%
D10*
X163000Y420140D02*
D03*
Y411140D02*
D03*
X182000Y420140D02*
D03*
Y411140D02*
D03*
X173500Y375140D02*
D03*
Y366140D02*
D03*
X157500Y375140D02*
D03*
Y366140D02*
D03*
X585500Y406640D02*
D03*
Y415640D02*
D03*
X601125D02*
D03*
Y406640D02*
D03*
X632375Y415640D02*
D03*
Y406640D02*
D03*
X616750Y415640D02*
D03*
Y406640D02*
D03*
X648000D02*
D03*
Y415640D02*
D03*
X264500Y235640D02*
D03*
Y244640D02*
D03*
X278500Y222140D02*
D03*
Y213140D02*
D03*
X265000Y214140D02*
D03*
Y223140D02*
D03*
D12*
X267500Y283140D02*
D03*
X276500D02*
D03*
D19*
X146000Y422640D02*
D03*
Y409140D02*
D03*
D25*
X140500Y312140D02*
X145500Y317140D01*
X166500D01*
X178500Y329140D01*
X288800D01*
X150500Y342140D02*
X282500D01*
X289000Y335640D01*
X153500Y361140D02*
X311500D01*
X379000Y293640D01*
X214500Y257140D02*
X250500D01*
X276500Y283140D01*
X260000D02*
X267500D01*
X394000Y290640D02*
Y295140D01*
X397000Y288888D02*
Y441126D01*
X394953Y286840D02*
X397000Y288888D01*
X389515Y279140D02*
X399000Y288625D01*
X332000Y357140D02*
X394000Y295140D01*
X391700Y286840D02*
X394953D01*
X394747Y443379D02*
X397000Y441126D01*
X389000Y279140D02*
X389515D01*
X399000Y288625D02*
Y445140D01*
X389000Y292640D02*
Y296640D01*
X383000Y295140D02*
X383500D01*
X322000Y356140D02*
X383000Y295140D01*
X161000Y378640D02*
Y394140D01*
X157500Y375140D02*
X161000Y378640D01*
X168000Y380640D02*
Y394140D01*
Y380640D02*
X173500Y375140D01*
X193000Y438640D02*
X226000Y405640D01*
X254500D01*
X166000Y438640D02*
X193000D01*
X647500Y438140D02*
X652000D01*
Y419640D02*
Y438140D01*
X648000Y415640D02*
X652000Y419640D01*
X632375Y415640D02*
Y435965D01*
X630200Y438140D02*
X632375Y435965D01*
X616750Y415640D02*
X632375D01*
X601125Y406640D02*
X616750D01*
X585500Y415640D02*
X601125D01*
X581000Y411140D02*
X585500Y406640D01*
X581000Y411140D02*
Y428140D01*
X571000Y438140D02*
X581000Y428140D01*
X585500Y415640D02*
Y433640D01*
X571000Y448140D02*
X585500Y433640D01*
X153500Y361140D02*
Y371140D01*
X157500Y375140D01*
X336500Y455140D02*
X339000D01*
X332000Y450640D02*
X336500Y455140D01*
X332000Y357140D02*
Y450640D01*
X339000Y445140D02*
Y449126D01*
X343253Y453379D01*
Y457887D01*
X343147Y460993D02*
X349000Y455140D01*
X341747Y459393D02*
X343253Y457887D01*
X333753Y459393D02*
X341747D01*
X327000Y452640D02*
X333753Y459393D01*
X384000Y279140D02*
X391700Y286840D01*
X394747Y450887D02*
X399000Y455140D01*
Y279140D02*
X408500Y288640D01*
Y459140D01*
X406000Y461640D02*
X408500Y459140D01*
X394747Y443379D02*
Y450887D01*
X369000Y455140D02*
X373253Y450887D01*
X390761D01*
X389000Y455140D02*
Y455147D01*
X395493Y461640D01*
X406000D01*
X390761Y450887D02*
X394747Y454873D01*
Y458631D01*
X395509Y459393D01*
X404747D01*
Y289887D02*
Y459393D01*
X394000Y279140D02*
X404747Y289887D01*
X379000Y279140D02*
Y293640D01*
X327000Y358640D02*
X389000Y296640D01*
X327000Y358640D02*
Y452640D01*
X585500Y406640D02*
X593500Y398640D01*
X571000Y458140D02*
X596000Y433140D01*
X604500D01*
X609000Y428640D01*
Y415640D02*
Y428640D01*
Y415640D02*
X613500Y411140D01*
X653500D01*
X598500Y351640D02*
X615000D01*
X656000Y392640D01*
Y408640D01*
X653500Y411140D02*
X656000Y408640D01*
X578500Y351640D02*
X598500D01*
X568500Y361640D02*
X578500Y351640D01*
Y286640D02*
X598500D01*
X568500Y296640D02*
X578500Y286640D01*
X391000Y260640D02*
X411000D01*
X586500Y237140D02*
X587500Y236140D01*
X585750Y197890D02*
X630500D01*
X576500Y207140D02*
X585750Y197890D01*
X600750Y187890D02*
X630500D01*
X586500Y173640D02*
X600750Y187890D01*
X582500Y149640D02*
X630500D01*
X576500Y143640D02*
X582500Y149640D01*
X498000Y159640D02*
X630500D01*
X490000Y151640D02*
X498000Y159640D01*
X281500Y151640D02*
X490000D01*
X587500Y236140D02*
X630500D01*
X329706Y460993D02*
X343147D01*
X322000Y356140D02*
Y453287D01*
X329706Y460993D01*
X560500Y226140D02*
X630500D01*
X284500Y154640D02*
X489000D01*
X560500Y226140D01*
D26*
X154000Y452640D02*
Y455140D01*
X278425Y222565D02*
X283500Y217490D01*
X270000Y214140D02*
X278425Y222565D01*
X144000Y452640D02*
Y455140D01*
X273000Y209140D02*
X275000Y211140D01*
X150500Y312140D02*
X159000Y303640D01*
Y219640D02*
Y303640D01*
Y219640D02*
X186500Y192140D01*
X264000Y236140D02*
X264500Y235640D01*
X258500Y236140D02*
X264000D01*
X263500Y243640D02*
X264500Y244640D01*
X258500Y243640D02*
X263500D01*
X283500Y208140D02*
Y217490D01*
X273500Y208640D02*
X274000D01*
X270000Y209140D02*
Y214140D01*
X275000Y211140D02*
X278000D01*
X273000Y209140D02*
X273500Y208640D01*
X383500Y244140D02*
X392000D01*
X397000Y249140D01*
X448500D01*
X469000Y269640D01*
Y395140D01*
X500000Y293640D02*
Y395140D01*
X139950Y415190D02*
Y447590D01*
Y415190D02*
X146000Y409140D01*
X139950Y447590D02*
X144500Y452140D01*
X163000Y411140D02*
X182000D01*
X144000Y452640D02*
X144500Y452140D01*
X148000Y411140D02*
X163000D01*
X146000Y409140D02*
X148000Y411140D01*
X185500Y378140D02*
Y391140D01*
X173500Y366140D02*
X185500Y378140D01*
X157500Y366140D02*
X173500D01*
X632375Y406640D02*
X648000D01*
X626375Y400640D02*
X632375Y406640D01*
X617500Y400640D02*
X626375D01*
X598500Y381640D02*
X617500Y400640D01*
X163000Y420140D02*
X182000D01*
X154000Y452640D02*
X154500Y452140D01*
X146000Y443640D02*
X154500Y452140D01*
X146000Y422640D02*
Y443640D01*
X160500Y422640D02*
X163000Y420140D01*
X146000Y422640D02*
X160500D01*
X154500Y455140D02*
X159500Y460140D01*
X254000D01*
X259000Y455140D01*
X353500Y449640D02*
Y456655D01*
X349000Y445140D02*
X353500Y449640D01*
X279000Y455140D02*
X289000D01*
X247500Y391140D02*
X253000Y385640D01*
X185500Y391140D02*
X247500D01*
X460000Y400640D02*
X491000D01*
X522500Y400140D02*
X531500D01*
X542000Y410640D01*
X571000Y411640D02*
Y428140D01*
Y411640D02*
X598500Y384140D01*
Y381640D02*
Y384140D01*
X600000Y448140D02*
X601000D01*
X542000Y410640D02*
Y454140D01*
X553000Y465140D01*
X594000D01*
X601000Y458140D01*
X591500Y374640D02*
X598500Y381640D01*
X591500Y356140D02*
Y374640D01*
X598500Y316640D02*
Y328640D01*
X564000Y347140D02*
X568500Y351640D01*
X564000Y291140D02*
Y347140D01*
Y291140D02*
X568500Y286640D01*
X522000Y400640D02*
X522500Y400140D01*
X491000Y400640D02*
X522000D01*
X500000Y293640D02*
X556500Y237140D01*
X568500Y286640D02*
X613000Y242140D01*
X638500D01*
Y226640D02*
Y242140D01*
X619000Y207140D02*
X638500Y226640D01*
X586500Y207140D02*
X619000D01*
X638500Y148640D02*
Y226640D01*
X633500Y143640D02*
X638500Y148640D01*
X586500Y143640D02*
X633500D01*
X353303Y456852D02*
Y456922D01*
Y456852D02*
X353500Y456655D01*
X346085Y464140D02*
X353303Y456922D01*
X289000Y455140D02*
X319000D01*
X328000Y464140D01*
X346085D01*
X456000Y249140D02*
X514500Y190640D01*
X455500Y249140D02*
X456000D01*
X413500Y207140D02*
X455500Y249140D01*
X500000Y293640D01*
X296000Y294640D02*
X298500Y292140D01*
X320500D01*
X259000Y215140D02*
X264000D01*
X265000Y214140D01*
X259000Y221640D02*
X263500D01*
X265000Y223140D01*
Y214140D02*
X270000Y209140D01*
X278500Y206640D02*
Y213140D01*
Y206640D02*
X281500Y203640D01*
X285500D01*
X288500Y206640D01*
Y225640D01*
X270990Y290650D02*
X273500Y288140D01*
X316500D01*
X320500Y292140D01*
X280600Y269740D02*
Y273140D01*
X258500Y243640D02*
Y247640D01*
X265000Y223140D02*
X274000Y232140D01*
X282000D02*
X288500Y225640D01*
X274000Y232140D02*
X278000D01*
X282000D01*
X267500Y256640D02*
X278000Y246140D01*
Y232140D02*
Y246140D01*
X258500Y247640D02*
X267500Y256640D01*
X280600Y269740D01*
X419000Y262140D02*
Y315140D01*
X413000Y256140D02*
X419000Y262140D01*
X387500Y256140D02*
X413000D01*
X316500Y266140D02*
Y288140D01*
Y266140D02*
X341000Y241640D01*
X316500Y228140D02*
Y266140D01*
X307500Y219140D02*
X316500Y228140D01*
X210000Y192140D02*
X231000Y213140D01*
X186500Y192140D02*
X210000D01*
D27*
X675000Y475000D02*
D03*
Y125000D02*
D03*
X125000D02*
D03*
Y475000D02*
D03*
D28*
X140500Y342140D02*
D03*
X150500D02*
D03*
X140500Y332140D02*
D03*
X150500D02*
D03*
X140500Y322140D02*
D03*
X150500D02*
D03*
X140500Y312140D02*
D03*
X283000Y135140D02*
D03*
X630500Y226140D02*
D03*
X154500Y455140D02*
D03*
X630500Y159640D02*
D03*
Y187890D02*
D03*
X289000Y455140D02*
D03*
X279000D02*
D03*
X269000D02*
D03*
X244500D02*
D03*
X234500D02*
D03*
X224500D02*
D03*
X199500D02*
D03*
X189500D02*
D03*
X179500D02*
D03*
X601000Y438140D02*
D03*
Y448140D02*
D03*
Y458140D02*
D03*
X571000Y428140D02*
D03*
Y438140D02*
D03*
Y448140D02*
D03*
Y458140D02*
D03*
X568500Y306640D02*
D03*
Y296640D02*
D03*
Y286640D02*
D03*
X598500Y316640D02*
D03*
Y306640D02*
D03*
Y296640D02*
D03*
Y286640D02*
D03*
X568500Y371640D02*
D03*
Y361640D02*
D03*
Y351640D02*
D03*
X598500Y381640D02*
D03*
Y371640D02*
D03*
Y361640D02*
D03*
Y351640D02*
D03*
X566500Y143640D02*
D03*
X576500D02*
D03*
X586500D02*
D03*
X556500Y173640D02*
D03*
X566500D02*
D03*
X576500D02*
D03*
X586500D02*
D03*
X566500Y207140D02*
D03*
X576500D02*
D03*
X586500D02*
D03*
X556500Y237140D02*
D03*
X566500D02*
D03*
X576500D02*
D03*
X586500D02*
D03*
X191000Y147140D02*
D03*
X181000D02*
D03*
X191000Y157140D02*
D03*
X181000D02*
D03*
X191000Y167140D02*
D03*
X181000D02*
D03*
X191000Y177140D02*
D03*
X399000Y445140D02*
D03*
X389000Y455140D02*
D03*
Y445140D02*
D03*
X379000Y455140D02*
D03*
Y445140D02*
D03*
X369000Y455140D02*
D03*
Y445140D02*
D03*
X359000Y455140D02*
D03*
Y445140D02*
D03*
X349000Y455140D02*
D03*
Y445140D02*
D03*
X339000Y455140D02*
D03*
Y445140D02*
D03*
D29*
X150500Y312140D02*
D03*
X630500Y236140D02*
D03*
Y149640D02*
D03*
Y197890D02*
D03*
X556500Y143640D02*
D03*
Y207140D02*
D03*
X181000Y177140D02*
D03*
D30*
X175000Y252140D02*
D03*
D31*
X145000D02*
D03*
Y272140D02*
D03*
X175000D02*
D03*
D32*
X214500Y257140D02*
D03*
X362000Y217640D02*
D03*
D33*
X273000Y135140D02*
D03*
X144500Y455140D02*
D03*
X259000D02*
D03*
X214500D02*
D03*
X169500D02*
D03*
X601000Y428140D02*
D03*
X568500Y316640D02*
D03*
Y381640D02*
D03*
X399000Y455140D02*
D03*
D34*
X661600Y445840D02*
D03*
X615600D02*
D03*
X638600D02*
D03*
X652000Y438140D02*
D03*
X630200D02*
D03*
D35*
X289000Y335640D02*
D03*
X288800Y329140D02*
D03*
X274000Y208640D02*
D03*
X270000Y209140D02*
D03*
X383500Y244140D02*
D03*
X469000Y395140D02*
D03*
X260000Y283140D02*
D03*
X258500Y236140D02*
D03*
Y243640D02*
D03*
X283500Y208140D02*
D03*
X394000Y290640D02*
D03*
X389000Y292640D02*
D03*
X383500Y295140D02*
D03*
X161000Y394140D02*
D03*
X168000D02*
D03*
X254500Y405640D02*
D03*
X185500Y391140D02*
D03*
X379000Y279140D02*
D03*
X166000Y438640D02*
D03*
X384000Y279140D02*
D03*
X394000D02*
D03*
X389000D02*
D03*
X399000D02*
D03*
X253000Y385640D02*
D03*
X460000Y400640D02*
D03*
X491000D02*
D03*
X522500Y400140D02*
D03*
X593500Y398640D02*
D03*
X591500Y356140D02*
D03*
X598500Y328640D02*
D03*
X391000Y260640D02*
D03*
X411000D02*
D03*
X284500Y154640D02*
D03*
X281500Y151640D02*
D03*
X500000Y395140D02*
D03*
X413500Y207140D02*
D03*
X514500Y190640D02*
D03*
X296000Y294640D02*
D03*
X320500Y292140D02*
D03*
X259000Y215140D02*
D03*
Y221640D02*
D03*
X270990Y290650D02*
D03*
X280600Y273140D02*
D03*
X278000Y232140D02*
D03*
X419000Y315140D02*
D03*
X387500Y256140D02*
D03*
X341000Y241640D02*
D03*
X307500Y219140D02*
D03*
X231000Y213140D02*
D03*
X186500Y192140D02*
D03*
M02*
