G04 Layer_Physical_Order=1*
G04 Layer_Color=255*
%FSLAX25Y25*%
%MOIN*%
G70*
G01*
G75*
%ADD10R,0.06000X0.05000*%
%ADD11R,0.05000X0.06000*%
%ADD12R,0.07500X0.09000*%
%ADD13R,0.05905X0.05118*%
%ADD14R,0.07874X0.05905*%
%ADD15R,0.09000X0.07500*%
%ADD16O,0.05315X0.01968*%
%ADD17R,0.05118X0.05905*%
%ADD18R,0.01575X0.07677*%
%ADD19R,0.31102X0.13780*%
%ADD20R,0.11811X0.35433*%
%ADD21R,0.10000X0.35433*%
%ADD22R,0.06300X0.01180*%
%ADD23R,0.01180X0.06300*%
%ADD24R,0.05118X0.08268*%
%ADD25C,0.01000*%
%ADD26C,0.01500*%
%ADD27C,0.05905*%
%ADD28R,0.05905X0.05905*%
%ADD29C,0.06000*%
%ADD30R,0.05905X0.05905*%
%ADD31C,0.10650*%
%ADD32O,0.10000X0.06000*%
%ADD33R,0.10000X0.06000*%
%ADD34C,0.15000*%
%ADD35C,0.03000*%
D10*
X209500Y147140D02*
D03*
X218500D02*
D03*
X209500Y159640D02*
D03*
X218500D02*
D03*
X209500Y171640D02*
D03*
X218500D02*
D03*
X209500Y184140D02*
D03*
X218500D02*
D03*
X154000Y147140D02*
D03*
X163000D02*
D03*
X154000Y159140D02*
D03*
X163000D02*
D03*
X154000Y171640D02*
D03*
X163000D02*
D03*
X154000Y184140D02*
D03*
X163000D02*
D03*
X469000Y409621D02*
D03*
X460000D02*
D03*
X469000Y422121D02*
D03*
X460000D02*
D03*
X560000Y407640D02*
D03*
X551000D02*
D03*
X624500Y319140D02*
D03*
X633500D02*
D03*
X624500Y384140D02*
D03*
X633500D02*
D03*
X534500D02*
D03*
X543500D02*
D03*
X534500Y319140D02*
D03*
X543500D02*
D03*
X624500Y367890D02*
D03*
X633500D02*
D03*
X624500Y351640D02*
D03*
X633500D02*
D03*
X543500D02*
D03*
X534500D02*
D03*
Y367890D02*
D03*
X543500D02*
D03*
X551000Y419140D02*
D03*
X560000D02*
D03*
X624500Y302890D02*
D03*
X633500D02*
D03*
X624500Y286640D02*
D03*
X633500D02*
D03*
X543500Y302890D02*
D03*
X534500D02*
D03*
X543500Y286640D02*
D03*
X534500D02*
D03*
X531500Y422121D02*
D03*
X522500D02*
D03*
X531500Y409621D02*
D03*
X522500D02*
D03*
X500000Y422121D02*
D03*
X491000D02*
D03*
X500000Y409621D02*
D03*
X491000D02*
D03*
X249500Y423140D02*
D03*
X240500D02*
D03*
X273500D02*
D03*
X264500D02*
D03*
X387000Y210640D02*
D03*
X378000D02*
D03*
X387000Y222140D02*
D03*
X378000D02*
D03*
Y233640D02*
D03*
X387000D02*
D03*
X362000Y283140D02*
D03*
X371000D02*
D03*
X360500Y245640D02*
D03*
X369500D02*
D03*
Y257640D02*
D03*
X378500D02*
D03*
X243500Y275140D02*
D03*
X234500D02*
D03*
X242500Y266640D02*
D03*
X233000D02*
D03*
D11*
X380000Y421640D02*
D03*
Y430640D02*
D03*
X484000Y312140D02*
D03*
Y303140D02*
D03*
X556500Y383640D02*
D03*
Y374640D02*
D03*
Y318640D02*
D03*
Y309640D02*
D03*
Y352140D02*
D03*
Y361140D02*
D03*
X610500Y352140D02*
D03*
Y361140D02*
D03*
Y383640D02*
D03*
Y374640D02*
D03*
Y287140D02*
D03*
Y296140D02*
D03*
X556500Y287140D02*
D03*
Y296140D02*
D03*
X610500Y318640D02*
D03*
Y309640D02*
D03*
X536000Y238640D02*
D03*
Y229640D02*
D03*
Y175640D02*
D03*
Y166640D02*
D03*
X321000Y308640D02*
D03*
Y317640D02*
D03*
X299500Y309140D02*
D03*
Y318140D02*
D03*
X269000Y309140D02*
D03*
Y318140D02*
D03*
X367500Y421640D02*
D03*
Y430640D02*
D03*
X355000Y421640D02*
D03*
Y430640D02*
D03*
X363500Y407640D02*
D03*
Y398640D02*
D03*
X351000D02*
D03*
Y407640D02*
D03*
X402000Y398640D02*
D03*
Y407640D02*
D03*
X392000Y430640D02*
D03*
Y421640D02*
D03*
X338500Y398640D02*
D03*
Y407640D02*
D03*
X389500Y398640D02*
D03*
Y407640D02*
D03*
X376500Y398640D02*
D03*
Y407640D02*
D03*
X262500Y190640D02*
D03*
Y181640D02*
D03*
X286500Y190640D02*
D03*
Y181640D02*
D03*
X302000Y190640D02*
D03*
Y181640D02*
D03*
X314000Y190640D02*
D03*
Y181640D02*
D03*
X334500Y308640D02*
D03*
Y317640D02*
D03*
X307500Y310640D02*
D03*
Y319640D02*
D03*
X279500Y309640D02*
D03*
Y318640D02*
D03*
X523000Y238640D02*
D03*
Y229640D02*
D03*
Y214640D02*
D03*
Y205640D02*
D03*
X536000Y214640D02*
D03*
Y205640D02*
D03*
X521000Y175640D02*
D03*
Y166640D02*
D03*
Y151640D02*
D03*
Y142640D02*
D03*
X536000Y151640D02*
D03*
Y142640D02*
D03*
X225500Y371640D02*
D03*
Y380640D02*
D03*
X289500Y309140D02*
D03*
Y318140D02*
D03*
X174000Y307140D02*
D03*
Y298140D02*
D03*
X188500D02*
D03*
Y307140D02*
D03*
D12*
X474500Y437621D02*
D03*
X461000D02*
D03*
X226500Y240140D02*
D03*
X240000D02*
D03*
X537000Y437621D02*
D03*
X523500D02*
D03*
X505500D02*
D03*
X492000D02*
D03*
D13*
X443000Y455140D02*
D03*
Y447660D02*
D03*
D14*
X266000Y406140D02*
D03*
X241591D02*
D03*
D15*
X202500Y408140D02*
D03*
Y421640D02*
D03*
X221000Y408140D02*
D03*
Y421640D02*
D03*
D16*
X452240Y310979D02*
D03*
Y308420D02*
D03*
Y305861D02*
D03*
Y303302D02*
D03*
X469760Y310979D02*
D03*
Y308420D02*
D03*
Y305861D02*
D03*
Y303302D02*
D03*
D17*
X521427Y452121D02*
D03*
X528908D02*
D03*
X458927D02*
D03*
X466408D02*
D03*
X489927D02*
D03*
X497408D02*
D03*
D18*
X153102Y403418D02*
D03*
X155622D02*
D03*
X158142D02*
D03*
X160661D02*
D03*
X163181D02*
D03*
X165701D02*
D03*
X168221D02*
D03*
X170740D02*
D03*
X173260D02*
D03*
X175799Y403390D02*
D03*
X153102Y429890D02*
D03*
X155622D02*
D03*
X158142D02*
D03*
X160661D02*
D03*
X163181D02*
D03*
X165701D02*
D03*
X168221D02*
D03*
X170740D02*
D03*
X173260D02*
D03*
X175799D02*
D03*
X178299Y429890D02*
D03*
X178299Y403390D02*
D03*
X150299Y429890D02*
D03*
Y403390D02*
D03*
D19*
X164799Y416390D02*
D03*
D20*
X145299D02*
D03*
D21*
X182701Y416890D02*
D03*
D22*
X251890Y208250D02*
D03*
Y210220D02*
D03*
Y212180D02*
D03*
Y214150D02*
D03*
Y216120D02*
D03*
Y218090D02*
D03*
Y220060D02*
D03*
Y222030D02*
D03*
Y224000D02*
D03*
Y225960D02*
D03*
Y227930D02*
D03*
Y229900D02*
D03*
Y231870D02*
D03*
Y233840D02*
D03*
Y235810D02*
D03*
Y237770D02*
D03*
Y239740D02*
D03*
Y241710D02*
D03*
Y243680D02*
D03*
Y245650D02*
D03*
Y247620D02*
D03*
Y249590D02*
D03*
Y251550D02*
D03*
Y253520D02*
D03*
Y255490D02*
D03*
Y257460D02*
D03*
Y259430D02*
D03*
Y261400D02*
D03*
Y263370D02*
D03*
Y265330D02*
D03*
Y267300D02*
D03*
Y269270D02*
D03*
Y271240D02*
D03*
Y273210D02*
D03*
Y275180D02*
D03*
Y277140D02*
D03*
Y279110D02*
D03*
Y281080D02*
D03*
Y283050D02*
D03*
Y285020D02*
D03*
Y286990D02*
D03*
Y288960D02*
D03*
Y290920D02*
D03*
Y292890D02*
D03*
X351110D02*
D03*
Y290920D02*
D03*
Y288960D02*
D03*
Y286990D02*
D03*
Y285020D02*
D03*
Y283050D02*
D03*
Y281080D02*
D03*
Y279110D02*
D03*
Y277140D02*
D03*
Y275180D02*
D03*
Y273210D02*
D03*
Y271240D02*
D03*
Y269270D02*
D03*
Y267300D02*
D03*
Y265330D02*
D03*
Y263370D02*
D03*
Y261400D02*
D03*
Y259430D02*
D03*
Y257460D02*
D03*
Y255490D02*
D03*
Y251550D02*
D03*
Y249590D02*
D03*
Y243680D02*
D03*
Y239740D02*
D03*
Y237770D02*
D03*
Y235810D02*
D03*
Y233840D02*
D03*
Y231870D02*
D03*
Y229900D02*
D03*
Y227930D02*
D03*
Y225960D02*
D03*
Y224000D02*
D03*
Y222030D02*
D03*
Y220060D02*
D03*
Y218090D02*
D03*
Y216120D02*
D03*
Y214150D02*
D03*
Y212180D02*
D03*
Y210220D02*
D03*
Y208250D02*
D03*
Y241710D02*
D03*
Y245650D02*
D03*
Y247620D02*
D03*
Y253520D02*
D03*
D23*
X259180Y300180D02*
D03*
X261150D02*
D03*
X263110D02*
D03*
X265080D02*
D03*
X267050D02*
D03*
X269020D02*
D03*
X270990D02*
D03*
X272960D02*
D03*
X274930D02*
D03*
X276890D02*
D03*
X278860D02*
D03*
X280830D02*
D03*
X282800D02*
D03*
X284770D02*
D03*
X286740D02*
D03*
X288700D02*
D03*
X290670D02*
D03*
X292640D02*
D03*
X294610D02*
D03*
X296580D02*
D03*
X298550D02*
D03*
X300520D02*
D03*
X302480D02*
D03*
X304450D02*
D03*
X306420D02*
D03*
X308390D02*
D03*
X310360D02*
D03*
X312330D02*
D03*
X314300D02*
D03*
X316260D02*
D03*
X318230D02*
D03*
X320200D02*
D03*
X322170D02*
D03*
X324140D02*
D03*
X326110D02*
D03*
X328070D02*
D03*
X330040D02*
D03*
X332010D02*
D03*
X333980D02*
D03*
X335950D02*
D03*
X337920D02*
D03*
X339890D02*
D03*
X341850D02*
D03*
X343820D02*
D03*
Y200960D02*
D03*
X339890D02*
D03*
X337920D02*
D03*
X335950D02*
D03*
X333980D02*
D03*
X332010D02*
D03*
X330040D02*
D03*
X328070D02*
D03*
X326110D02*
D03*
X324140D02*
D03*
X322170D02*
D03*
X320200D02*
D03*
X318230D02*
D03*
X316260D02*
D03*
X314300D02*
D03*
X308390D02*
D03*
X306420D02*
D03*
X304450D02*
D03*
X302480D02*
D03*
X300520D02*
D03*
X298550D02*
D03*
X296580D02*
D03*
X294610D02*
D03*
X292640D02*
D03*
X290670D02*
D03*
X288700D02*
D03*
X286740D02*
D03*
X284770D02*
D03*
X282800D02*
D03*
X280830D02*
D03*
X278860D02*
D03*
X276890D02*
D03*
X274930D02*
D03*
X272960D02*
D03*
X270990D02*
D03*
X269020D02*
D03*
X267050D02*
D03*
X265080D02*
D03*
X263110D02*
D03*
X261150D02*
D03*
X259180D02*
D03*
X310360D02*
D03*
X312330D02*
D03*
X341850D02*
D03*
D24*
X263500Y368530D02*
D03*
X243500D02*
D03*
Y386640D02*
D03*
X263500D02*
D03*
D25*
X608000Y287140D02*
X610500D01*
X598500Y296640D02*
X608000Y287140D01*
Y352140D02*
X610500D01*
X598500Y361640D02*
X608000Y352140D01*
X237920Y220060D02*
X251890D01*
X230790Y221930D02*
X251780D01*
X209500Y200640D02*
X230790Y221930D01*
X209500Y184140D02*
Y200640D01*
X342900Y239740D02*
X351110D01*
X314300Y300180D02*
X316150D01*
X296580D02*
Y305005D01*
X351110Y229900D02*
X360437D01*
X351110Y275180D02*
X380040D01*
X251910Y220080D02*
X256380D01*
X251890Y241710D02*
X256570D01*
X251920Y273180D02*
X260470D01*
X274930Y200960D02*
Y205286D01*
X351110Y259430D02*
X367710D01*
X351110Y285020D02*
X360120D01*
X280800Y300210D02*
Y303889D01*
X308360Y300210D02*
Y308280D01*
X335950Y300180D02*
Y307190D01*
X346210Y259430D02*
X351110D01*
X342120Y285020D02*
X351110D01*
X318260Y200990D02*
Y210900D01*
X351140Y235780D02*
X365860D01*
X251890Y283050D02*
X259910D01*
X324150Y200970D02*
Y204649D01*
X351110Y263370D02*
X402287D01*
X351110Y271240D02*
X386100D01*
X351110Y288960D02*
X361557D01*
X351110Y290920D02*
X360780D01*
X351110Y261400D02*
X390240D01*
X351110Y277140D02*
X377000D01*
X351110Y286990D02*
X361850D01*
X312330Y300180D02*
Y303945D01*
X322170Y200960D02*
Y210810D01*
X332020Y200980D02*
Y204649D01*
X341850Y200960D02*
Y204790D01*
X265080Y200960D02*
Y209720D01*
X251890Y251550D02*
X258410D01*
X251890Y281080D02*
X258030D01*
X286740Y200960D02*
Y211400D01*
X302460Y200980D02*
Y208680D01*
X351110Y239740D02*
X358100D01*
X288730Y300210D02*
Y303889D01*
X270990Y300180D02*
Y307150D01*
X320200Y300180D02*
Y307840D01*
X237910Y251550D02*
X251890D01*
X249274Y281080D02*
X251890D01*
X351110Y269270D02*
X389130D01*
X251890Y218090D02*
X256050D01*
X263110Y200960D02*
Y211910D01*
X272930Y200990D02*
Y204669D01*
X251890Y227930D02*
X279000D01*
X251920Y239710D02*
X258000D01*
X251890Y271240D02*
X259400D01*
X272960Y300180D02*
Y314180D01*
X316290Y200990D02*
Y211770D01*
X351110Y237770D02*
X361630D01*
X351110Y257460D02*
X362271D01*
X351110Y283050D02*
X355911D01*
X282800Y300180D02*
Y304981D01*
X286740Y300180D02*
Y304491D01*
X306390Y300210D02*
Y304750D01*
X310360Y300180D02*
Y304591D01*
X338100Y300360D02*
Y305240D01*
X263110Y196750D02*
Y200960D01*
X247156Y271240D02*
X251890D01*
X310360Y295780D02*
Y300180D01*
X345690Y257460D02*
X351110D01*
Y273210D02*
X382930D01*
X240400Y239740D02*
X251890D01*
X276780Y193860D02*
Y200860D01*
Y193860D02*
X279500Y191140D01*
X335500Y237750D02*
X349290D01*
X257370Y267270D02*
X260500Y264140D01*
X258030Y281080D02*
X259969Y279140D01*
X256380Y220080D02*
X257940Y221640D01*
X256050Y218090D02*
X259000Y215140D01*
X333870Y190770D02*
Y200860D01*
X335840Y190800D02*
Y200860D01*
X266940Y187200D02*
Y200860D01*
X245900Y273240D02*
X251860D01*
X280830Y294840D02*
Y300180D01*
X308360Y294731D02*
Y300150D01*
X335950Y295090D02*
Y300180D01*
X343140Y235780D02*
X351080D01*
X244540Y212180D02*
X251890D01*
X270880Y189260D02*
Y200860D01*
X327751Y208250D02*
X351110D01*
X337810Y191330D02*
Y200860D01*
X339780Y192360D02*
Y200860D01*
X243510Y214150D02*
X251890D01*
X320170Y195970D02*
Y200860D01*
X328070Y196710D02*
Y200860D01*
X343710Y193930D02*
Y200860D01*
X240680Y225960D02*
X251890D01*
X265080Y193220D02*
Y200960D01*
X286740Y190880D02*
Y200960D01*
X302480Y191120D02*
Y200960D01*
X314270Y190910D02*
Y200930D01*
X288730Y295910D02*
Y300150D01*
X320230Y292410D02*
Y300150D01*
X248091Y227810D02*
Y227900D01*
X251860D01*
X248181Y249560D02*
X251860D01*
X247089Y265330D02*
X251890D01*
X300490Y197251D02*
Y200930D01*
X282830Y295810D02*
Y300150D01*
X306390Y295471D02*
Y300150D01*
X242480Y216120D02*
X251890D01*
X351110Y235810D02*
X351140Y235780D01*
X351390Y255210D02*
X361430D01*
X351110Y255490D02*
X351390Y255210D01*
X351250Y212140D02*
X367000D01*
X280800Y300210D02*
X280830Y300180D01*
X308360Y300210D02*
X308390Y300180D01*
X306390Y300210D02*
X306420Y300180D01*
X304544Y306540D02*
X304600D01*
X303900Y307185D02*
X304544Y306540D01*
X303900Y307185D02*
Y307240D01*
X303500Y307640D02*
X303900Y307240D01*
X303500Y307640D02*
Y312549D01*
X302589Y294640D02*
X304420Y296471D01*
X288730Y295910D02*
X290000Y294640D01*
X308360Y294731D02*
X308490Y294601D01*
X367000Y212140D02*
X369020Y210120D01*
X225000Y195640D02*
X243510Y214150D01*
X225000Y144640D02*
Y195640D01*
X214400Y188040D02*
X242480Y216120D01*
X214400Y181184D02*
Y188040D01*
Y181184D02*
X214600Y180984D01*
Y176740D02*
Y180984D01*
X222000Y141640D02*
X225000Y144640D01*
X215500Y141640D02*
X222000D01*
X214000Y143140D02*
X215500Y141640D01*
X214000Y143140D02*
Y155140D01*
X209500Y159640D02*
X214000Y155140D01*
X227500Y195140D02*
X244540Y212180D01*
X227500Y138140D02*
Y195140D01*
X211500Y138140D02*
X227500D01*
X209500Y140140D02*
X211500Y138140D01*
X209500Y140140D02*
Y147140D01*
X402287Y263370D02*
X449621Y310704D01*
X382930Y273210D02*
X388860Y279140D01*
X389000D01*
X389130Y269270D02*
X399000Y279140D01*
X386100Y271240D02*
X394000Y279140D01*
X380040Y275180D02*
X384000Y279140D01*
X377000Y277140D02*
X379000Y279140D01*
X359500Y227720D02*
X359610D01*
X373190Y214140D01*
X374500D01*
X378000Y210640D01*
X360437Y229900D02*
X368197Y222140D01*
X378000D01*
X275000Y143140D02*
Y182140D01*
X269000Y188140D02*
X275000Y182140D01*
Y143140D02*
X283000Y135140D01*
X272600Y135540D02*
Y181540D01*
Y135540D02*
X273000Y135140D01*
X266940Y187200D02*
X272600Y181540D01*
X270880Y189260D02*
X277500Y182640D01*
Y155640D02*
Y182640D01*
Y155640D02*
X281500Y151640D01*
X279500Y159640D02*
Y191140D01*
Y159640D02*
X284500Y154640D01*
X476697Y182140D02*
X483197Y175640D01*
X344500Y182140D02*
X476697D01*
X335840Y190800D02*
X344500Y182140D01*
X476934Y179640D02*
X504934Y151640D01*
X344737Y179640D02*
X476934D01*
X334240Y190137D02*
X344737Y179640D01*
X334240Y190137D02*
Y190400D01*
X333870Y190770D02*
X334240Y190400D01*
X470500Y186140D02*
X523000Y238640D01*
X346000Y186140D02*
X470500D01*
X339780Y192360D02*
X346000Y186140D01*
X358780Y225860D02*
X362000Y222640D01*
Y217640D02*
Y222640D01*
X376130Y231770D02*
X378000Y233640D01*
X209500Y171640D02*
X214600Y176740D01*
X337810Y191330D02*
X345100Y184040D01*
X492400D01*
X523000Y214640D01*
X483197Y175640D02*
X521000D01*
X504934Y151640D02*
X521000D01*
X536000Y229640D02*
X559000D01*
X536000Y205640D02*
X555000D01*
X556500Y207140D01*
X566500D01*
X536000Y166640D02*
X559500D01*
X566500Y173640D01*
X576500D01*
X536000Y142640D02*
X537000Y143640D01*
X521000Y175640D02*
X536000D01*
X521000Y151640D02*
X536000D01*
X523000Y214640D02*
X536000D01*
X523000Y238640D02*
X536000D01*
X179000Y159140D02*
X181000Y157140D01*
X163000Y159140D02*
X179000D01*
X176500Y171640D02*
X181000Y167140D01*
X163000Y171640D02*
X176500D01*
X174000Y184140D02*
X181000Y177140D01*
X163000Y184140D02*
X174000D01*
X191000Y157140D02*
X193500Y159640D01*
X209500D01*
X191000Y167140D02*
X195500Y171640D01*
X209500D01*
X191000Y177140D02*
X198000Y184140D01*
X209500D01*
X390240Y261400D02*
X391000Y260640D01*
X411000D02*
Y266965D01*
X449621Y310704D02*
X451965D01*
X411000Y266965D02*
X449621Y305586D01*
X451965D01*
X452240Y305861D01*
X449621Y308145D02*
X451965D01*
X452240Y308420D01*
X451965Y310704D02*
X452240Y310979D01*
X469760Y305861D02*
X470035Y306135D01*
X473524D01*
X475029Y307640D01*
X491500D01*
X556000Y286640D02*
X556500Y287140D01*
X568500Y316640D02*
Y318640D01*
X575000Y325140D01*
X618500D01*
X534500Y319140D02*
X545000Y329640D01*
X556500D01*
X598500Y371640D01*
X618500Y325140D02*
X624500Y319140D01*
X619000Y389640D02*
X624500Y384140D01*
X576500Y389640D02*
X619000D01*
X568500Y381640D02*
X576500Y389640D01*
X534500Y351640D02*
X543500Y360640D01*
Y367890D01*
X639500Y296890D02*
X641500Y298890D01*
Y349640D01*
X601000Y428140D02*
Y438140D01*
X534500Y384140D02*
X549000Y398640D01*
X593500D01*
X560000Y419140D02*
Y447140D01*
X571000Y458140D01*
X225500Y371640D02*
X239500Y357640D01*
X225500Y380640D02*
X231390D01*
X243500Y368530D01*
X560000Y407640D02*
Y419140D01*
X344500Y459640D02*
X349000Y455140D01*
X335500Y459640D02*
X344500D01*
X331500Y455640D02*
X335500Y459640D01*
X331500Y414640D02*
Y455640D01*
X344000Y430403D02*
Y450140D01*
X339000Y455140D02*
X344000Y450140D01*
X349000Y455140D02*
X359000D01*
X392000Y421640D02*
X399000Y428640D01*
X380000Y421640D02*
X392000D01*
X355000Y411640D02*
Y421640D01*
X351000Y407640D02*
X355000Y411640D01*
X367500D02*
Y421140D01*
X363500Y407640D02*
X367500Y411640D01*
X348063Y426340D02*
X362300D01*
X350500Y421640D02*
X355000D01*
X394500Y415140D02*
X404000Y424640D01*
X388000Y415140D02*
X394500D01*
X380500Y407640D02*
X388000Y415140D01*
X376500Y407640D02*
X380500D01*
X404000Y424640D02*
Y450140D01*
X407600Y413240D02*
Y457540D01*
X403500Y461640D02*
X407600Y457540D01*
X402000Y407640D02*
X407600Y413240D01*
X385500Y461640D02*
X403500D01*
X379000Y455140D02*
X385500Y461640D01*
X402500Y459640D02*
X406000Y456140D01*
X393500Y459640D02*
X402500D01*
X389000Y455140D02*
X393500Y459640D01*
X406000Y424140D02*
Y456140D01*
X389500Y407640D02*
X406000Y424140D01*
X399000Y455140D02*
X404000Y450140D01*
X399000Y428640D02*
Y445140D01*
X331500Y414640D02*
X338500Y407640D01*
X344000Y430403D02*
X348063Y426340D01*
X339000Y433140D02*
X350500Y421640D01*
X339000Y433140D02*
Y445140D01*
X163181Y418008D02*
Y429890D01*
X158142Y423047D02*
Y429890D01*
X633500Y302890D02*
X639500Y296890D01*
Y283640D02*
Y296890D01*
X638000Y282140D02*
X639500Y283640D01*
X603000Y282140D02*
X638000D01*
X598500Y286640D02*
X603000Y282140D01*
X528500Y296890D02*
X534500Y302890D01*
X528500Y284140D02*
Y296890D01*
X564000Y292095D02*
X568500Y296595D01*
Y296640D01*
X633500Y367890D02*
X641500Y359890D01*
Y349640D02*
Y359890D01*
X637500Y345640D02*
X641500Y349640D01*
X604500Y345640D02*
X637500D01*
X598500Y351640D02*
X604500Y345640D01*
X528000Y361390D02*
X534500Y367890D01*
X528000Y349640D02*
Y361390D01*
Y349640D02*
X530000Y347640D01*
X563000Y356095D02*
X568500Y361595D01*
Y361640D01*
X610500Y287140D02*
X611000Y286640D01*
X624500D01*
Y295640D02*
X633500Y286640D01*
X624500Y295640D02*
Y302890D01*
Y310140D02*
X633500Y319140D01*
X624500Y302890D02*
Y310140D01*
X617750Y309640D02*
X624500Y302890D01*
X610500Y309640D02*
X617750D01*
X600000Y306640D02*
X610500Y296140D01*
X598500Y306640D02*
X600000D01*
X598500D02*
X610500Y318640D01*
X624000Y352140D02*
X624500Y351640D01*
X610500Y352140D02*
X624000D01*
X598500Y371640D02*
X600000D01*
X610500Y361140D01*
X624500Y360640D02*
X633500Y351640D01*
X624500Y360640D02*
Y367890D01*
Y375140D02*
X633500Y384140D01*
X624500Y367890D02*
Y375140D01*
X617750Y374640D02*
X624500Y367890D01*
X610500Y374640D02*
X617750D01*
X598500Y371640D02*
X610500Y383640D01*
X556500Y287140D02*
X563000Y293640D01*
Y301140D01*
X568500Y306640D01*
X556500Y352140D02*
X563000Y358640D01*
Y366140D01*
X568500Y371640D01*
Y313640D02*
Y316640D01*
X556500Y301640D02*
X568500Y313640D01*
X556500Y296140D02*
Y301640D01*
X543500Y286640D02*
X556000D01*
X534500D02*
X543500Y295640D01*
Y302890D01*
Y319140D01*
X553000Y309640D01*
X556500D01*
Y318640D02*
X558500Y316640D01*
X568500D01*
Y378140D02*
Y381640D01*
X556500Y366140D02*
X568500Y378140D01*
X556500Y361140D02*
Y366140D01*
X556000Y351640D02*
X556500Y352140D01*
X543500Y351640D02*
X556000D01*
X543500Y367890D02*
Y384140D01*
X553000Y374640D01*
X556500D01*
Y383640D02*
X558500Y381640D01*
X568500D01*
X153102Y403418D02*
X155622D01*
Y392018D02*
Y403418D01*
X158142D01*
X173260D02*
X175772D01*
X170740D02*
X173260D01*
Y392880D02*
Y403418D01*
X175772D02*
X175799Y403390D01*
X153102Y429890D02*
X155622D01*
X153102D02*
Y448538D01*
X173260Y429890D02*
X175799D01*
Y441439D01*
X165701Y429890D02*
X166000Y430189D01*
Y438640D01*
X242091Y405640D02*
X254500D01*
X241591Y406140D02*
X242091Y405640D01*
X249500Y423140D02*
X264500D01*
X165701Y396439D02*
X168000Y394140D01*
X165701Y396439D02*
Y403418D01*
X161000Y394140D02*
X163181Y396321D01*
Y403418D01*
X283820Y196460D02*
X284740D01*
X299320D02*
X299699D01*
X300490Y197251D01*
X316370Y196270D02*
X318000Y194640D01*
X247390Y248769D02*
X248181Y249560D01*
X247390Y247530D02*
Y248769D01*
X243830Y227810D02*
X248091D01*
X365000Y295140D02*
X383500D01*
X360780Y290920D02*
X365000Y295140D01*
X388900Y292540D02*
X389000Y292640D01*
X365137Y292540D02*
X388900D01*
X361557Y288960D02*
X365137Y292540D01*
X393400Y290040D02*
X394000Y290640D01*
X364900Y290040D02*
X393400D01*
X361850Y286990D02*
X364900Y290040D01*
X297500Y194640D02*
X299320Y196460D01*
X282000Y194640D02*
X283820Y196460D01*
X361430Y255210D02*
X366000Y250640D01*
X392116D01*
X449621Y308145D01*
X261500Y195140D02*
X263110Y196750D01*
X530000Y347640D02*
X560500D01*
X563000Y350140D01*
Y356095D01*
X246850Y263581D02*
Y265091D01*
X247089Y265330D01*
X245409Y262140D02*
X246850Y263581D01*
X246956Y271040D02*
X247156Y271240D01*
X238100Y271040D02*
X246956D01*
X246030Y281110D02*
X249304D01*
X249274Y281080D02*
X249304Y281110D01*
X250405Y279140D02*
X250860D01*
X250830Y279110D02*
X250860Y279140D01*
X310360Y304591D02*
X311350Y305581D01*
X307500Y309140D02*
X308360Y308280D01*
X304600Y306540D02*
X306390Y304750D01*
X299500Y308809D02*
X304420Y303889D01*
X312330Y303945D02*
X313000Y304615D01*
X308000Y317640D02*
X310400Y315240D01*
X310456D01*
X311100Y314596D01*
Y314540D02*
Y314596D01*
Y314540D02*
X311350Y314290D01*
Y305581D02*
Y314290D01*
X313000Y304615D02*
Y322140D01*
X295600Y305984D02*
X296580Y305005D01*
X285650Y305581D02*
X286740Y304491D01*
X289500Y304659D02*
Y309140D01*
X288730Y303889D02*
X289500Y304659D01*
X288700Y300180D02*
X288730Y300210D01*
X282800Y304981D02*
X283350Y305531D01*
X279500Y305189D02*
X280800Y303889D01*
X269000Y309140D02*
X270990Y307150D01*
X338350Y305490D02*
Y313790D01*
X338100Y305240D02*
X338350Y305490D01*
X337920Y300180D02*
X338100Y300360D01*
X355911Y283050D02*
X357650Y281311D01*
Y280081D02*
Y281311D01*
Y280081D02*
X358591Y279140D01*
X362271Y257460D02*
X366591Y253140D01*
X243500Y283140D02*
X244000D01*
X246030Y281110D01*
X244500Y274640D02*
X245900Y273240D01*
X295600Y305984D02*
Y330040D01*
X259910Y283050D02*
X260000Y283140D01*
X572000Y280140D02*
X598500Y306640D01*
X519000Y280140D02*
X572000D01*
X491500Y307640D02*
X519000Y280140D01*
X528500Y284140D02*
X530500Y282140D01*
X562500D01*
X564000Y283640D01*
Y292095D01*
X559000Y229640D02*
X566500Y237140D01*
X576500D01*
X332020Y204649D02*
X333661Y206290D01*
X340350D01*
X341850Y204790D01*
X324150Y204649D02*
X327751Y208250D01*
X324140Y200960D02*
X324150Y200970D01*
X327000Y195640D02*
X328070Y196710D01*
X365860Y235780D02*
X366000Y235640D01*
X320170Y195970D02*
X320500Y195640D01*
X163000Y147140D02*
X181000D01*
X191000D02*
X209500D01*
X320500Y195640D02*
X327000D01*
X274000Y206216D02*
X274930Y205286D01*
X269000Y188140D02*
Y200770D01*
X351990Y208140D02*
X367500D01*
X274000Y206216D02*
Y208640D01*
X270000Y207599D02*
X272930Y204669D01*
X270000Y207599D02*
Y209140D01*
X256570Y241710D02*
X258500Y243640D01*
X300490Y200930D02*
X300520Y200960D01*
X251860Y227900D02*
X251890Y227930D01*
X314270Y200930D02*
X314300Y200960D01*
X345170Y233810D02*
X349440D01*
X282830Y295810D02*
X287000Y291640D01*
X537000Y143640D02*
X556500D01*
X566500D01*
X277500Y357640D02*
X313000Y322140D01*
X239500Y357640D02*
X277500D01*
X238530Y279110D02*
X250830D01*
X188500Y307140D02*
X189000Y306640D01*
X192500D01*
X198000Y301140D01*
Y295140D02*
Y301140D01*
X175000Y272140D02*
X198000Y295140D01*
X150500Y322140D02*
X159000D01*
X174000Y307140D01*
X150500Y332140D02*
X163500D01*
X188500Y307140D01*
X294000Y305322D02*
Y323940D01*
Y305322D02*
X294610Y304712D01*
Y300180D02*
Y304712D01*
X288800Y329140D02*
X294000Y323940D01*
X290000Y335640D02*
X295600Y330040D01*
X289000Y335640D02*
X290000D01*
X320170Y200860D02*
X322060D01*
X326000D02*
X328070D01*
X331900D01*
X332020Y200980D01*
X341740Y200860D02*
X343710D01*
X351000Y210120D02*
X351250D01*
Y212140D01*
X351000Y210120D02*
Y223900D01*
Y233740D02*
X369600D01*
X351000Y225860D02*
X358780D01*
X242500Y267270D02*
X257370D01*
X304420Y296471D02*
Y303889D01*
X362300Y426340D02*
X367500Y421140D01*
X243500Y274640D02*
X244500D01*
X268910Y200860D02*
X269000Y200770D01*
X351000Y227830D02*
X359500D01*
X316370Y196270D02*
Y200960D01*
X284740Y196460D02*
Y206900D01*
X286760Y294910D02*
Y300180D01*
X316150Y295790D02*
Y300180D01*
Y312790D01*
X308000Y317640D02*
Y321140D01*
X351000Y231770D02*
X376130D01*
D26*
X218500Y165640D02*
Y171640D01*
Y159640D02*
Y165640D01*
X203000D02*
X218500D01*
X200000Y162640D02*
X203000Y165640D01*
X189000Y162640D02*
X200000D01*
X186500Y165140D02*
X189000Y162640D01*
X186500Y165140D02*
Y192140D01*
X231000Y213140D02*
X237920Y220060D01*
X297000Y214140D02*
X302500D01*
X307500Y219140D01*
X341000Y241640D02*
X342900Y239740D01*
X335500Y237750D02*
Y247140D01*
Y231110D02*
Y237750D01*
X342140Y253780D02*
X345690Y257330D01*
X335500Y247140D02*
X342140Y253780D01*
X332030Y227640D02*
X335500Y231110D01*
X386180Y257460D02*
X387500Y256140D01*
X316160Y211770D02*
X332030Y227640D01*
X318260Y210900D02*
X343140Y235780D01*
X322170Y210810D02*
X345170Y233810D01*
X297000Y289540D02*
X303429D01*
X286130D02*
X297000D01*
X260470Y273140D02*
X280600D01*
X297000Y289540D01*
X276860Y253780D02*
X342140D01*
X259400Y271240D02*
X276860Y253780D01*
X297000Y214140D02*
X302460Y208680D01*
X284000Y214140D02*
X297000D01*
X240000Y240140D02*
X240400Y239740D01*
X279000Y227930D02*
X331740D01*
X262980Y211910D02*
X279000Y227930D01*
X331740D02*
X332030Y227640D01*
X342120Y263520D02*
X346210Y259430D01*
X342120Y263520D02*
Y285020D01*
X269000Y318140D02*
X269500Y318640D01*
X279500D01*
X398500Y294640D02*
X419000Y315140D01*
Y439140D01*
X435000Y455140D01*
X443000D01*
X260500Y253640D02*
Y264140D01*
X258410Y251550D02*
X260500Y253640D01*
X233000Y266640D02*
X234500Y268140D01*
Y274640D01*
X270990Y285130D02*
Y290650D01*
X265015Y279155D02*
X270990Y285130D01*
X259985Y279155D02*
X265015D01*
X259969Y279140D02*
X259985Y279155D01*
X226500Y240140D02*
Y309140D01*
X257940Y221640D02*
X259000D01*
X334000Y293140D02*
X335950Y295090D01*
X327000Y286140D02*
X334000Y293140D01*
X342120Y285020D01*
X306829Y286140D02*
X327000D01*
X303429Y289540D02*
X306829Y286140D01*
X320230Y292410D02*
X320500Y292140D01*
X296000Y294640D02*
X302589D01*
X290000D02*
X296000D01*
X299500Y318140D02*
X301000Y319640D01*
X307500D01*
X315500Y295140D02*
X316150Y295790D01*
X311000Y295140D02*
X315500D01*
X310360Y295780D02*
X311000Y295140D01*
X394910Y283050D02*
X398500Y286640D01*
Y294640D01*
X375500Y317640D02*
X398500Y294640D01*
X334500Y317640D02*
X375500D01*
X327500Y315640D02*
X334500Y308640D01*
X327500Y315640D02*
Y322640D01*
X281610Y368530D02*
X327500Y322640D01*
X263500Y368530D02*
X281610D01*
X277500Y361140D02*
X321000Y317640D01*
X243500Y379140D02*
Y386640D01*
X275500Y398640D02*
X338500D01*
X263500Y386640D02*
X275500Y398640D01*
X514500Y190640D02*
X539500D01*
X556500Y173640D01*
X517000Y345140D02*
X529000D01*
X303429Y289540D02*
X308490Y294601D01*
X522928Y446140D02*
X528908Y452121D01*
X518000Y446140D02*
X522928D01*
X512000Y440140D02*
X518000Y446140D01*
X512000Y368140D02*
Y440140D01*
X367500Y208140D02*
X374000Y201640D01*
X408000D01*
X413500Y207140D01*
X277500Y413640D02*
X284000Y420140D01*
X226500Y413640D02*
X277500D01*
X221000Y408140D02*
X226500Y413640D01*
X289000Y418640D02*
Y455140D01*
X276500Y406140D02*
X289000Y418640D01*
X266000Y406140D02*
X276500D01*
X364500Y458140D02*
X371000Y464640D01*
X364500Y450640D02*
Y458140D01*
X359000Y445140D02*
X364500Y450640D01*
X433500Y464640D02*
X443000Y455140D01*
X371000Y464640D02*
X433500D01*
X442908Y468140D02*
X458927Y452121D01*
X295500Y468140D02*
X442908D01*
X284000Y456640D02*
X295500Y468140D01*
X470908Y471140D02*
X489927Y452121D01*
X260500Y471140D02*
X470908D01*
X244500Y455140D02*
X260500Y471140D01*
X499408Y474140D02*
X521427Y452121D01*
X218500Y474140D02*
X499408D01*
X199500Y455140D02*
X218500Y474140D01*
X369020Y210120D02*
X374300Y204840D01*
X381200D01*
X387000Y210640D01*
X369600Y233740D02*
X373500Y237640D01*
X383000D01*
X387000Y233640D01*
X500000Y395140D02*
Y409621D01*
X387000Y210640D02*
Y222140D01*
Y233640D01*
X540500Y147140D02*
X543000Y149640D01*
X525500Y147140D02*
X540500D01*
X521000Y142640D02*
X525500Y147140D01*
X579000Y136140D02*
X586500Y143640D01*
X527500Y136140D02*
X579000D01*
X521000Y142640D02*
X527500Y136140D01*
X541000Y159640D02*
X543000Y157640D01*
Y149640D02*
Y157640D01*
X528000Y159640D02*
X541000D01*
X542000Y212140D02*
Y220640D01*
X540000Y210140D02*
X542000Y212140D01*
X521000Y166640D02*
X528000Y159640D01*
X527500Y210140D02*
X540000D01*
X523000Y205640D02*
X527500Y210140D01*
X523000Y205640D02*
X529500Y199140D01*
X578500D01*
X586500Y207140D01*
X218500Y171640D02*
Y184140D01*
Y147140D02*
Y159640D01*
X154000Y147140D02*
Y159140D01*
Y171640D01*
X461500Y303302D02*
X469760D01*
X452240D02*
X461500D01*
Y317640D01*
X512000Y368140D01*
X469760Y303302D02*
X469921Y303140D01*
X484000D01*
X469760Y310979D02*
X482839D01*
X469760Y308420D02*
Y310979D01*
X591500Y335640D02*
X598500Y328640D01*
X591500Y335640D02*
Y356140D01*
X568500Y350877D02*
Y351640D01*
X562763Y345140D02*
X568500Y350877D01*
X529000Y345140D02*
X562763D01*
X522500Y351640D02*
X529000Y345140D01*
X522500Y351640D02*
Y400140D01*
X601000Y448140D02*
Y458140D01*
X571000Y428140D02*
X575500Y432640D01*
Y460640D01*
X573000Y463140D02*
X575500Y460640D01*
X539927Y463140D02*
X573000D01*
X528908Y452121D02*
X539927Y463140D01*
X578500Y410140D02*
Y425640D01*
X571500Y403140D02*
X578500Y410140D01*
X555500Y403140D02*
X571500D01*
X578500Y425640D02*
X601000Y448140D01*
X551000Y407640D02*
X555500Y403140D01*
X551000Y419140D02*
Y428640D01*
X542020Y437621D02*
X551000Y428640D01*
X537000Y437621D02*
X542020D01*
X537000Y427621D02*
Y433140D01*
X491000Y400640D02*
Y409621D01*
X522500Y400140D02*
Y409621D01*
X460000Y400640D02*
Y409621D01*
X263500Y385640D02*
Y386640D01*
Y368530D02*
Y385640D01*
X243500Y386640D02*
X263000Y406140D01*
X266000D01*
X284000Y420140D02*
Y456640D01*
X201000Y388140D02*
X221000Y408140D01*
X531500Y409621D02*
Y422121D01*
X537000Y427621D01*
Y437621D02*
Y444029D01*
X528908Y452121D02*
X537000Y444029D01*
X500000Y409621D02*
Y422121D01*
X505500Y427621D01*
Y437621D01*
Y444029D01*
X497408Y452121D02*
X505500Y444029D01*
X469000Y409621D02*
Y422121D01*
X474500Y427621D01*
Y437621D01*
X466408Y445713D02*
X474500Y437621D01*
X466408Y445713D02*
Y452121D01*
X522500Y409621D02*
Y422121D01*
X523500Y423121D01*
Y437621D01*
X491000Y409621D02*
Y422121D01*
X492000Y423121D01*
Y437621D01*
X460000Y409621D02*
Y422121D01*
X461000Y423121D01*
Y437621D01*
X450961Y447660D02*
X461000Y437621D01*
X443000Y447660D02*
X450961D01*
X273500Y423140D02*
Y450640D01*
X259000Y455140D02*
X269000D01*
X349000Y445140D02*
X355000Y439140D01*
Y430640D02*
Y439140D01*
Y430640D02*
X367500D01*
X380000D02*
X392000D01*
X367500D02*
X380000D01*
X402000Y398640D02*
X402500D01*
X389500D02*
X402000D01*
X376500D02*
X389500D01*
X363500D02*
X376500D01*
X351000D02*
X363500D01*
X338500D02*
X351000D01*
X379000Y445140D02*
X389000D01*
X369000D02*
X379000D01*
X359000D02*
X369000D01*
X349000D02*
X359000D01*
X137000Y424689D02*
X145299Y416390D01*
X158142Y423047D02*
X163181Y418008D01*
X164799Y416390D01*
X137000Y424689D02*
Y456140D01*
X140500Y459640D01*
X149500D01*
X154000Y455140D01*
X202500Y421640D02*
X221000D01*
X226000Y416640D01*
X267000D01*
X273500Y423140D01*
X269000Y455140D02*
X273500Y450640D01*
X269000Y455140D02*
X279000D01*
X649300Y458140D02*
X661600Y445840D01*
X601000Y458140D02*
X649300D01*
X155622Y392018D02*
X159500Y388140D01*
X173260Y392880D02*
X175000Y391140D01*
X185500D01*
X202500Y408140D01*
X192500Y418140D02*
Y433140D01*
Y418140D02*
X202500Y408140D01*
X192500Y433140D02*
X214500Y455140D01*
X224500D01*
X234500Y429140D02*
Y455140D01*
Y429140D02*
X240500Y423140D01*
X224500Y455140D02*
X234500D01*
X244500D01*
X151000Y448640D02*
X153000D01*
X144500Y455140D02*
X151000Y448640D01*
X153000D02*
X153102Y448538D01*
X153000Y448640D02*
X163000D01*
X175799Y441439D02*
X179500Y445140D01*
X163000Y448640D02*
X169500Y455140D01*
X179500Y445140D02*
Y455140D01*
X169500D02*
X179500D01*
X189500D01*
X199500D01*
X286500Y190640D02*
X286740Y190880D01*
X282000Y186140D02*
Y194640D01*
Y186140D02*
X286500Y181640D01*
X302000Y190640D02*
X302480Y191120D01*
X297500Y186140D02*
X302000Y181640D01*
X297500Y186140D02*
Y194640D01*
X314000Y190640D02*
X314270Y190910D01*
X314000Y181640D02*
X318000Y185640D01*
Y194640D01*
X262500Y190640D02*
X265080Y193220D01*
X258500Y185640D02*
X262500Y181640D01*
X258500Y185640D02*
Y194049D01*
X226500Y240140D02*
X237910Y251550D01*
X226500Y240140D02*
X240680Y225960D01*
X240000Y240140D02*
X247390Y247530D01*
X240000Y231640D02*
Y240140D01*
Y231640D02*
X243830Y227810D01*
X258500Y194049D02*
X259591Y195140D01*
X261500D01*
X242500Y266640D02*
Y267270D01*
X233000Y266640D02*
X234330Y265310D01*
X236421D01*
X239591Y262140D01*
X245409D01*
X234500Y274640D02*
X238100Y271040D01*
X299500Y308809D02*
Y309140D01*
Y316549D02*
X303500Y312549D01*
X299500Y316549D02*
Y318140D01*
X285650Y314290D02*
X289500Y318140D01*
X285650Y305581D02*
Y314290D01*
X279500Y318640D02*
X283350Y314790D01*
Y305531D02*
Y314790D01*
X279500Y305189D02*
Y309640D01*
X269000Y318140D02*
X272960Y314180D01*
X316150Y312790D02*
X321000Y317640D01*
X320200Y307840D02*
X321000Y308640D01*
X334500D02*
X335950Y307190D01*
X334500Y317640D02*
X338350Y313790D01*
X360120Y285020D02*
X362000Y283140D01*
X367710Y259430D02*
X369500Y257640D01*
X366591Y253140D02*
X373500D01*
X377820Y257460D01*
X358591Y279140D02*
X366500D01*
X370410Y283050D01*
X360500Y242140D02*
Y245640D01*
X358100Y239740D02*
X360500Y242140D01*
X361630Y237770D02*
X369500Y245640D01*
X523000Y229640D02*
X530500Y222140D01*
X540500D01*
X542000Y220640D01*
X191500Y344140D02*
Y388140D01*
X243500Y283140D02*
Y292140D01*
X159500Y388140D02*
X191500D01*
X201000D01*
X226500Y309140D02*
X269000D01*
X191500Y344140D02*
X226500Y309140D01*
X243500Y292140D01*
X586500Y207140D02*
Y224140D01*
X594000Y231640D01*
Y240140D01*
X588500Y245640D02*
X594000Y240140D01*
X387000Y233640D02*
X399000Y245640D01*
X460000Y189640D02*
X516000Y245640D01*
X348000Y189640D02*
X460000D01*
X343710Y193930D02*
X348000Y189640D01*
X399000Y245640D02*
X516000D01*
X588500D01*
X469000Y395140D02*
Y409621D01*
X380000Y240640D02*
X383500Y244140D01*
X371000Y240640D02*
X380000D01*
X366000Y235640D02*
X371000Y240640D01*
X302000Y190640D02*
X314000D01*
X302000Y181640D02*
X314000D01*
X286500D02*
X302000D01*
X154000Y147140D02*
X165000Y136140D01*
X228500D01*
X262500Y170140D01*
Y181640D01*
X265080Y209720D02*
X269500Y214140D01*
X284000D02*
X286740Y211400D01*
X269500Y214140D02*
X284000D01*
X283500Y208140D02*
X284740Y206900D01*
X269541Y209140D02*
X270000D01*
X258000Y236640D02*
X258500Y236140D01*
X258000Y236640D02*
Y239710D01*
X302559Y291640D02*
X306390Y295471D01*
X286760Y294910D02*
X290030Y291640D01*
X287000D02*
X290030D01*
X302559D01*
X280830Y294840D02*
X286130Y289540D01*
X484000Y312140D02*
X517000Y345140D01*
X482839Y310979D02*
X484000Y312140D01*
X243500Y379140D02*
X261500Y361140D01*
X277500D01*
X234500Y274640D02*
Y275140D01*
X234560D01*
X238530Y279110D01*
X150500Y312140D02*
X160000D01*
X174000Y298140D01*
X188500D01*
X140500Y411591D02*
X145299Y416390D01*
X140500Y342140D02*
Y411591D01*
X154000Y231140D02*
X175000Y252140D01*
X154000Y171640D02*
Y184140D01*
Y231140D01*
X253000Y385640D02*
X263500D01*
X154000Y452640D02*
Y455140D01*
X377820Y257460D02*
X386180D01*
X370410Y283050D02*
X394910D01*
D27*
X339000Y445140D02*
D03*
Y455140D02*
D03*
X349000Y445140D02*
D03*
Y455140D02*
D03*
X359000Y445140D02*
D03*
Y455140D02*
D03*
X369000Y445140D02*
D03*
Y455140D02*
D03*
X379000Y445140D02*
D03*
Y455140D02*
D03*
X389000Y445140D02*
D03*
Y455140D02*
D03*
X399000Y445140D02*
D03*
X191000Y177140D02*
D03*
X181000Y167140D02*
D03*
X191000D02*
D03*
X181000Y157140D02*
D03*
X191000D02*
D03*
X181000Y147140D02*
D03*
X191000D02*
D03*
X586500Y237140D02*
D03*
X576500D02*
D03*
X566500D02*
D03*
X556500D02*
D03*
X586500Y207140D02*
D03*
X576500D02*
D03*
X566500D02*
D03*
X586500Y173640D02*
D03*
X576500D02*
D03*
X566500D02*
D03*
X556500D02*
D03*
X586500Y143640D02*
D03*
X576500D02*
D03*
X566500D02*
D03*
X598500Y351640D02*
D03*
Y361640D02*
D03*
Y371640D02*
D03*
Y381640D02*
D03*
X568500Y351640D02*
D03*
Y361640D02*
D03*
Y371640D02*
D03*
X598500Y286640D02*
D03*
Y296640D02*
D03*
Y306640D02*
D03*
Y316640D02*
D03*
X568500Y286640D02*
D03*
Y296640D02*
D03*
Y306640D02*
D03*
X571000Y458140D02*
D03*
Y448140D02*
D03*
Y438140D02*
D03*
Y428140D02*
D03*
X601000Y458140D02*
D03*
Y448140D02*
D03*
Y438140D02*
D03*
X179500Y455140D02*
D03*
X189500D02*
D03*
X199500D02*
D03*
X224500D02*
D03*
X234500D02*
D03*
X244500D02*
D03*
X269000D02*
D03*
X279000D02*
D03*
X289000D02*
D03*
X630500Y187890D02*
D03*
Y159640D02*
D03*
X154500Y455140D02*
D03*
X630500Y226140D02*
D03*
X283000Y135140D02*
D03*
X140500Y312140D02*
D03*
X150500Y322140D02*
D03*
X140500D02*
D03*
X150500Y332140D02*
D03*
X140500D02*
D03*
X150500Y342140D02*
D03*
X140500D02*
D03*
D28*
X399000Y455140D02*
D03*
X568500Y381640D02*
D03*
Y316640D02*
D03*
X601000Y428140D02*
D03*
X169500Y455140D02*
D03*
X214500D02*
D03*
X259000D02*
D03*
X144500D02*
D03*
X273000Y135140D02*
D03*
D29*
X362000Y217640D02*
D03*
X214500Y257140D02*
D03*
D30*
X181000Y177140D02*
D03*
X556500Y207140D02*
D03*
Y143640D02*
D03*
X630500Y197890D02*
D03*
Y149640D02*
D03*
Y236140D02*
D03*
X150500Y312140D02*
D03*
D31*
X630200Y438140D02*
D03*
X652000D02*
D03*
X638600Y445840D02*
D03*
X615600D02*
D03*
X661600D02*
D03*
D32*
X175000Y272140D02*
D03*
X145000D02*
D03*
Y252140D02*
D03*
D33*
X175000D02*
D03*
D34*
X125000Y475000D02*
D03*
Y125000D02*
D03*
X675000D02*
D03*
Y475000D02*
D03*
D35*
X186500Y192140D02*
D03*
X231000Y213140D02*
D03*
X307500Y219140D02*
D03*
X341000Y241640D02*
D03*
X387500Y256140D02*
D03*
X419000Y315140D02*
D03*
X278000Y232140D02*
D03*
X280600Y273140D02*
D03*
X270990Y290650D02*
D03*
X259000Y221640D02*
D03*
Y215140D02*
D03*
X320500Y292140D02*
D03*
X296000Y294640D02*
D03*
X514500Y190640D02*
D03*
X413500Y207140D02*
D03*
X500000Y395140D02*
D03*
X281500Y151640D02*
D03*
X284500Y154640D02*
D03*
X411000Y260640D02*
D03*
X391000D02*
D03*
X598500Y328640D02*
D03*
X591500Y356140D02*
D03*
X593500Y398640D02*
D03*
X522500Y400140D02*
D03*
X491000Y400640D02*
D03*
X460000D02*
D03*
X253000Y385640D02*
D03*
X399000Y279140D02*
D03*
X389000D02*
D03*
X394000D02*
D03*
X384000D02*
D03*
X166000Y438640D02*
D03*
X379000Y279140D02*
D03*
X185500Y391140D02*
D03*
X254500Y405640D02*
D03*
X168000Y394140D02*
D03*
X161000D02*
D03*
X383500Y295140D02*
D03*
X389000Y292640D02*
D03*
X394000Y290640D02*
D03*
X283500Y208140D02*
D03*
X258500Y243640D02*
D03*
Y236140D02*
D03*
X260000Y283140D02*
D03*
X469000Y395140D02*
D03*
X383500Y244140D02*
D03*
X270000Y209140D02*
D03*
X274000Y208640D02*
D03*
X288800Y329140D02*
D03*
X289000Y335640D02*
D03*
M02*
