G04 Layer_Color=8388736*
%FSLAX25Y25*%
%MOIN*%
G70*
G01*
G75*
%ADD43R,0.06800X0.05800*%
%ADD44R,0.05800X0.06800*%
%ADD45R,0.08300X0.09800*%
%ADD46R,0.06706X0.05918*%
%ADD47R,0.08674X0.06706*%
%ADD48R,0.09800X0.08300*%
%ADD49O,0.06115X0.02768*%
%ADD50R,0.05918X0.06706*%
%ADD51R,0.02375X0.08477*%
%ADD52R,0.31902X0.14579*%
%ADD53R,0.12611X0.36233*%
%ADD54R,0.10800X0.36233*%
%ADD55R,0.07100X0.01980*%
%ADD56R,0.01980X0.07100*%
%ADD57R,0.05918X0.09068*%
%ADD58C,0.06706*%
%ADD59R,0.06706X0.06706*%
%ADD60C,0.06800*%
%ADD61R,0.06706X0.06706*%
%ADD62C,0.11450*%
%ADD63O,0.10800X0.06800*%
%ADD64R,0.10800X0.06800*%
%ADD65C,0.15800*%
%ADD66C,0.03800*%
D43*
X209500Y147140D02*
D03*
X218500D02*
D03*
X209500Y159640D02*
D03*
X218500D02*
D03*
X209500Y171640D02*
D03*
X218500D02*
D03*
X209500Y184140D02*
D03*
X218500D02*
D03*
X154000Y147140D02*
D03*
X163000D02*
D03*
X154000Y159140D02*
D03*
X163000D02*
D03*
X154000Y171640D02*
D03*
X163000D02*
D03*
X154000Y184140D02*
D03*
X163000D02*
D03*
X469000Y409621D02*
D03*
X460000D02*
D03*
X469000Y422121D02*
D03*
X460000D02*
D03*
X560000Y407640D02*
D03*
X551000D02*
D03*
X624500Y319140D02*
D03*
X633500D02*
D03*
X624500Y384140D02*
D03*
X633500D02*
D03*
X534500D02*
D03*
X543500D02*
D03*
X534500Y319140D02*
D03*
X543500D02*
D03*
X624500Y367890D02*
D03*
X633500D02*
D03*
X624500Y351640D02*
D03*
X633500D02*
D03*
X543500D02*
D03*
X534500D02*
D03*
Y367890D02*
D03*
X543500D02*
D03*
X551000Y419140D02*
D03*
X560000D02*
D03*
X624500Y302890D02*
D03*
X633500D02*
D03*
X624500Y286640D02*
D03*
X633500D02*
D03*
X543500Y302890D02*
D03*
X534500D02*
D03*
X543500Y286640D02*
D03*
X534500D02*
D03*
X531500Y422121D02*
D03*
X522500D02*
D03*
X531500Y409621D02*
D03*
X522500D02*
D03*
X500000Y422121D02*
D03*
X491000D02*
D03*
X500000Y409621D02*
D03*
X491000D02*
D03*
X249500Y423140D02*
D03*
X240500D02*
D03*
X273500D02*
D03*
X264500D02*
D03*
X387000Y210640D02*
D03*
X378000D02*
D03*
X387000Y222140D02*
D03*
X378000D02*
D03*
Y233640D02*
D03*
X387000D02*
D03*
X362000Y283140D02*
D03*
X371000D02*
D03*
X360500Y245640D02*
D03*
X369500D02*
D03*
Y257640D02*
D03*
X378500D02*
D03*
X243500Y275140D02*
D03*
X234500D02*
D03*
X242500Y266640D02*
D03*
X233000D02*
D03*
D44*
X380000Y421640D02*
D03*
Y430640D02*
D03*
X484000Y312140D02*
D03*
Y303140D02*
D03*
X556500Y383640D02*
D03*
Y374640D02*
D03*
Y318640D02*
D03*
Y309640D02*
D03*
Y352140D02*
D03*
Y361140D02*
D03*
X610500Y352140D02*
D03*
Y361140D02*
D03*
Y383640D02*
D03*
Y374640D02*
D03*
Y287140D02*
D03*
Y296140D02*
D03*
X556500Y287140D02*
D03*
Y296140D02*
D03*
X610500Y318640D02*
D03*
Y309640D02*
D03*
X536000Y238640D02*
D03*
Y229640D02*
D03*
Y175640D02*
D03*
Y166640D02*
D03*
X321000Y308640D02*
D03*
Y317640D02*
D03*
X299500Y309140D02*
D03*
Y318140D02*
D03*
X269000Y309140D02*
D03*
Y318140D02*
D03*
X367500Y421640D02*
D03*
Y430640D02*
D03*
X355000Y421640D02*
D03*
Y430640D02*
D03*
X363500Y407640D02*
D03*
Y398640D02*
D03*
X351000D02*
D03*
Y407640D02*
D03*
X402000Y398640D02*
D03*
Y407640D02*
D03*
X392000Y430640D02*
D03*
Y421640D02*
D03*
X338500Y398640D02*
D03*
Y407640D02*
D03*
X389500Y398640D02*
D03*
Y407640D02*
D03*
X376500Y398640D02*
D03*
Y407640D02*
D03*
X262500Y190640D02*
D03*
Y181640D02*
D03*
X286500Y190640D02*
D03*
Y181640D02*
D03*
X302000Y190640D02*
D03*
Y181640D02*
D03*
X314000Y190640D02*
D03*
Y181640D02*
D03*
X334500Y308640D02*
D03*
Y317640D02*
D03*
X307500Y310640D02*
D03*
Y319640D02*
D03*
X279500Y309640D02*
D03*
Y318640D02*
D03*
X523000Y238640D02*
D03*
Y229640D02*
D03*
Y214640D02*
D03*
Y205640D02*
D03*
X536000Y214640D02*
D03*
Y205640D02*
D03*
X521000Y175640D02*
D03*
Y166640D02*
D03*
Y151640D02*
D03*
Y142640D02*
D03*
X536000Y151640D02*
D03*
Y142640D02*
D03*
X225500Y371640D02*
D03*
Y380640D02*
D03*
X289500Y309140D02*
D03*
Y318140D02*
D03*
X174000Y307140D02*
D03*
Y298140D02*
D03*
X188500D02*
D03*
Y307140D02*
D03*
D45*
X474500Y437621D02*
D03*
X461000D02*
D03*
X226500Y240140D02*
D03*
X240000D02*
D03*
X537000Y437621D02*
D03*
X523500D02*
D03*
X505500D02*
D03*
X492000D02*
D03*
D46*
X443000Y455140D02*
D03*
Y447660D02*
D03*
D47*
X266000Y406140D02*
D03*
X241591D02*
D03*
D48*
X202500Y408140D02*
D03*
Y421640D02*
D03*
X221000Y408140D02*
D03*
Y421640D02*
D03*
D49*
X452240Y310979D02*
D03*
Y308420D02*
D03*
Y305861D02*
D03*
Y303302D02*
D03*
X469760Y310979D02*
D03*
Y308420D02*
D03*
Y305861D02*
D03*
Y303302D02*
D03*
D50*
X521427Y452121D02*
D03*
X528908D02*
D03*
X458927D02*
D03*
X466408D02*
D03*
X489927D02*
D03*
X497408D02*
D03*
D51*
X153102Y403418D02*
D03*
X155622D02*
D03*
X158142D02*
D03*
X160661D02*
D03*
X163181D02*
D03*
X165701D02*
D03*
X168221D02*
D03*
X170740D02*
D03*
X173260D02*
D03*
X175799Y403390D02*
D03*
X153102Y429890D02*
D03*
X155622D02*
D03*
X158142D02*
D03*
X160661D02*
D03*
X163181D02*
D03*
X165701D02*
D03*
X168221D02*
D03*
X170740D02*
D03*
X173260D02*
D03*
X175799D02*
D03*
X178299Y429890D02*
D03*
X178299Y403390D02*
D03*
X150299Y429890D02*
D03*
Y403390D02*
D03*
D52*
X164799Y416390D02*
D03*
D53*
X145299D02*
D03*
D54*
X182701Y416890D02*
D03*
D55*
X251890Y208250D02*
D03*
Y210220D02*
D03*
Y212180D02*
D03*
Y214150D02*
D03*
Y216120D02*
D03*
Y218090D02*
D03*
Y220060D02*
D03*
Y222030D02*
D03*
Y224000D02*
D03*
Y225960D02*
D03*
Y227930D02*
D03*
Y229900D02*
D03*
Y231870D02*
D03*
Y233840D02*
D03*
Y235810D02*
D03*
Y237770D02*
D03*
Y239740D02*
D03*
Y241710D02*
D03*
Y243680D02*
D03*
Y245650D02*
D03*
Y247620D02*
D03*
Y249590D02*
D03*
Y251550D02*
D03*
Y253520D02*
D03*
Y255490D02*
D03*
Y257460D02*
D03*
Y259430D02*
D03*
Y261400D02*
D03*
Y263370D02*
D03*
Y265330D02*
D03*
Y267300D02*
D03*
Y269270D02*
D03*
Y271240D02*
D03*
Y273210D02*
D03*
Y275180D02*
D03*
Y277140D02*
D03*
Y279110D02*
D03*
Y281080D02*
D03*
Y283050D02*
D03*
Y285020D02*
D03*
Y286990D02*
D03*
Y288960D02*
D03*
Y290920D02*
D03*
Y292890D02*
D03*
X351110D02*
D03*
Y290920D02*
D03*
Y288960D02*
D03*
Y286990D02*
D03*
Y285020D02*
D03*
Y283050D02*
D03*
Y281080D02*
D03*
Y279110D02*
D03*
Y277140D02*
D03*
Y275180D02*
D03*
Y273210D02*
D03*
Y271240D02*
D03*
Y269270D02*
D03*
Y267300D02*
D03*
Y265330D02*
D03*
Y263370D02*
D03*
Y261400D02*
D03*
Y259430D02*
D03*
Y257460D02*
D03*
Y255490D02*
D03*
Y251550D02*
D03*
Y249590D02*
D03*
Y243680D02*
D03*
Y239740D02*
D03*
Y237770D02*
D03*
Y235810D02*
D03*
Y233840D02*
D03*
Y231870D02*
D03*
Y229900D02*
D03*
Y227930D02*
D03*
Y225960D02*
D03*
Y224000D02*
D03*
Y222030D02*
D03*
Y220060D02*
D03*
Y218090D02*
D03*
Y216120D02*
D03*
Y214150D02*
D03*
Y212180D02*
D03*
Y210220D02*
D03*
Y208250D02*
D03*
Y241710D02*
D03*
Y245650D02*
D03*
Y247620D02*
D03*
Y253520D02*
D03*
D56*
X259180Y300180D02*
D03*
X261150D02*
D03*
X263110D02*
D03*
X265080D02*
D03*
X267050D02*
D03*
X269020D02*
D03*
X270990D02*
D03*
X272960D02*
D03*
X274930D02*
D03*
X276890D02*
D03*
X278860D02*
D03*
X280830D02*
D03*
X282800D02*
D03*
X284770D02*
D03*
X286740D02*
D03*
X288700D02*
D03*
X290670D02*
D03*
X292640D02*
D03*
X294610D02*
D03*
X296580D02*
D03*
X298550D02*
D03*
X300520D02*
D03*
X302480D02*
D03*
X304450D02*
D03*
X306420D02*
D03*
X308390D02*
D03*
X310360D02*
D03*
X312330D02*
D03*
X314300D02*
D03*
X316260D02*
D03*
X318230D02*
D03*
X320200D02*
D03*
X322170D02*
D03*
X324140D02*
D03*
X326110D02*
D03*
X328070D02*
D03*
X330040D02*
D03*
X332010D02*
D03*
X333980D02*
D03*
X335950D02*
D03*
X337920D02*
D03*
X339890D02*
D03*
X341850D02*
D03*
X343820D02*
D03*
Y200960D02*
D03*
X339890D02*
D03*
X337920D02*
D03*
X335950D02*
D03*
X333980D02*
D03*
X332010D02*
D03*
X330040D02*
D03*
X328070D02*
D03*
X326110D02*
D03*
X324140D02*
D03*
X322170D02*
D03*
X320200D02*
D03*
X318230D02*
D03*
X316260D02*
D03*
X314300D02*
D03*
X308390D02*
D03*
X306420D02*
D03*
X304450D02*
D03*
X302480D02*
D03*
X300520D02*
D03*
X298550D02*
D03*
X296580D02*
D03*
X294610D02*
D03*
X292640D02*
D03*
X290670D02*
D03*
X288700D02*
D03*
X286740D02*
D03*
X284770D02*
D03*
X282800D02*
D03*
X280830D02*
D03*
X278860D02*
D03*
X276890D02*
D03*
X274930D02*
D03*
X272960D02*
D03*
X270990D02*
D03*
X269020D02*
D03*
X267050D02*
D03*
X265080D02*
D03*
X263110D02*
D03*
X261150D02*
D03*
X259180D02*
D03*
X310360D02*
D03*
X312330D02*
D03*
X341850D02*
D03*
D57*
X263500Y368530D02*
D03*
X243500D02*
D03*
Y386640D02*
D03*
X263500D02*
D03*
D58*
X339000Y445140D02*
D03*
Y455140D02*
D03*
X349000Y445140D02*
D03*
Y455140D02*
D03*
X359000Y445140D02*
D03*
Y455140D02*
D03*
X369000Y445140D02*
D03*
Y455140D02*
D03*
X379000Y445140D02*
D03*
Y455140D02*
D03*
X389000Y445140D02*
D03*
Y455140D02*
D03*
X399000Y445140D02*
D03*
X191000Y177140D02*
D03*
X181000Y167140D02*
D03*
X191000D02*
D03*
X181000Y157140D02*
D03*
X191000D02*
D03*
X181000Y147140D02*
D03*
X191000D02*
D03*
X586500Y237140D02*
D03*
X576500D02*
D03*
X566500D02*
D03*
X556500D02*
D03*
X586500Y207140D02*
D03*
X576500D02*
D03*
X566500D02*
D03*
X586500Y173640D02*
D03*
X576500D02*
D03*
X566500D02*
D03*
X556500D02*
D03*
X586500Y143640D02*
D03*
X576500D02*
D03*
X566500D02*
D03*
X598500Y351640D02*
D03*
Y361640D02*
D03*
Y371640D02*
D03*
Y381640D02*
D03*
X568500Y351640D02*
D03*
Y361640D02*
D03*
Y371640D02*
D03*
X598500Y286640D02*
D03*
Y296640D02*
D03*
Y306640D02*
D03*
Y316640D02*
D03*
X568500Y286640D02*
D03*
Y296640D02*
D03*
Y306640D02*
D03*
X571000Y458140D02*
D03*
Y448140D02*
D03*
Y438140D02*
D03*
Y428140D02*
D03*
X601000Y458140D02*
D03*
Y448140D02*
D03*
Y438140D02*
D03*
X179500Y455140D02*
D03*
X189500D02*
D03*
X199500D02*
D03*
X224500D02*
D03*
X234500D02*
D03*
X244500D02*
D03*
X269000D02*
D03*
X279000D02*
D03*
X289000D02*
D03*
X630500Y187890D02*
D03*
Y159640D02*
D03*
X154500Y455140D02*
D03*
X630500Y226140D02*
D03*
X283000Y135140D02*
D03*
X140500Y312140D02*
D03*
X150500Y322140D02*
D03*
X140500D02*
D03*
X150500Y332140D02*
D03*
X140500D02*
D03*
X150500Y342140D02*
D03*
X140500D02*
D03*
D59*
X399000Y455140D02*
D03*
X568500Y381640D02*
D03*
Y316640D02*
D03*
X601000Y428140D02*
D03*
X169500Y455140D02*
D03*
X214500D02*
D03*
X259000D02*
D03*
X144500D02*
D03*
X273000Y135140D02*
D03*
D60*
X362000Y217640D02*
D03*
X214500Y257140D02*
D03*
D61*
X181000Y177140D02*
D03*
X556500Y207140D02*
D03*
Y143640D02*
D03*
X630500Y197890D02*
D03*
Y149640D02*
D03*
Y236140D02*
D03*
X150500Y312140D02*
D03*
D62*
X630200Y438140D02*
D03*
X652000D02*
D03*
X638600Y445840D02*
D03*
X615600D02*
D03*
X661600D02*
D03*
D63*
X175000Y272140D02*
D03*
X145000D02*
D03*
Y252140D02*
D03*
D64*
X175000D02*
D03*
D65*
X125000Y475000D02*
D03*
Y125000D02*
D03*
X675000D02*
D03*
Y475000D02*
D03*
D66*
X186500Y192140D02*
D03*
X231000Y213140D02*
D03*
X307500Y219140D02*
D03*
X341000Y241640D02*
D03*
X387500Y256140D02*
D03*
X419000Y315140D02*
D03*
X278000Y232140D02*
D03*
X280600Y273140D02*
D03*
X270990Y290650D02*
D03*
X259000Y221640D02*
D03*
Y215140D02*
D03*
X320500Y292140D02*
D03*
X296000Y294640D02*
D03*
X514500Y190640D02*
D03*
X413500Y207140D02*
D03*
X500000Y395140D02*
D03*
X281500Y151640D02*
D03*
X284500Y154640D02*
D03*
X411000Y260640D02*
D03*
X391000D02*
D03*
X598500Y328640D02*
D03*
X591500Y356140D02*
D03*
X593500Y398640D02*
D03*
X522500Y400140D02*
D03*
X491000Y400640D02*
D03*
X460000D02*
D03*
X253000Y385640D02*
D03*
X399000Y279140D02*
D03*
X389000D02*
D03*
X394000D02*
D03*
X384000D02*
D03*
X166000Y438640D02*
D03*
X379000Y279140D02*
D03*
X185500Y391140D02*
D03*
X254500Y405640D02*
D03*
X168000Y394140D02*
D03*
X161000D02*
D03*
X383500Y295140D02*
D03*
X389000Y292640D02*
D03*
X394000Y290640D02*
D03*
X283500Y208140D02*
D03*
X258500Y243640D02*
D03*
Y236140D02*
D03*
X260000Y283140D02*
D03*
X469000Y395140D02*
D03*
X383500Y244140D02*
D03*
X270000Y209140D02*
D03*
X274000Y208640D02*
D03*
X288800Y329140D02*
D03*
X289000Y335640D02*
D03*
M02*
