G04 Layer_Color=16711935*
%FSLAX25Y25*%
%MOIN*%
G70*
G01*
G75*
%ADD43R,0.06800X0.05800*%
%ADD44R,0.05800X0.06800*%
%ADD48R,0.09800X0.08300*%
%ADD58C,0.06706*%
%ADD59R,0.06706X0.06706*%
%ADD60C,0.06800*%
%ADD61R,0.06706X0.06706*%
%ADD62C,0.11450*%
%ADD63O,0.10800X0.06800*%
%ADD64R,0.10800X0.06800*%
%ADD65C,0.15800*%
%ADD66C,0.03800*%
D43*
X276500Y283140D02*
D03*
X267500D02*
D03*
D44*
X265000Y223140D02*
D03*
Y214140D02*
D03*
X278500Y213140D02*
D03*
Y222140D02*
D03*
X264500Y244640D02*
D03*
Y235640D02*
D03*
X648000Y415640D02*
D03*
Y406640D02*
D03*
X616750D02*
D03*
Y415640D02*
D03*
X632375Y406640D02*
D03*
Y415640D02*
D03*
X601125Y406640D02*
D03*
Y415640D02*
D03*
X585500D02*
D03*
Y406640D02*
D03*
X157500Y366140D02*
D03*
Y375140D02*
D03*
X173500Y366140D02*
D03*
Y375140D02*
D03*
X182000Y411140D02*
D03*
Y420140D02*
D03*
X163000Y411140D02*
D03*
Y420140D02*
D03*
D48*
X146000Y409140D02*
D03*
Y422640D02*
D03*
D58*
X339000Y445140D02*
D03*
Y455140D02*
D03*
X349000Y445140D02*
D03*
Y455140D02*
D03*
X359000Y445140D02*
D03*
Y455140D02*
D03*
X369000Y445140D02*
D03*
Y455140D02*
D03*
X379000Y445140D02*
D03*
Y455140D02*
D03*
X389000Y445140D02*
D03*
Y455140D02*
D03*
X399000Y445140D02*
D03*
X191000Y177140D02*
D03*
X181000Y167140D02*
D03*
X191000D02*
D03*
X181000Y157140D02*
D03*
X191000D02*
D03*
X181000Y147140D02*
D03*
X191000D02*
D03*
X586500Y237140D02*
D03*
X576500D02*
D03*
X566500D02*
D03*
X556500D02*
D03*
X586500Y207140D02*
D03*
X576500D02*
D03*
X566500D02*
D03*
X586500Y173640D02*
D03*
X576500D02*
D03*
X566500D02*
D03*
X556500D02*
D03*
X586500Y143640D02*
D03*
X576500D02*
D03*
X566500D02*
D03*
X598500Y351640D02*
D03*
Y361640D02*
D03*
Y371640D02*
D03*
Y381640D02*
D03*
X568500Y351640D02*
D03*
Y361640D02*
D03*
Y371640D02*
D03*
X598500Y286640D02*
D03*
Y296640D02*
D03*
Y306640D02*
D03*
Y316640D02*
D03*
X568500Y286640D02*
D03*
Y296640D02*
D03*
Y306640D02*
D03*
X571000Y458140D02*
D03*
Y448140D02*
D03*
Y438140D02*
D03*
Y428140D02*
D03*
X601000Y458140D02*
D03*
Y448140D02*
D03*
Y438140D02*
D03*
X179500Y455140D02*
D03*
X189500D02*
D03*
X199500D02*
D03*
X224500D02*
D03*
X234500D02*
D03*
X244500D02*
D03*
X269000D02*
D03*
X279000D02*
D03*
X289000D02*
D03*
X630500Y187890D02*
D03*
Y159640D02*
D03*
X154500Y455140D02*
D03*
X630500Y226140D02*
D03*
X283000Y135140D02*
D03*
X140500Y312140D02*
D03*
X150500Y322140D02*
D03*
X140500D02*
D03*
X150500Y332140D02*
D03*
X140500D02*
D03*
X150500Y342140D02*
D03*
X140500D02*
D03*
D59*
X399000Y455140D02*
D03*
X568500Y381640D02*
D03*
Y316640D02*
D03*
X601000Y428140D02*
D03*
X169500Y455140D02*
D03*
X214500D02*
D03*
X259000D02*
D03*
X144500D02*
D03*
X273000Y135140D02*
D03*
D60*
X362000Y217640D02*
D03*
X214500Y257140D02*
D03*
D61*
X181000Y177140D02*
D03*
X556500Y207140D02*
D03*
Y143640D02*
D03*
X630500Y197890D02*
D03*
Y149640D02*
D03*
Y236140D02*
D03*
X150500Y312140D02*
D03*
D62*
X630200Y438140D02*
D03*
X652000D02*
D03*
X638600Y445840D02*
D03*
X615600D02*
D03*
X661600D02*
D03*
D63*
X175000Y272140D02*
D03*
X145000D02*
D03*
Y252140D02*
D03*
D64*
X175000D02*
D03*
D65*
X125000Y475000D02*
D03*
Y125000D02*
D03*
X675000D02*
D03*
Y475000D02*
D03*
D66*
X186500Y192140D02*
D03*
X231000Y213140D02*
D03*
X307500Y219140D02*
D03*
X341000Y241640D02*
D03*
X387500Y256140D02*
D03*
X419000Y315140D02*
D03*
X278000Y232140D02*
D03*
X280600Y273140D02*
D03*
X270990Y290650D02*
D03*
X259000Y221640D02*
D03*
Y215140D02*
D03*
X320500Y292140D02*
D03*
X296000Y294640D02*
D03*
X514500Y190640D02*
D03*
X413500Y207140D02*
D03*
X500000Y395140D02*
D03*
X281500Y151640D02*
D03*
X284500Y154640D02*
D03*
X411000Y260640D02*
D03*
X391000D02*
D03*
X598500Y328640D02*
D03*
X591500Y356140D02*
D03*
X593500Y398640D02*
D03*
X522500Y400140D02*
D03*
X491000Y400640D02*
D03*
X460000D02*
D03*
X253000Y385640D02*
D03*
X399000Y279140D02*
D03*
X389000D02*
D03*
X394000D02*
D03*
X384000D02*
D03*
X166000Y438640D02*
D03*
X379000Y279140D02*
D03*
X185500Y391140D02*
D03*
X254500Y405640D02*
D03*
X168000Y394140D02*
D03*
X161000D02*
D03*
X383500Y295140D02*
D03*
X389000Y292640D02*
D03*
X394000Y290640D02*
D03*
X283500Y208140D02*
D03*
X258500Y243640D02*
D03*
Y236140D02*
D03*
X260000Y283140D02*
D03*
X469000Y395140D02*
D03*
X383500Y244140D02*
D03*
X270000Y209140D02*
D03*
X274000Y208640D02*
D03*
X288800Y329140D02*
D03*
X289000Y335640D02*
D03*
M02*
