G04 Layer_Color=16711935*
%FSLAX25Y25*%
%MOIN*%
G70*
G01*
G75*
%ADD25C,0.01000*%
%ADD67C,0.00394*%
D25*
X591776Y207967D02*
Y236313D01*
X551224Y207967D02*
Y236313D01*
X591776D01*
X551224Y207967D02*
X591776D01*
Y144467D02*
Y172813D01*
X551224Y144467D02*
Y172813D01*
X591776D01*
X551224Y144467D02*
X591776D01*
X569327Y346365D02*
X597673D01*
X569327Y386916D02*
X597673D01*
Y346365D02*
Y386916D01*
X569327Y346365D02*
Y386916D01*
Y281365D02*
X597673D01*
X569327Y321916D02*
X597673D01*
Y281365D02*
Y321916D01*
X569327Y281365D02*
Y321916D01*
X571827Y463416D02*
X600173D01*
X571827Y422865D02*
X600173D01*
X571827D02*
Y463416D01*
X600173Y422865D02*
Y463416D01*
X454898Y313243D02*
X467102D01*
X454898Y301038D02*
X467102D01*
X454898D02*
Y313243D01*
X467102Y301038D02*
Y313243D01*
D67*
X556736Y211510D02*
G03*
X556736Y211510I-1969J0D01*
G01*
Y148010D02*
G03*
X556736Y148010I-1969J0D01*
G01*
X574839Y383372D02*
G03*
X574839Y383372I-1969J0D01*
G01*
Y318372D02*
G03*
X574839Y318372I-1969J0D01*
G01*
X598598Y426408D02*
G03*
X598598Y426408I-1969J0D01*
G01*
X465527Y304581D02*
G03*
X465527Y304581I-1969J0D01*
G01*
M02*
