M48
;Layer_Color=9474304
;FILE_FORMAT=2:5
INCH,LZ
;TYPE=PLATED
T1F00S00C0.02000
T2F00S00C0.03000
T3F00S00C0.03543
T4F00S00C0.06650
T5F00S00C0.10000
%
T01
X02815Y015164
X02845Y015464
X05145Y019064
X04135Y020714
X0411Y026064
X0391
X03875Y025614
X03835Y024414
X0384Y027914
X0389
X0394
X0399
X0394Y029064
X0389Y029264
X03835Y029514
X0379Y027914
X03205Y029214
X0341Y024164
X03075Y021914
X02835Y020814
X0274Y020864
X027Y020914
X0259Y021514
Y022164
X02585Y023614
Y024364
X0278Y023214
X02806Y027314
X027099Y029065
X026Y028314
X0296Y029464
X0231Y021314
X01865Y019214
X01855Y039114
X0168Y039414
X0161
X0166Y043864
X02545Y040564
X0253Y038564
X0289Y033564
X02888Y032914
X0419Y031514
X046Y040064
X0469Y039514
X0491Y040064
X05Y039514
X05225Y040014
X05935Y039864
X05915Y035614
X05985Y032864
T02
X0362Y021764
X02145Y025714
X0175Y025214
Y027214
X0145
Y025214
T03
X0181Y014714
X0191
X0273Y013514
X0283
X05565Y014364
X05665
X05765
X05865
X06305Y014964
Y015964
Y018789
Y019789
Y022614
Y023614
X05865Y023714
X05765
X05665
X05565
Y020714
X05665
X05765
X05865
Y017364
X05765
X05665
X05565
X05685Y028664
Y029664
Y030664
X05985
Y029664
Y028664
X0191Y017714
X0181
Y016714
X0191
Y015714
X0181
X01505Y031214
X01405
Y032214
X01505
Y033214
X01405
Y034214
X01505
X01545Y045514
X01445
X01695
X01795
X01895
X01995
X02145
X02245
X02345
X02445
X0259
X0269
X0279
X0289
X0339
Y044514
X0349
Y045514
X0359
Y044514
X0369
Y045514
X0379
Y044514
X0389
Y045514
X0399
Y044514
X0571Y044814
Y045814
Y043814
Y042814
X0601
Y043814
Y044814
Y045814
X05985Y038164
Y037164
Y036164
Y035164
X05685
Y036164
Y037164
Y038164
Y031664
X05985
T04
X06156Y044584
X06302Y043814
X06386Y044584
X0652Y043814
X06616Y044584
T05
X0125Y0125
X0675
Y0475
X0125
M30
