G04 Layer_Color=16711935*
%FSLAX25Y25*%
%MOIN*%
G70*
G01*
G75*
%ADD43R,0.05800X0.06800*%
%ADD45R,0.06800X0.05800*%
%ADD52R,0.09800X0.08300*%
%ADD58C,0.15800*%
%ADD59C,0.06706*%
%ADD60R,0.06706X0.06706*%
%ADD61R,0.10800X0.06800*%
%ADD62O,0.10800X0.06800*%
%ADD63C,0.06800*%
%ADD64R,0.06706X0.06706*%
%ADD65C,0.11450*%
%ADD66C,0.03800*%
D43*
X163000Y420140D02*
D03*
Y411140D02*
D03*
X182000Y420140D02*
D03*
Y411140D02*
D03*
X173500Y375140D02*
D03*
Y366140D02*
D03*
X157500Y375140D02*
D03*
Y366140D02*
D03*
X585500Y406640D02*
D03*
Y415640D02*
D03*
X601125D02*
D03*
Y406640D02*
D03*
X632375Y415640D02*
D03*
Y406640D02*
D03*
X616750Y415640D02*
D03*
Y406640D02*
D03*
X648000D02*
D03*
Y415640D02*
D03*
X264500Y235640D02*
D03*
Y244640D02*
D03*
X278500Y222140D02*
D03*
Y213140D02*
D03*
X265000Y214140D02*
D03*
Y223140D02*
D03*
D45*
X267500Y283140D02*
D03*
X276500D02*
D03*
D52*
X146000Y422640D02*
D03*
Y409140D02*
D03*
D58*
X675000Y475000D02*
D03*
Y125000D02*
D03*
X125000D02*
D03*
Y475000D02*
D03*
D59*
X140500Y342140D02*
D03*
X150500D02*
D03*
X140500Y332140D02*
D03*
X150500D02*
D03*
X140500Y322140D02*
D03*
X150500D02*
D03*
X140500Y312140D02*
D03*
X283000Y135140D02*
D03*
X630500Y226140D02*
D03*
X154500Y455140D02*
D03*
X630500Y159640D02*
D03*
Y187890D02*
D03*
X289000Y455140D02*
D03*
X279000D02*
D03*
X269000D02*
D03*
X244500D02*
D03*
X234500D02*
D03*
X224500D02*
D03*
X199500D02*
D03*
X189500D02*
D03*
X179500D02*
D03*
X601000Y438140D02*
D03*
Y448140D02*
D03*
Y458140D02*
D03*
X571000Y428140D02*
D03*
Y438140D02*
D03*
Y448140D02*
D03*
Y458140D02*
D03*
X568500Y306640D02*
D03*
Y296640D02*
D03*
Y286640D02*
D03*
X598500Y316640D02*
D03*
Y306640D02*
D03*
Y296640D02*
D03*
Y286640D02*
D03*
X568500Y371640D02*
D03*
Y361640D02*
D03*
Y351640D02*
D03*
X598500Y381640D02*
D03*
Y371640D02*
D03*
Y361640D02*
D03*
Y351640D02*
D03*
X566500Y143640D02*
D03*
X576500D02*
D03*
X586500D02*
D03*
X556500Y173640D02*
D03*
X566500D02*
D03*
X576500D02*
D03*
X586500D02*
D03*
X566500Y207140D02*
D03*
X576500D02*
D03*
X586500D02*
D03*
X556500Y237140D02*
D03*
X566500D02*
D03*
X576500D02*
D03*
X586500D02*
D03*
X191000Y147140D02*
D03*
X181000D02*
D03*
X191000Y157140D02*
D03*
X181000D02*
D03*
X191000Y167140D02*
D03*
X181000D02*
D03*
X191000Y177140D02*
D03*
X399000Y445140D02*
D03*
X389000Y455140D02*
D03*
Y445140D02*
D03*
X379000Y455140D02*
D03*
Y445140D02*
D03*
X369000Y455140D02*
D03*
Y445140D02*
D03*
X359000Y455140D02*
D03*
Y445140D02*
D03*
X349000Y455140D02*
D03*
Y445140D02*
D03*
X339000Y455140D02*
D03*
Y445140D02*
D03*
D60*
X150500Y312140D02*
D03*
X630500Y236140D02*
D03*
Y149640D02*
D03*
Y197890D02*
D03*
X556500Y143640D02*
D03*
Y207140D02*
D03*
X181000Y177140D02*
D03*
D61*
X175000Y252140D02*
D03*
D62*
X145000D02*
D03*
Y272140D02*
D03*
X175000D02*
D03*
D63*
X214500Y257140D02*
D03*
X362000Y217640D02*
D03*
D64*
X273000Y135140D02*
D03*
X144500Y455140D02*
D03*
X259000D02*
D03*
X214500D02*
D03*
X169500D02*
D03*
X601000Y428140D02*
D03*
X568500Y316640D02*
D03*
Y381640D02*
D03*
X399000Y455140D02*
D03*
D65*
X661600Y445840D02*
D03*
X615600D02*
D03*
X638600D02*
D03*
X652000Y438140D02*
D03*
X630200D02*
D03*
D66*
X289000Y335640D02*
D03*
X288800Y329140D02*
D03*
X274000Y208640D02*
D03*
X270000Y209140D02*
D03*
X383500Y244140D02*
D03*
X469000Y395140D02*
D03*
X260000Y283140D02*
D03*
X258500Y236140D02*
D03*
Y243640D02*
D03*
X283500Y208140D02*
D03*
X394000Y290640D02*
D03*
X389000Y292640D02*
D03*
X383500Y295140D02*
D03*
X161000Y394140D02*
D03*
X168000D02*
D03*
X254500Y405640D02*
D03*
X185500Y391140D02*
D03*
X379000Y279140D02*
D03*
X166000Y438640D02*
D03*
X384000Y279140D02*
D03*
X394000D02*
D03*
X389000D02*
D03*
X399000D02*
D03*
X253000Y385640D02*
D03*
X460000Y400640D02*
D03*
X491000D02*
D03*
X522500Y400140D02*
D03*
X593500Y398640D02*
D03*
X591500Y356140D02*
D03*
X598500Y328640D02*
D03*
X391000Y260640D02*
D03*
X411000D02*
D03*
X284500Y154640D02*
D03*
X281500Y151640D02*
D03*
X500000Y395140D02*
D03*
X413500Y207140D02*
D03*
X514500Y190640D02*
D03*
X296000Y294640D02*
D03*
X320500Y292140D02*
D03*
X259000Y215140D02*
D03*
Y221640D02*
D03*
X270990Y290650D02*
D03*
X280600Y273140D02*
D03*
X278000Y232140D02*
D03*
X419000Y315140D02*
D03*
X387500Y256140D02*
D03*
X341000Y241640D02*
D03*
X307500Y219140D02*
D03*
X231000Y213140D02*
D03*
X186500Y192140D02*
D03*
M02*
