G04 Layer_Physical_Order=2*
G04 Layer_Color=16711680*
%FSLAX25Y25*%
%MOIN*%
G70*
G01*
G75*
%ADD11C,0.05512*%
%ADD12C,0.06299*%
%ADD13R,0.06299X0.06299*%
%ADD14R,0.05906X0.05906*%
%ADD15C,0.05906*%
%ADD16R,0.05906X0.05906*%
%ADD17C,0.02000*%
G36*
X634952Y447500D02*
X463048D01*
Y539953D01*
X634952D01*
Y447500D01*
D02*
G37*
G36*
X581010Y403058D02*
X581040Y402716D01*
X581090Y402415D01*
X581160Y402153D01*
X581250Y401932D01*
X581360Y401751D01*
X581490Y401610D01*
X581640Y401509D01*
X581810Y401449D01*
X582000Y401429D01*
X578000D01*
X578190Y401449D01*
X578360Y401509D01*
X578510Y401610D01*
X578640Y401751D01*
X578750Y401932D01*
X578840Y402153D01*
X578910Y402415D01*
X578960Y402716D01*
X578990Y403058D01*
X579000Y403441D01*
X581000D01*
X581010Y403058D01*
D02*
G37*
G36*
X542260Y402559D02*
X542290Y402216D01*
X542340Y401915D01*
X542410Y401653D01*
X542500Y401432D01*
X542610Y401251D01*
X542740Y401110D01*
X542890Y401009D01*
X543060Y400949D01*
X543250Y400929D01*
X539250D01*
X539440Y400949D01*
X539610Y401009D01*
X539760Y401110D01*
X539890Y401251D01*
X540000Y401432D01*
X540090Y401653D01*
X540160Y401915D01*
X540210Y402216D01*
X540240Y402559D01*
X540250Y402941D01*
X542250D01*
X542260Y402559D01*
D02*
G37*
G36*
X531018Y395056D02*
X530779Y395064D01*
X530542Y395047D01*
X530308Y395008D01*
X530076Y394945D01*
X529847Y394859D01*
X529621Y394749D01*
X529397Y394616D01*
X529175Y394459D01*
X528956Y394279D01*
X528740Y394076D01*
X527326Y395490D01*
X527529Y395706D01*
X527709Y395925D01*
X527866Y396147D01*
X527999Y396371D01*
X528109Y396597D01*
X528195Y396826D01*
X528258Y397058D01*
X528298Y397292D01*
X528314Y397529D01*
X528306Y397768D01*
X531018Y395056D01*
D02*
G37*
G36*
X592960Y398177D02*
X592987Y397893D01*
X593034Y397620D01*
X593101Y397357D01*
X593188Y397103D01*
X593295Y396860D01*
X593423Y396627D01*
X593570Y396405D01*
X593737Y396192D01*
X593924Y395990D01*
X592510Y394576D01*
X592308Y394763D01*
X592095Y394930D01*
X591873Y395077D01*
X591640Y395205D01*
X591397Y395312D01*
X591144Y395399D01*
X590880Y395466D01*
X590607Y395513D01*
X590323Y395540D01*
X590029Y395547D01*
X592953Y398470D01*
X592960Y398177D01*
D02*
G37*
G36*
X544271Y384297D02*
X537757Y377783D01*
X537704Y377746D01*
X537601Y377650D01*
X534029D01*
Y390047D01*
X544271D01*
Y384297D01*
D02*
G37*
G36*
X498435Y421462D02*
X491237Y414263D01*
X490487Y413349D01*
X489930Y412307D01*
X489587Y411176D01*
X489471Y410000D01*
Y405953D01*
X477547D01*
Y390047D01*
X481926D01*
X487190Y384784D01*
X488103Y384034D01*
X489146Y383477D01*
X490277Y383134D01*
X491453Y383018D01*
X498638D01*
X498830Y382556D01*
X491303Y375029D01*
X484690D01*
X483940Y375644D01*
X482558Y376383D01*
X481059Y376838D01*
X480094Y376933D01*
X473076Y383950D01*
Y403550D01*
X491450Y421924D01*
X498244D01*
X498435Y421462D01*
D02*
G37*
G36*
X523387Y399307D02*
X523307Y398489D01*
X522987Y398099D01*
X522430Y397057D01*
X522087Y395926D01*
X521971Y394750D01*
Y375000D01*
X521482Y374404D01*
X521349Y374513D01*
X520307Y375070D01*
X519176Y375413D01*
X518000Y375529D01*
X516824Y375413D01*
X515693Y375070D01*
X514650Y374513D01*
X514610Y374480D01*
X514250Y374433D01*
X513649Y374366D01*
X513599Y374347D01*
X513545Y374340D01*
X512986Y374108D01*
X512422Y373888D01*
X512379Y373857D01*
X512329Y373836D01*
X511849Y373467D01*
X511361Y373109D01*
X511327Y373067D01*
X511284Y373035D01*
X510916Y372554D01*
X510538Y372082D01*
X510516Y372033D01*
X510483Y371990D01*
X510251Y371431D01*
X510008Y370877D01*
X510000Y370824D01*
X509979Y370774D01*
X509900Y370174D01*
X509856Y369882D01*
X505003Y365029D01*
X499009D01*
X498817Y365491D01*
X516763Y383437D01*
X517513Y384350D01*
X518070Y385393D01*
X518413Y386524D01*
X518529Y387700D01*
Y395156D01*
X522907Y399534D01*
X523387Y399307D01*
D02*
G37*
G36*
X557071Y405462D02*
Y400000D01*
X557187Y398824D01*
X557530Y397693D01*
X558087Y396651D01*
X558837Y395737D01*
X575137Y379437D01*
X576051Y378687D01*
X577093Y378130D01*
X578224Y377787D01*
X579400Y377671D01*
X587503D01*
X588072Y377101D01*
X587904Y376630D01*
X586902Y376532D01*
X585366Y376066D01*
X583950Y375309D01*
X582710Y374290D01*
X581982Y373404D01*
X581849Y373513D01*
X580807Y374070D01*
X579676Y374413D01*
X578500Y374529D01*
X577324Y374413D01*
X576193Y374070D01*
X575150Y373513D01*
X574237Y372763D01*
X573487Y371849D01*
X572930Y370807D01*
X572587Y369676D01*
X572471Y368500D01*
Y348160D01*
X572460Y348095D01*
X572457Y348003D01*
X572394Y347936D01*
X572356Y347883D01*
X571658Y347184D01*
X571222Y347127D01*
X571158Y347100D01*
X571090Y347090D01*
X570551Y346849D01*
X570006Y346623D01*
X569951Y346581D01*
X569887Y346553D01*
X569429Y346181D01*
X568961Y345822D01*
X568919Y345767D01*
X568865Y345723D01*
X568519Y345245D01*
X568160Y344777D01*
X568133Y344713D01*
X568093Y344657D01*
X567882Y344106D01*
X567656Y343561D01*
X567647Y343492D01*
X567622Y343427D01*
X567573Y342955D01*
X567487Y342849D01*
X566930Y341807D01*
X566587Y340676D01*
X566525Y340047D01*
X566374Y339847D01*
X566288Y339635D01*
X566168Y339441D01*
X566042Y339027D01*
X565880Y338627D01*
X565852Y338400D01*
X565843Y338369D01*
X555747Y328273D01*
X532753D01*
X522951Y338075D01*
X523013Y338151D01*
X523570Y339193D01*
X523913Y340324D01*
X524029Y341500D01*
Y361895D01*
X524458Y362153D01*
X524866Y361934D01*
X526402Y361468D01*
X528000Y361311D01*
X529350Y361444D01*
X529850Y361350D01*
Y361350D01*
X531971D01*
Y344500D01*
X532087Y343324D01*
X532430Y342193D01*
X532987Y341150D01*
X533737Y340237D01*
X536787Y337187D01*
X536856Y336480D01*
X537300Y335018D01*
X538020Y333670D01*
X538989Y332489D01*
X540170Y331520D01*
X541518Y330800D01*
X542980Y330356D01*
X544500Y330207D01*
X546020Y330356D01*
X547482Y330800D01*
X548830Y331520D01*
X550011Y332489D01*
X550980Y333670D01*
X551700Y335018D01*
X552144Y336480D01*
X552293Y338000D01*
X552144Y339520D01*
X551700Y340982D01*
X550980Y342330D01*
X550011Y343511D01*
X548830Y344480D01*
X547482Y345200D01*
X546020Y345644D01*
X545313Y345713D01*
X544029Y346997D01*
Y361350D01*
X546150D01*
Y369103D01*
X546179Y369134D01*
X546233Y369207D01*
X554563Y377537D01*
X555313Y378450D01*
X555870Y379493D01*
X556213Y380624D01*
X556329Y381800D01*
X556329Y381800D01*
Y405438D01*
X556823Y405659D01*
X557071Y405462D01*
D02*
G37*
G36*
X542552Y372638D02*
X542155Y372226D01*
X541530Y371490D01*
X541302Y371164D01*
X541132Y370867D01*
X541017Y370598D01*
X540960Y370358D01*
X540958Y370147D01*
X541014Y369964D01*
X541126Y369809D01*
X538309Y372626D01*
X538464Y372514D01*
X538647Y372458D01*
X538858Y372460D01*
X539098Y372517D01*
X539367Y372632D01*
X539664Y372802D01*
X539990Y373030D01*
X540344Y373314D01*
X541138Y374052D01*
X542552Y372638D01*
D02*
G37*
G36*
X599510Y373255D02*
X599540Y372913D01*
X599590Y372611D01*
X599660Y372350D01*
X599750Y372129D01*
X599860Y371948D01*
X599990Y371807D01*
X600140Y371706D01*
X600310Y371646D01*
X600500Y371626D01*
X596500D01*
X596690Y371646D01*
X596860Y371706D01*
X597010Y371807D01*
X597140Y371948D01*
X597250Y372129D01*
X597340Y372350D01*
X597410Y372611D01*
X597460Y372913D01*
X597490Y373255D01*
X597500Y373638D01*
X599500D01*
X599510Y373255D01*
D02*
G37*
G36*
X477192Y372737D02*
X477405Y372570D01*
X477628Y372423D01*
X477860Y372295D01*
X478103Y372188D01*
X478357Y372101D01*
X478620Y372034D01*
X478893Y371987D01*
X479177Y371960D01*
X479470Y371953D01*
X476547Y369029D01*
X476540Y369323D01*
X476513Y369607D01*
X476466Y369880D01*
X476399Y370144D01*
X476312Y370397D01*
X476205Y370640D01*
X476078Y370872D01*
X475930Y371095D01*
X475763Y371308D01*
X475576Y371510D01*
X476990Y372924D01*
X477192Y372737D01*
D02*
G37*
G36*
X517969Y366351D02*
X517638Y366343D01*
X517320Y366316D01*
X517016Y366267D01*
X516725Y366198D01*
X516448Y366108D01*
X516183Y365997D01*
X515932Y365865D01*
X515695Y365712D01*
X515470Y365539D01*
X515259Y365345D01*
X513845Y366759D01*
X514039Y366970D01*
X514212Y367195D01*
X514365Y367432D01*
X514497Y367683D01*
X514607Y367948D01*
X514698Y368225D01*
X514767Y368516D01*
X514816Y368820D01*
X514844Y369138D01*
X514851Y369468D01*
X517969Y366351D01*
D02*
G37*
G36*
X539810Y366342D02*
X539640Y366282D01*
X539490Y366182D01*
X539360Y366042D01*
X539250Y365862D01*
X539160Y365642D01*
X539090Y365382D01*
X539040Y365082D01*
X539010Y364742D01*
X539000Y364362D01*
X537000D01*
X536990Y364742D01*
X536960Y365082D01*
X536910Y365382D01*
X536840Y365642D01*
X536750Y365862D01*
X536640Y366042D01*
X536510Y366182D01*
X536360Y366282D01*
X536190Y366342D01*
X536000Y366362D01*
X540000D01*
X539810Y366342D01*
D02*
G37*
G36*
X601624Y367042D02*
X601645Y366968D01*
X601700Y366867D01*
X601789Y366737D01*
X601913Y366578D01*
X602265Y366177D01*
X603052Y365362D01*
X601638Y363948D01*
X601338Y364245D01*
X600133Y365300D01*
X600032Y365355D01*
X599958Y365376D01*
X599913Y365362D01*
X601638Y367087D01*
X601624Y367042D01*
D02*
G37*
G36*
X482449Y360810D02*
X482509Y360640D01*
X482610Y360490D01*
X482751Y360360D01*
X482932Y360250D01*
X483153Y360160D01*
X483415Y360090D01*
X483716Y360040D01*
X484059Y360010D01*
X484441Y360000D01*
Y358000D01*
X484059Y357990D01*
X483716Y357960D01*
X483415Y357910D01*
X483153Y357840D01*
X482932Y357750D01*
X482751Y357640D01*
X482610Y357510D01*
X482509Y357360D01*
X482449Y357190D01*
X482429Y357000D01*
Y361000D01*
X482449Y360810D01*
D02*
G37*
G36*
X579500Y345500D02*
X577500Y342500D01*
X577486Y342597D01*
X577443Y342654D01*
X577373Y342671D01*
X577274Y342649D01*
X577146Y342586D01*
X576991Y342483D01*
X576355Y341934D01*
X576168Y341752D01*
X576012Y341585D01*
X575851Y341384D01*
X575753Y341240D01*
X575835Y341297D01*
X576033Y341459D01*
X576242Y341656D01*
X577120Y339706D01*
X574623Y337743D01*
X574290Y337710D01*
X574257Y337377D01*
X572294Y334880D01*
X570343Y335758D01*
X570541Y335967D01*
X570703Y336165D01*
X570831Y336352D01*
X570925Y336529D01*
X570984Y336695D01*
X571009Y336850D01*
X570999Y336994D01*
X570955Y337127D01*
X570876Y337249D01*
X570762Y337361D01*
X574290Y337710D01*
X574540Y340243D01*
X572528Y342256D01*
X572784Y342263D01*
X573034Y342289D01*
X573277Y342335D01*
X573512Y342399D01*
X573741Y342483D01*
X573962Y342587D01*
X574177Y342709D01*
X574384Y342851D01*
X574585Y343012D01*
X574778Y343192D01*
X576086Y341884D01*
Y344500D01*
X576355Y344789D01*
X576595Y345089D01*
X576807Y345401D01*
X576991Y345725D01*
X577146Y346061D01*
X577274Y346408D01*
X577373Y346767D01*
X577443Y347138D01*
X577486Y347520D01*
X577500Y347914D01*
X579500Y345500D01*
D02*
G37*
G36*
X596471Y344379D02*
X596020Y343830D01*
X595300Y342482D01*
X595029Y341590D01*
X594529Y341664D01*
Y360350D01*
X596471D01*
Y344379D01*
D02*
G37*
G36*
X603509Y343457D02*
X603537Y343202D01*
X603584Y342955D01*
X603649Y342717D01*
X603732Y342487D01*
X603834Y342266D01*
X603955Y342053D01*
X604095Y341850D01*
X604253Y341655D01*
X604429Y341468D01*
X600571D01*
X600747Y341655D01*
X600905Y341850D01*
X601045Y342053D01*
X601165Y342266D01*
X601268Y342487D01*
X601351Y342717D01*
X601416Y342955D01*
X601463Y343202D01*
X601491Y343457D01*
X601500Y343722D01*
X603500D01*
X603509Y343457D01*
D02*
G37*
G36*
X542415Y341512D02*
X542616Y341351D01*
X542823Y341209D01*
X543038Y341087D01*
X543259Y340983D01*
X543488Y340899D01*
X543723Y340835D01*
X543966Y340789D01*
X544216Y340763D01*
X544472Y340756D01*
X541744Y338028D01*
X541737Y338284D01*
X541711Y338534D01*
X541665Y338776D01*
X541601Y339012D01*
X541517Y339241D01*
X541413Y339462D01*
X541291Y339677D01*
X541149Y339884D01*
X540988Y340085D01*
X540808Y340278D01*
X542222Y341692D01*
X542415Y341512D01*
D02*
G37*
G36*
X518192Y340278D02*
X518012Y340085D01*
X517851Y339884D01*
X517709Y339677D01*
X517587Y339462D01*
X517483Y339241D01*
X517399Y339012D01*
X517335Y338776D01*
X517289Y338534D01*
X517263Y338284D01*
X517256Y338028D01*
X514528Y340756D01*
X514784Y340763D01*
X515034Y340789D01*
X515276Y340835D01*
X515512Y340899D01*
X515741Y340983D01*
X515962Y341087D01*
X516177Y341209D01*
X516384Y341351D01*
X516585Y341512D01*
X516778Y341692D01*
X518192Y340278D01*
D02*
G37*
G36*
X517263Y337716D02*
X517289Y337466D01*
X517335Y337224D01*
X517399Y336988D01*
X517483Y336759D01*
X517587Y336538D01*
X517709Y336323D01*
X517851Y336116D01*
X518012Y335915D01*
X518192Y335722D01*
X516778Y334308D01*
X516585Y334488D01*
X516384Y334649D01*
X516177Y334791D01*
X515962Y334913D01*
X515741Y335017D01*
X515512Y335101D01*
X515276Y335165D01*
X515034Y335211D01*
X514784Y335237D01*
X514528Y335244D01*
X517256Y337972D01*
X517263Y337716D01*
D02*
G37*
G36*
X634952Y315000D02*
X463048D01*
Y376273D01*
X463509Y376464D01*
X471567Y368406D01*
X471662Y367441D01*
X472117Y365942D01*
X472856Y364560D01*
X473849Y363349D01*
X474721Y362634D01*
X474487Y362350D01*
X473930Y361307D01*
X473587Y360176D01*
X473471Y359000D01*
X473587Y357824D01*
X473930Y356693D01*
X474487Y355650D01*
X475237Y354737D01*
X476151Y353987D01*
X477193Y353430D01*
X478324Y353087D01*
X479400Y352981D01*
X479461Y352922D01*
X479696Y352795D01*
X479907Y352632D01*
X480271Y352482D01*
X480618Y352293D01*
X480877Y352231D01*
X481123Y352129D01*
X481514Y352077D01*
X481898Y351985D01*
X482164Y351992D01*
X482429Y351957D01*
X482820Y352008D01*
X483214Y352018D01*
X483469Y352094D01*
X483734Y352129D01*
X484098Y352280D01*
X484476Y352391D01*
X484704Y352530D01*
X484950Y352632D01*
X485263Y352872D01*
X485424Y352971D01*
X507500D01*
X508676Y353087D01*
X509807Y353430D01*
X510850Y353987D01*
X511471Y354497D01*
X511971Y354260D01*
Y345096D01*
X511951Y345081D01*
X511888Y345053D01*
X511430Y344681D01*
X510961Y344322D01*
X510919Y344267D01*
X510865Y344223D01*
X510519Y343745D01*
X510160Y343277D01*
X510134Y343213D01*
X510093Y343157D01*
X509882Y342606D01*
X509656Y342061D01*
X509647Y341992D01*
X509622Y341927D01*
X509573Y341455D01*
X509487Y341350D01*
X508930Y340307D01*
X508587Y339176D01*
X508471Y338000D01*
X508587Y336824D01*
X508930Y335693D01*
X509487Y334650D01*
X509573Y334545D01*
X509622Y334073D01*
X509647Y334008D01*
X509656Y333939D01*
X509882Y333394D01*
X510093Y332843D01*
X510134Y332787D01*
X510160Y332723D01*
X510519Y332255D01*
X510865Y331777D01*
X510919Y331733D01*
X510961Y331678D01*
X511430Y331319D01*
X511888Y330947D01*
X511951Y330919D01*
X512006Y330877D01*
X512551Y330651D01*
X513090Y330410D01*
X513158Y330399D01*
X513222Y330373D01*
X513658Y330316D01*
X525993Y317981D01*
X526906Y317231D01*
X527949Y316674D01*
X529080Y316331D01*
X530256Y316215D01*
X558244D01*
X559420Y316331D01*
X560551Y316674D01*
X561593Y317231D01*
X562507Y317981D01*
X582009Y337483D01*
X582471Y337291D01*
Y337200D01*
X582587Y336024D01*
X582930Y334893D01*
X583487Y333851D01*
X584237Y332937D01*
X590737Y326437D01*
X591650Y325687D01*
X592693Y325130D01*
X593824Y324787D01*
X595000Y324671D01*
X607500D01*
X608676Y324787D01*
X609807Y325130D01*
X610850Y325687D01*
X611763Y326437D01*
X615563Y330237D01*
X616313Y331151D01*
X616870Y332193D01*
X617213Y333324D01*
X617329Y334500D01*
Y377200D01*
X617213Y378376D01*
X616870Y379507D01*
X616313Y380550D01*
X615563Y381463D01*
X597933Y399094D01*
X597838Y400059D01*
X597383Y401558D01*
X596644Y402940D01*
X595651Y404151D01*
X594440Y405145D01*
X593058Y405883D01*
X591559Y406338D01*
X590000Y406491D01*
X588453Y406339D01*
X588124Y406326D01*
X587953Y406453D01*
Y406453D01*
X586029D01*
Y407953D01*
X585913Y409129D01*
X585570Y410260D01*
X585013Y411302D01*
X584263Y412216D01*
X564263Y432216D01*
X563349Y432966D01*
X562307Y433523D01*
X561176Y433866D01*
X560000Y433982D01*
X488953D01*
X488953Y433982D01*
X487777Y433866D01*
X486646Y433523D01*
X485603Y432966D01*
X484690Y432216D01*
X463509Y411036D01*
X463048Y411227D01*
Y437500D01*
X634952D01*
Y315000D01*
D02*
G37*
G36*
Y218548D02*
X463048D01*
Y309500D01*
X634952D01*
Y218548D01*
D02*
G37*
%LPC*%
G36*
X534250Y531529D02*
X504700D01*
X503524Y531413D01*
X502393Y531070D01*
X501350Y530513D01*
X500437Y529763D01*
X497937Y527263D01*
X497187Y526349D01*
X496630Y525307D01*
X496287Y524176D01*
X496171Y523000D01*
Y481800D01*
X496287Y480624D01*
X496630Y479493D01*
X497187Y478450D01*
X497937Y477537D01*
X503287Y472187D01*
X503356Y471480D01*
X503800Y470018D01*
X504520Y468670D01*
X505489Y467489D01*
X506670Y466520D01*
X508018Y465800D01*
X509480Y465356D01*
X511000Y465207D01*
X512520Y465356D01*
X513982Y465800D01*
X515330Y466520D01*
X515879Y466971D01*
X519200D01*
X520376Y467087D01*
X521507Y467430D01*
X521584Y467471D01*
X523121D01*
X523670Y467020D01*
X525018Y466300D01*
X526480Y465856D01*
X528000Y465707D01*
X529520Y465856D01*
X530982Y466300D01*
X532330Y467020D01*
X533511Y467989D01*
X534480Y469170D01*
X535200Y470518D01*
X535644Y471980D01*
X535793Y473500D01*
X535644Y475020D01*
X535200Y476482D01*
X534480Y477830D01*
X533543Y478971D01*
X533587Y479224D01*
X533675Y479471D01*
X539917D01*
X540086Y479000D01*
X539489Y478511D01*
X538520Y477330D01*
X537800Y475982D01*
X537356Y474520D01*
X537207Y473000D01*
X537356Y471480D01*
X537800Y470018D01*
X538520Y468670D01*
X539489Y467489D01*
X540670Y466520D01*
X542018Y465800D01*
X543480Y465356D01*
X544187Y465287D01*
X550837Y458637D01*
X551751Y457887D01*
X552793Y457330D01*
X553924Y456987D01*
X555100Y456871D01*
X565700D01*
X566876Y456987D01*
X568007Y457330D01*
X569050Y457887D01*
X569963Y458637D01*
X575063Y463737D01*
X575813Y464650D01*
X576370Y465693D01*
X576713Y466824D01*
X576829Y468000D01*
Y494700D01*
X576713Y495876D01*
X576370Y497007D01*
X575813Y498049D01*
X575063Y498963D01*
X573526Y500500D01*
X577763Y504737D01*
X577763Y504737D01*
X578513Y505651D01*
X579070Y506693D01*
X579413Y507824D01*
X579484Y508547D01*
X581453D01*
Y508547D01*
X581624Y508674D01*
X581953Y508661D01*
X583500Y508509D01*
X585059Y508662D01*
X586558Y509117D01*
X587940Y509856D01*
X589151Y510849D01*
X590144Y512060D01*
X590883Y513442D01*
X591338Y514941D01*
X591491Y516500D01*
X591338Y518059D01*
X590883Y519558D01*
X590144Y520940D01*
X589151Y522151D01*
X587940Y523144D01*
X586558Y523883D01*
X585059Y524338D01*
X583500Y524491D01*
X581953Y524339D01*
X581624Y524326D01*
X581453Y524453D01*
Y524453D01*
X565547D01*
Y510885D01*
X565118Y510628D01*
X564982Y510700D01*
X563520Y511144D01*
X562000Y511293D01*
X560480Y511144D01*
X559560Y510865D01*
X559270Y511299D01*
X559895Y512060D01*
X560633Y513442D01*
X561088Y514941D01*
X561241Y516500D01*
X561088Y518059D01*
X560633Y519558D01*
X559895Y520940D01*
X558901Y522151D01*
X557690Y523144D01*
X556308Y523883D01*
X554809Y524338D01*
X553250Y524491D01*
X551703Y524339D01*
X551373Y524326D01*
X551203Y524453D01*
Y524453D01*
X543824D01*
X538513Y529763D01*
X537600Y530513D01*
X536557Y531070D01*
X535426Y531413D01*
X534250Y531529D01*
D02*
G37*
%LPD*%
G36*
X535297Y515926D02*
Y509529D01*
X530497D01*
X529029Y510997D01*
Y516500D01*
X528913Y517676D01*
X528570Y518807D01*
X528444Y519042D01*
X528702Y519471D01*
X531753D01*
X535297Y515926D01*
D02*
G37*
G36*
X556094Y508530D02*
X555520Y507830D01*
X554800Y506482D01*
X554356Y505020D01*
X554207Y503500D01*
X554356Y501980D01*
X554800Y500518D01*
X555520Y499170D01*
X556489Y497989D01*
X557670Y497020D01*
X559018Y496300D01*
X560480Y495856D01*
X561187Y495787D01*
X564771Y492203D01*
Y481184D01*
X564369Y480886D01*
X563520Y481144D01*
X562813Y481213D01*
X554263Y489763D01*
X553349Y490513D01*
X552307Y491070D01*
X551176Y491413D01*
X550000Y491529D01*
X530997D01*
X524555Y497971D01*
X524857Y498377D01*
X525693Y497930D01*
X526824Y497587D01*
X528000Y497471D01*
X534316D01*
X534393Y497430D01*
X535524Y497087D01*
X536700Y496971D01*
X536700Y496971D01*
X545000D01*
X546176Y497087D01*
X547307Y497430D01*
X548350Y497987D01*
X549263Y498737D01*
X550013Y499650D01*
X550570Y500693D01*
X550913Y501824D01*
X551029Y503000D01*
X550913Y504176D01*
X550570Y505307D01*
X550013Y506350D01*
X549263Y507263D01*
X548350Y508013D01*
X548257Y508062D01*
X548379Y508547D01*
X551203D01*
Y508547D01*
X551373Y508674D01*
X551703Y508661D01*
X553250Y508509D01*
X554809Y508662D01*
X555804Y508964D01*
X556094Y508530D01*
D02*
G37*
G36*
X509480Y495356D02*
X510187Y495287D01*
X524237Y481237D01*
X524593Y480945D01*
X524544Y480447D01*
X523670Y479980D01*
X523121Y479529D01*
X519700D01*
X519700Y479529D01*
X518524Y479413D01*
X517393Y479070D01*
X517316Y479029D01*
X515879D01*
X515330Y479480D01*
X513982Y480200D01*
X512520Y480644D01*
X511813Y480713D01*
X508229Y484297D01*
Y495316D01*
X508631Y495614D01*
X509480Y495356D01*
D02*
G37*
%LPC*%
G36*
X548000Y306793D02*
X546480Y306644D01*
X545018Y306200D01*
X543670Y305480D01*
X542489Y304511D01*
X541520Y303330D01*
X540800Y301982D01*
X540356Y300520D01*
X540207Y299000D01*
X540216Y298900D01*
X539881Y298529D01*
X531000D01*
X529824Y298413D01*
X528693Y298070D01*
X527650Y297513D01*
X526737Y296763D01*
X522000Y292026D01*
X520785Y293241D01*
X521200Y294018D01*
X521644Y295480D01*
X521793Y297000D01*
X521644Y298520D01*
X521200Y299982D01*
X520480Y301330D01*
X519511Y302511D01*
X518330Y303480D01*
X516982Y304200D01*
X515520Y304644D01*
X514000Y304793D01*
X512480Y304644D01*
X511018Y304200D01*
X509670Y303480D01*
X508489Y302511D01*
X507520Y301330D01*
X506800Y299982D01*
X506356Y298520D01*
X506207Y297000D01*
X506356Y295480D01*
X506800Y294018D01*
X507520Y292670D01*
X507971Y292121D01*
Y291500D01*
X508087Y290324D01*
X508430Y289193D01*
X508987Y288151D01*
X509737Y287237D01*
X515971Y281003D01*
Y273500D01*
X516087Y272324D01*
X516430Y271193D01*
X516987Y270150D01*
X517051Y270073D01*
X517162Y268941D01*
X517617Y267442D01*
X518356Y266060D01*
X519349Y264849D01*
X520560Y263856D01*
X521942Y263117D01*
X523441Y262662D01*
X525000Y262509D01*
X526547Y262661D01*
X526876Y262674D01*
X527047Y262547D01*
Y262547D01*
X542953D01*
Y278453D01*
X528029D01*
Y281003D01*
X533497Y286471D01*
X548000D01*
X549176Y286587D01*
X550307Y286930D01*
X551349Y287487D01*
X552263Y288237D01*
X553013Y289151D01*
X553570Y290193D01*
X553913Y291324D01*
X554029Y292500D01*
Y294121D01*
X554480Y294670D01*
X555200Y296018D01*
X555644Y297480D01*
X555793Y299000D01*
X555644Y300520D01*
X555200Y301982D01*
X554480Y303330D01*
X553511Y304511D01*
X552330Y305480D01*
X550982Y306200D01*
X549520Y306644D01*
X548000Y306793D01*
D02*
G37*
G36*
X578000D02*
X576480Y306644D01*
X575018Y306200D01*
X573670Y305480D01*
X572489Y304511D01*
X571520Y303330D01*
X570800Y301982D01*
X570356Y300520D01*
X570207Y299000D01*
X570356Y297480D01*
X570800Y296018D01*
X571520Y294670D01*
X571971Y294121D01*
Y292500D01*
X572087Y291324D01*
X572430Y290193D01*
X572987Y289151D01*
X573737Y288237D01*
X574650Y287487D01*
X575693Y286930D01*
X576824Y286587D01*
X578000Y286471D01*
X591503D01*
X598521Y279453D01*
X598314Y278953D01*
X595594D01*
X595563Y278982D01*
X595490Y279036D01*
X590763Y283763D01*
X589850Y284513D01*
X588807Y285070D01*
X587676Y285413D01*
X586500Y285529D01*
X566500D01*
X565324Y285413D01*
X564193Y285070D01*
X563151Y284513D01*
X562237Y283763D01*
X556926Y278453D01*
X552547D01*
Y262547D01*
X561868D01*
X562059Y262085D01*
X559737Y259763D01*
X558987Y258850D01*
X558430Y257807D01*
X558087Y256676D01*
X557971Y255500D01*
Y255150D01*
X545850D01*
Y253029D01*
X540500D01*
X539324Y252913D01*
X538193Y252570D01*
X537150Y252013D01*
X536237Y251263D01*
X536003Y251029D01*
X523303D01*
X522982Y251200D01*
X521520Y251644D01*
X520258Y251768D01*
X509529Y262497D01*
Y263047D01*
X511453D01*
Y278953D01*
X498992D01*
X498513Y279850D01*
X498029Y280439D01*
Y289000D01*
X497913Y290176D01*
X497570Y291307D01*
X497013Y292350D01*
X496263Y293263D01*
X488263Y301263D01*
X487350Y302013D01*
X486307Y302570D01*
X485176Y302913D01*
X484000Y303029D01*
X482824Y302913D01*
X481693Y302570D01*
X480651Y302013D01*
X479737Y301263D01*
X478987Y300349D01*
X478430Y299307D01*
X478087Y298176D01*
X477971Y297000D01*
X478087Y295824D01*
X478430Y294693D01*
X478987Y293651D01*
X479737Y292737D01*
X485971Y286503D01*
Y278000D01*
X486087Y276824D01*
X486430Y275693D01*
X486987Y274651D01*
X487471Y274061D01*
Y271000D01*
Y251497D01*
X484237Y248263D01*
X483487Y247350D01*
X482930Y246307D01*
X482587Y245176D01*
X482471Y244000D01*
X482587Y242824D01*
X482930Y241693D01*
X483487Y240651D01*
X484237Y239737D01*
X496237Y227737D01*
X497151Y226987D01*
X498193Y226430D01*
X499324Y226087D01*
X500500Y225971D01*
X565300D01*
X566476Y226087D01*
X567607Y226430D01*
X568649Y226987D01*
X569563Y227737D01*
X578263Y236437D01*
X579013Y237351D01*
X579570Y238393D01*
X579913Y239524D01*
X580029Y240700D01*
Y240971D01*
X601500D01*
X602676Y241087D01*
X603807Y241430D01*
X604849Y241987D01*
X605763Y242737D01*
X619263Y256237D01*
X620013Y257151D01*
X620570Y258193D01*
X620913Y259324D01*
X621029Y260500D01*
Y271000D01*
X620913Y272176D01*
X620570Y273307D01*
X620013Y274349D01*
X619263Y275263D01*
X618350Y276013D01*
X617307Y276570D01*
X616176Y276913D01*
X615000Y277029D01*
X613824Y276913D01*
X612693Y276570D01*
X611651Y276013D01*
X611366Y275779D01*
X611029Y276190D01*
Y281500D01*
X610913Y282676D01*
X610570Y283807D01*
X610013Y284850D01*
X609263Y285763D01*
X598263Y296763D01*
X597350Y297513D01*
X596307Y298070D01*
X595176Y298413D01*
X594000Y298529D01*
X586119D01*
X585783Y298900D01*
X585793Y299000D01*
X585644Y300520D01*
X585200Y301982D01*
X584480Y303330D01*
X583511Y304511D01*
X582330Y305480D01*
X580982Y306200D01*
X579520Y306644D01*
X578000Y306793D01*
D02*
G37*
%LPD*%
G36*
X592470Y274958D02*
X593207Y274333D01*
X593533Y274106D01*
X593830Y273935D01*
X594099Y273820D01*
X594339Y273763D01*
X594550Y273761D01*
X594733Y273817D01*
X594888Y273929D01*
X592071Y271112D01*
X592183Y271267D01*
X592239Y271450D01*
X592237Y271661D01*
X592180Y271901D01*
X592065Y272170D01*
X591894Y272467D01*
X591667Y272793D01*
X591383Y273147D01*
X590645Y273941D01*
X592059Y275355D01*
X592470Y274958D01*
D02*
G37*
G36*
X586914Y270560D02*
X586951Y270508D01*
X587047Y270404D01*
Y263047D01*
X602953D01*
Y263047D01*
X603124Y263174D01*
X603453Y263161D01*
X605000Y263009D01*
X606559Y263162D01*
X608058Y263617D01*
X608542Y263876D01*
X608971Y263619D01*
Y262997D01*
X599003Y253029D01*
X574000D01*
X572824Y252913D01*
X571693Y252570D01*
X570650Y252013D01*
X570518Y251904D01*
X570029Y252500D01*
Y253003D01*
X574763Y257737D01*
X575513Y258650D01*
X576070Y259693D01*
X576413Y260824D01*
X576529Y262000D01*
Y265310D01*
X577144Y266060D01*
X577883Y267442D01*
X578338Y268941D01*
X578491Y270500D01*
X578338Y272059D01*
X578031Y273069D01*
X578329Y273471D01*
X584003D01*
X586914Y270560D01*
D02*
G37*
G36*
X550874Y245000D02*
X550854Y245190D01*
X550794Y245360D01*
X550693Y245510D01*
X550553Y245640D01*
X550371Y245750D01*
X550150Y245840D01*
X549889Y245910D01*
X549587Y245960D01*
X549245Y245990D01*
X548862Y246000D01*
Y248000D01*
X549245Y248010D01*
X549587Y248040D01*
X549889Y248090D01*
X550150Y248160D01*
X550371Y248250D01*
X550553Y248360D01*
X550693Y248490D01*
X550794Y248640D01*
X550854Y248810D01*
X550874Y249000D01*
Y245000D01*
D02*
G37*
G36*
X545850Y238850D02*
X562150D01*
X562150Y238850D01*
X562650Y238944D01*
X563040Y238906D01*
X563208Y238435D01*
X562803Y238029D01*
X525675D01*
X525587Y238276D01*
X525543Y238529D01*
X525906Y238971D01*
X538500D01*
X539676Y239087D01*
X540807Y239430D01*
X541850Y239987D01*
X542763Y240737D01*
X542997Y240971D01*
X545850D01*
Y238850D01*
D02*
G37*
G36*
X512341Y242632D02*
X512356Y242480D01*
X512800Y241018D01*
X513520Y239670D01*
X514457Y238529D01*
X514413Y238276D01*
X514325Y238029D01*
X502997D01*
X497026Y244000D01*
X497763Y244737D01*
X498513Y245651D01*
X499070Y246693D01*
X499413Y247824D01*
X499529Y249000D01*
Y254791D01*
X499991Y254983D01*
X512341Y242632D01*
D02*
G37*
D11*
X578000Y299000D02*
D03*
X548000D02*
D03*
X514000Y297000D02*
D03*
X484000D02*
D03*
X520000Y244000D02*
D03*
X490000D02*
D03*
X602500Y339500D02*
D03*
X572500D02*
D03*
X544500Y338000D02*
D03*
X514500D02*
D03*
X562000Y473500D02*
D03*
Y503500D02*
D03*
X511000Y503000D02*
D03*
Y473000D02*
D03*
X528000Y473500D02*
D03*
Y503500D02*
D03*
X545000Y473000D02*
D03*
Y503000D02*
D03*
D12*
X578500Y368500D02*
D03*
X588500D02*
D03*
X518000Y369500D02*
D03*
X528000D02*
D03*
X574000Y247000D02*
D03*
X564000D02*
D03*
D13*
X598500Y368500D02*
D03*
X538000Y369500D02*
D03*
X554000Y247000D02*
D03*
D14*
X560500Y270500D02*
D03*
X535000D02*
D03*
X513000Y516500D02*
D03*
X573500D02*
D03*
X543250D02*
D03*
X485500Y398000D02*
D03*
X541250D02*
D03*
X580000Y398500D02*
D03*
X595000Y271000D02*
D03*
X503500D02*
D03*
D15*
X570500Y270500D02*
D03*
X525000D02*
D03*
X479500Y369000D02*
D03*
X523000Y516500D02*
D03*
X583500D02*
D03*
X553250D02*
D03*
X495500Y398000D02*
D03*
X531250D02*
D03*
X590000Y398500D02*
D03*
X605000Y271000D02*
D03*
X615000D02*
D03*
X493500D02*
D03*
D16*
X479500Y359000D02*
D03*
D17*
X520000Y244000D02*
X521000Y245000D01*
X538500D01*
X540500Y247000D01*
X503500Y260000D02*
X519000Y244500D01*
X503500Y260000D02*
Y271000D01*
X500500Y232000D02*
X565300D01*
X488500Y244000D02*
X500500Y232000D01*
X488500Y244000D02*
X493500Y249000D01*
X565300Y232000D02*
X574000Y240700D01*
X578000Y292500D02*
Y299000D01*
X548000Y292500D02*
Y299000D01*
X514000Y291500D02*
X522000Y283500D01*
X514000Y291500D02*
Y297000D01*
X484000D02*
X492000Y289000D01*
Y278000D02*
Y289000D01*
X488953Y427953D02*
X560000D01*
X467047Y406047D02*
X488953Y427953D01*
X560000D02*
X580000Y407953D01*
X550200Y420953D02*
X563100Y408053D01*
X506453Y420953D02*
X550200D01*
X495500Y410000D02*
X506453Y420953D01*
X543247Y413953D02*
X550300Y406900D01*
X518000Y413953D02*
X543247D01*
X505476Y401429D02*
X518000Y413953D01*
X539697Y406953D02*
X541250Y405400D01*
X521800Y406953D02*
X539697D01*
X512500Y397653D02*
X521800Y406953D01*
X578500Y342500D02*
Y345500D01*
X558244Y322244D02*
X578500Y342500D01*
X531000Y292500D02*
X548000D01*
X522000Y283500D02*
X531000Y292500D01*
X522000Y273500D02*
Y283500D01*
Y273500D02*
X525000Y270500D01*
X513000Y505000D02*
Y516500D01*
X511000Y503000D02*
X513000Y505000D01*
X467047Y381453D02*
X479500Y369000D01*
X467047Y381453D02*
Y406047D01*
X580000Y398500D02*
Y407953D01*
X560500Y270500D02*
Y273500D01*
X566500Y279500D01*
X586500D01*
X595000Y271000D01*
X523000Y508500D02*
Y516500D01*
Y508500D02*
X528000Y503500D01*
X574000Y240700D02*
Y247000D01*
X493500Y249000D02*
Y271000D01*
X479500Y359000D02*
X507500D01*
X518000Y369500D01*
X541250Y398000D02*
Y405400D01*
X512500Y387700D02*
Y397653D01*
X493800Y369000D02*
X512500Y387700D01*
X479500Y369000D02*
X493800D01*
X602500Y339500D02*
Y364500D01*
X598500Y368500D02*
X602500Y364500D01*
X530256Y322244D02*
X558244D01*
X514500Y338000D02*
X530256Y322244D01*
X578500Y345500D02*
Y368500D01*
X572500Y339500D02*
X578500Y345500D01*
X588500Y337200D02*
Y368500D01*
Y337200D02*
X595000Y330700D01*
X607500D01*
X611300Y334500D01*
Y377200D01*
X590000Y398500D02*
X611300Y377200D01*
X495500Y398000D02*
Y410000D01*
X563100Y400000D02*
Y408053D01*
Y400000D02*
X579400Y383700D01*
X590000D01*
X598500Y375200D01*
Y368500D02*
Y375200D01*
X518000Y341500D02*
Y369500D01*
X514500Y338000D02*
X518000Y341500D01*
X538000Y369500D02*
X550300Y381800D01*
Y406900D01*
X505476Y393524D02*
Y401429D01*
X501000Y389047D02*
X505476Y393524D01*
X491453Y389047D02*
X501000D01*
X485500Y395000D02*
X491453Y389047D01*
X485500Y395000D02*
Y398000D01*
X511000Y503000D02*
X528500Y485500D01*
X550000D01*
X562000Y473500D01*
Y503500D02*
X570800Y494700D01*
Y468000D02*
Y494700D01*
X565700Y462900D02*
X570800Y468000D01*
X555100Y462900D02*
X565700D01*
X545000Y473000D02*
X555100Y462900D01*
X538000Y344500D02*
Y369500D01*
Y344500D02*
X544500Y338000D01*
X528000Y369500D02*
Y394750D01*
X531250Y398000D01*
X502200Y481800D02*
X511000Y473000D01*
X502200Y481800D02*
Y523000D01*
X504700Y525500D01*
X534250D01*
X543250Y516500D01*
X562000Y503500D02*
X568000D01*
X573500Y509000D01*
Y516500D01*
X605000Y271000D02*
Y281500D01*
X594000Y292500D02*
X605000Y281500D01*
X578000Y292500D02*
X594000D01*
X615000Y260500D02*
Y271000D01*
X601500Y247000D02*
X615000Y260500D01*
X574000Y247000D02*
X601500D01*
X525000Y270500D02*
X535000D01*
X573500Y516500D02*
X583500D01*
X543250D02*
X553250D01*
X519700Y473500D02*
X528000D01*
X519200Y473000D02*
X519700Y473500D01*
X511000Y473000D02*
X519200D01*
X536700Y503000D02*
X545000D01*
X536200Y503500D02*
X536700Y503000D01*
X528000Y503500D02*
X536200D01*
X492000Y278000D02*
X493500Y276500D01*
Y271000D02*
Y276500D01*
X570500Y262000D02*
Y270500D01*
X564000Y255500D02*
X570500Y262000D01*
X564000Y247000D02*
Y255500D01*
X540500Y247000D02*
X554000D01*
M02*
