G04 Layer_Physical_Order=1*
G04 Layer_Color=255*
%FSLAX25Y25*%
%MOIN*%
G70*
G01*
G75*
%ADD10C,0.01000*%
%ADD11C,0.05512*%
%ADD12C,0.06299*%
%ADD13R,0.06299X0.06299*%
%ADD14R,0.05906X0.05906*%
%ADD15C,0.05906*%
%ADD16R,0.05906X0.05906*%
G36*
X634952Y450000D02*
X463048D01*
Y539953D01*
X634952D01*
Y450000D01*
D02*
G37*
G36*
Y315000D02*
X463048D01*
Y345500D01*
X477000D01*
Y355047D01*
X479000D01*
Y359000D01*
X479500D01*
Y359500D01*
X483453D01*
Y362095D01*
X483940Y362355D01*
X485151Y363349D01*
X486144Y364560D01*
X486883Y365942D01*
X487338Y367441D01*
X487491Y369000D01*
X487338Y370559D01*
X486883Y372058D01*
X486144Y373440D01*
X485151Y374651D01*
X483940Y375644D01*
X482558Y376383D01*
X481059Y376838D01*
X479500Y376991D01*
X477941Y376838D01*
X477402Y376674D01*
X477000Y376972D01*
Y377500D01*
X485500D01*
Y390047D01*
X493453D01*
Y390047D01*
X493623Y390174D01*
X493953Y390161D01*
X495500Y390009D01*
X497059Y390162D01*
X498558Y390617D01*
X499940Y391355D01*
X501151Y392349D01*
X502144Y393560D01*
X502883Y394942D01*
X503338Y396441D01*
X503491Y398000D01*
X503338Y399559D01*
X502883Y401058D01*
X502144Y402440D01*
X501151Y403651D01*
X499940Y404644D01*
X498558Y405383D01*
X497059Y405838D01*
X495500Y405991D01*
X493953Y405839D01*
X493623Y405826D01*
X493453Y405953D01*
Y405953D01*
X477547D01*
Y405495D01*
X463048D01*
Y437500D01*
X634952D01*
Y315000D01*
D02*
G37*
G36*
Y218548D02*
X463048D01*
Y309500D01*
X634952D01*
Y218548D01*
D02*
G37*
%LPC*%
G36*
X526921Y516000D02*
X523500D01*
Y512579D01*
X524032Y512649D01*
X524993Y513047D01*
X525819Y513681D01*
X526453Y514507D01*
X526851Y515468D01*
X526921Y516000D01*
D02*
G37*
G36*
X596493Y537998D02*
X500500D01*
Y520000D01*
X505047D01*
Y508547D01*
X505047Y508547D01*
X505047D01*
X505109Y508047D01*
X504520Y507330D01*
X503800Y505982D01*
X503356Y504520D01*
X503207Y503000D01*
X503356Y501480D01*
X503800Y500018D01*
X504520Y498670D01*
X505489Y497489D01*
X506670Y496520D01*
X508018Y495800D01*
X509480Y495356D01*
X511000Y495207D01*
X512520Y495356D01*
X513982Y495800D01*
X515330Y496520D01*
X516511Y497489D01*
X517480Y498670D01*
X518200Y500018D01*
X518644Y501480D01*
X518793Y503000D01*
X518644Y504520D01*
X518200Y505982D01*
X517480Y507330D01*
X516891Y508047D01*
X517128Y508547D01*
X520953D01*
Y512528D01*
X521453Y512862D01*
X521968Y512649D01*
X522500Y512579D01*
Y516500D01*
X523000D01*
Y517000D01*
X526921D01*
X526851Y517532D01*
X526453Y518493D01*
X525819Y519319D01*
X525583Y519500D01*
X525753Y520000D01*
X535297D01*
Y508547D01*
X551203D01*
Y508547D01*
X551373Y508674D01*
X551703Y508661D01*
X553250Y508509D01*
X554809Y508662D01*
X555804Y508964D01*
X556094Y508530D01*
X555520Y507830D01*
X554800Y506482D01*
X554356Y505020D01*
X554207Y503500D01*
X554356Y501980D01*
X554800Y500518D01*
X555520Y499170D01*
X556489Y497989D01*
X557670Y497020D01*
X559018Y496300D01*
X560480Y495856D01*
X562000Y495707D01*
X563520Y495856D01*
X564982Y496300D01*
X566330Y497020D01*
X567511Y497989D01*
X568480Y499170D01*
X569200Y500518D01*
X569644Y501980D01*
X569793Y503500D01*
X569644Y505020D01*
X569200Y506482D01*
X568480Y507830D01*
X568262Y508095D01*
X568476Y508547D01*
X581453D01*
Y508547D01*
X581624Y508674D01*
X581953Y508661D01*
X583500Y508509D01*
X585059Y508662D01*
X586558Y509117D01*
X587940Y509856D01*
X589151Y510849D01*
X590144Y512060D01*
X590883Y513442D01*
X591338Y514941D01*
X591491Y516500D01*
X591338Y518059D01*
X590901Y519500D01*
X591055Y519869D01*
X591133Y520000D01*
X596493D01*
Y537998D01*
D02*
G37*
G36*
X528500Y507223D02*
Y504000D01*
X531722D01*
X531659Y504481D01*
X531281Y505394D01*
X530679Y506179D01*
X529894Y506781D01*
X528980Y507159D01*
X528500Y507223D01*
D02*
G37*
G36*
X527500D02*
X527020Y507159D01*
X526106Y506781D01*
X525321Y506179D01*
X524719Y505394D01*
X524341Y504481D01*
X524277Y504000D01*
X527500D01*
Y507223D01*
D02*
G37*
G36*
X545500Y506722D02*
Y503500D01*
X548723D01*
X548659Y503980D01*
X548281Y504894D01*
X547679Y505679D01*
X546894Y506281D01*
X545981Y506659D01*
X545500Y506722D01*
D02*
G37*
G36*
X544500D02*
X544020Y506659D01*
X543106Y506281D01*
X542321Y505679D01*
X541719Y504894D01*
X541341Y503980D01*
X541278Y503500D01*
X544500D01*
Y506722D01*
D02*
G37*
G36*
X531722Y503000D02*
X528500D01*
Y499778D01*
X528980Y499841D01*
X529894Y500219D01*
X530679Y500821D01*
X531281Y501606D01*
X531659Y502520D01*
X531722Y503000D01*
D02*
G37*
G36*
X527500D02*
X524277D01*
X524341Y502520D01*
X524719Y501606D01*
X525321Y500821D01*
X526106Y500219D01*
X527020Y499841D01*
X527500Y499778D01*
Y503000D01*
D02*
G37*
G36*
X548723Y502500D02*
X545500D01*
Y499277D01*
X545981Y499341D01*
X546894Y499719D01*
X547679Y500321D01*
X548281Y501106D01*
X548659Y502020D01*
X548723Y502500D01*
D02*
G37*
G36*
X544500D02*
X541278D01*
X541341Y502020D01*
X541719Y501106D01*
X542321Y500321D01*
X543106Y499719D01*
X544020Y499341D01*
X544500Y499277D01*
Y502500D01*
D02*
G37*
G36*
X562000Y481293D02*
X560480Y481144D01*
X559018Y480700D01*
X557670Y479980D01*
X556489Y479011D01*
X555520Y477830D01*
X554800Y476482D01*
X554356Y475020D01*
X554207Y473500D01*
X554356Y471980D01*
X554800Y470518D01*
X554848Y470427D01*
X554591Y469998D01*
X552717D01*
X552346Y470498D01*
X552644Y471480D01*
X552793Y473000D01*
X552644Y474520D01*
X552200Y475982D01*
X551480Y477330D01*
X550511Y478511D01*
X549330Y479480D01*
X547982Y480200D01*
X546520Y480644D01*
X545000Y480793D01*
X543480Y480644D01*
X542018Y480200D01*
X540670Y479480D01*
X539489Y478511D01*
X538520Y477330D01*
X537800Y475982D01*
X537356Y474520D01*
X537207Y473000D01*
X537356Y471480D01*
X537654Y470498D01*
X537283Y469998D01*
X535409D01*
X535152Y470427D01*
X535200Y470518D01*
X535644Y471980D01*
X535793Y473500D01*
X535644Y475020D01*
X535200Y476482D01*
X534480Y477830D01*
X533511Y479011D01*
X532330Y479980D01*
X530982Y480700D01*
X529520Y481144D01*
X528000Y481293D01*
X526480Y481144D01*
X525018Y480700D01*
X523670Y479980D01*
X522489Y479011D01*
X521520Y477830D01*
X520800Y476482D01*
X520356Y475020D01*
X520207Y473500D01*
X520356Y471980D01*
X520800Y470518D01*
X520848Y470427D01*
X520591Y469998D01*
X518717D01*
X518346Y470498D01*
X518644Y471480D01*
X518793Y473000D01*
X518644Y474520D01*
X518200Y475982D01*
X517480Y477330D01*
X516511Y478511D01*
X515330Y479480D01*
X513982Y480200D01*
X512520Y480644D01*
X511000Y480793D01*
X509480Y480644D01*
X508018Y480200D01*
X506670Y479480D01*
X505489Y478511D01*
X504520Y477330D01*
X503800Y475982D01*
X503356Y474520D01*
X503207Y473000D01*
X503356Y471480D01*
X503800Y470018D01*
X504520Y468670D01*
X505489Y467489D01*
X506670Y466520D01*
X508018Y465800D01*
X509480Y465356D01*
X511000Y465207D01*
Y452000D01*
X559495D01*
Y465735D01*
X559896Y466033D01*
X560480Y465856D01*
X562000Y465707D01*
X563520Y465856D01*
X564982Y466300D01*
X566330Y467020D01*
X567511Y467989D01*
X568480Y469170D01*
X569200Y470518D01*
X569644Y471980D01*
X569793Y473500D01*
X569644Y475020D01*
X569200Y476482D01*
X568480Y477830D01*
X567511Y479011D01*
X566330Y479980D01*
X564982Y480700D01*
X563520Y481144D01*
X562000Y481293D01*
D02*
G37*
%LPD*%
G36*
X565547Y510885D02*
X565118Y510628D01*
X564982Y510700D01*
X563520Y511144D01*
X562000Y511293D01*
X560480Y511144D01*
X559560Y510865D01*
X559270Y511299D01*
X559895Y512060D01*
X560633Y513442D01*
X561088Y514941D01*
X561241Y516500D01*
X561088Y518059D01*
X560651Y519500D01*
X560805Y519869D01*
X560883Y520000D01*
X565547D01*
Y510885D01*
D02*
G37*
%LPC*%
G36*
X579000Y410495D02*
X561002D01*
Y383500D01*
X579000D01*
Y390547D01*
X587953D01*
Y390547D01*
X588124Y390674D01*
X588453Y390661D01*
X590000Y390509D01*
X591559Y390662D01*
X593058Y391117D01*
X594440Y391856D01*
X595651Y392849D01*
X596644Y394060D01*
X597383Y395442D01*
X597838Y396941D01*
X597991Y398500D01*
X597838Y400059D01*
X597383Y401558D01*
X596644Y402940D01*
X595651Y404151D01*
X594440Y405145D01*
X593058Y405883D01*
X591559Y406338D01*
X590000Y406491D01*
X588453Y406339D01*
X588124Y406326D01*
X587953Y406453D01*
Y406453D01*
X579000D01*
Y410495D01*
D02*
G37*
G36*
X530500D02*
X512502D01*
Y383500D01*
X530500D01*
Y389710D01*
X530870Y390046D01*
X531250Y390009D01*
X532797Y390161D01*
X533126Y390174D01*
X533297Y390047D01*
Y390047D01*
X549203D01*
Y405953D01*
X533297D01*
Y405953D01*
X533126Y405826D01*
X532797Y405839D01*
X531250Y405991D01*
X530870Y405954D01*
X530500Y406290D01*
Y410495D01*
D02*
G37*
G36*
X528000Y377689D02*
X526402Y377532D01*
X524866Y377066D01*
X523450Y376309D01*
X522210Y375290D01*
X521191Y374050D01*
X520703Y373137D01*
X520214Y373031D01*
X520093Y373125D01*
X519083Y373543D01*
X518500Y373620D01*
Y369500D01*
Y365380D01*
X519083Y365457D01*
X520093Y365875D01*
X520214Y365969D01*
X520703Y365863D01*
X521191Y364950D01*
X522210Y363709D01*
X523450Y362691D01*
X524866Y361934D01*
X526402Y361468D01*
X528000Y361311D01*
X529350Y361444D01*
X529850Y361350D01*
Y361350D01*
X546150D01*
Y377650D01*
X529850D01*
X529850Y377650D01*
X529350Y377556D01*
X528000Y377689D01*
D02*
G37*
G36*
X588500Y376689D02*
X586902Y376532D01*
X585366Y376066D01*
X583950Y375309D01*
X582710Y374290D01*
X581691Y373050D01*
X581203Y372137D01*
X580714Y372031D01*
X580593Y372125D01*
X579583Y372543D01*
X579000Y372620D01*
Y368500D01*
Y364380D01*
X579583Y364457D01*
X580593Y364875D01*
X580714Y364969D01*
X581203Y364863D01*
X581691Y363950D01*
X582710Y362709D01*
X583950Y361691D01*
X585366Y360934D01*
X586902Y360468D01*
X588500Y360311D01*
X589850Y360444D01*
X590350Y360350D01*
Y360350D01*
X606650D01*
Y376650D01*
X590350D01*
X590350Y376650D01*
X589850Y376556D01*
X588500Y376689D01*
D02*
G37*
G36*
X517500Y373620D02*
X516917Y373543D01*
X515907Y373125D01*
X515040Y372460D01*
X514375Y371593D01*
X513957Y370583D01*
X513880Y370000D01*
X517500D01*
Y373620D01*
D02*
G37*
G36*
X578000Y372620D02*
X577417Y372543D01*
X576407Y372125D01*
X575540Y371460D01*
X574875Y370593D01*
X574457Y369583D01*
X574380Y369000D01*
X578000D01*
Y372620D01*
D02*
G37*
G36*
X517500Y369000D02*
X513880D01*
X513957Y368417D01*
X514375Y367407D01*
X515040Y366541D01*
X515907Y365875D01*
X516917Y365457D01*
X517500Y365380D01*
Y369000D01*
D02*
G37*
G36*
X578000Y368000D02*
X574380D01*
X574457Y367417D01*
X574875Y366407D01*
X575540Y365541D01*
X576407Y364875D01*
X577417Y364457D01*
X578000Y364380D01*
Y368000D01*
D02*
G37*
G36*
X483453Y358500D02*
X480000D01*
Y355047D01*
X483453D01*
Y358500D01*
D02*
G37*
G36*
X573000Y343222D02*
Y340000D01*
X576223D01*
X576159Y340480D01*
X575781Y341394D01*
X575179Y342179D01*
X574394Y342781D01*
X573481Y343159D01*
X573000Y343222D01*
D02*
G37*
G36*
X572000D02*
X571520Y343159D01*
X570606Y342781D01*
X569821Y342179D01*
X569219Y341394D01*
X568841Y340480D01*
X568778Y340000D01*
X572000D01*
Y343222D01*
D02*
G37*
G36*
X515000Y341722D02*
Y338500D01*
X518223D01*
X518159Y338981D01*
X517781Y339894D01*
X517179Y340679D01*
X516394Y341281D01*
X515481Y341659D01*
X515000Y341722D01*
D02*
G37*
G36*
X514000D02*
X513519Y341659D01*
X512606Y341281D01*
X511821Y340679D01*
X511219Y339894D01*
X510841Y338981D01*
X510778Y338500D01*
X514000D01*
Y341722D01*
D02*
G37*
G36*
X576223Y339000D02*
X573000D01*
Y335777D01*
X573481Y335841D01*
X574394Y336219D01*
X575179Y336821D01*
X575781Y337606D01*
X576159Y338520D01*
X576223Y339000D01*
D02*
G37*
G36*
X572000D02*
X568778D01*
X568841Y338520D01*
X569219Y337606D01*
X569821Y336821D01*
X570606Y336219D01*
X571520Y335841D01*
X572000Y335777D01*
Y339000D01*
D02*
G37*
G36*
X518223Y337500D02*
X515000D01*
Y334278D01*
X515481Y334341D01*
X516394Y334719D01*
X517179Y335321D01*
X517781Y336106D01*
X518159Y337019D01*
X518223Y337500D01*
D02*
G37*
G36*
X514000D02*
X510778D01*
X510841Y337019D01*
X511219Y336106D01*
X511821Y335321D01*
X512606Y334719D01*
X513519Y334341D01*
X514000Y334278D01*
Y337500D01*
D02*
G37*
G36*
X602500Y347293D02*
X600980Y347144D01*
X599518Y346700D01*
X598170Y345980D01*
X596989Y345011D01*
X596020Y343830D01*
X595300Y342482D01*
X594856Y341020D01*
X594707Y339500D01*
X594856Y337980D01*
X595300Y336518D01*
X596020Y335170D01*
X596989Y333989D01*
X598170Y333020D01*
X599518Y332300D01*
X600980Y331856D01*
X602500Y331707D01*
X604020Y331856D01*
X605482Y332300D01*
X606830Y333020D01*
X608011Y333989D01*
X608980Y335170D01*
X609700Y336518D01*
X610144Y337980D01*
X610293Y339500D01*
X610144Y341020D01*
X609700Y342482D01*
X608980Y343830D01*
X608011Y345011D01*
X606830Y345980D01*
X605482Y346700D01*
X604020Y347144D01*
X602500Y347293D01*
D02*
G37*
G36*
X544500Y345793D02*
X542980Y345644D01*
X541518Y345200D01*
X540170Y344480D01*
X538989Y343511D01*
X538020Y342330D01*
X537300Y340982D01*
X536856Y339520D01*
X536707Y338000D01*
X536856Y336480D01*
X537300Y335018D01*
X538020Y333670D01*
X538989Y332489D01*
X540170Y331520D01*
X541518Y330800D01*
X542980Y330356D01*
X544500Y330207D01*
X546020Y330356D01*
X547482Y330800D01*
X548830Y331520D01*
X550011Y332489D01*
X550980Y333670D01*
X551700Y335018D01*
X552144Y336480D01*
X552293Y338000D01*
X552144Y339520D01*
X551700Y340982D01*
X550980Y342330D01*
X550011Y343511D01*
X548830Y344480D01*
X547482Y345200D01*
X546020Y345644D01*
X544500Y345793D01*
D02*
G37*
G36*
X484500Y300723D02*
Y297500D01*
X487722D01*
X487659Y297980D01*
X487281Y298894D01*
X486679Y299679D01*
X485894Y300281D01*
X484980Y300659D01*
X484500Y300723D01*
D02*
G37*
G36*
X483500D02*
X483019Y300659D01*
X482106Y300281D01*
X481321Y299679D01*
X480719Y298894D01*
X480341Y297980D01*
X480277Y297500D01*
X483500D01*
Y300723D01*
D02*
G37*
G36*
X487722Y296500D02*
X484500D01*
Y293278D01*
X484980Y293341D01*
X485894Y293719D01*
X486679Y294321D01*
X487281Y295106D01*
X487659Y296020D01*
X487722Y296500D01*
D02*
G37*
G36*
X483500D02*
X480277D01*
X480341Y296020D01*
X480719Y295106D01*
X481321Y294321D01*
X482106Y293719D01*
X483019Y293341D01*
X483500Y293278D01*
Y296500D01*
D02*
G37*
G36*
X548000Y306793D02*
X546480Y306644D01*
X545018Y306200D01*
X543670Y305480D01*
X542489Y304511D01*
X541520Y303330D01*
X540800Y301982D01*
X540356Y300520D01*
X540207Y299000D01*
X540356Y297480D01*
X540800Y296018D01*
X541520Y294670D01*
X542489Y293489D01*
X543670Y292520D01*
X545018Y291800D01*
X546480Y291356D01*
X548000Y291207D01*
X549520Y291356D01*
X550982Y291800D01*
X552330Y292520D01*
X553511Y293489D01*
X554480Y294670D01*
X555200Y296018D01*
X555644Y297480D01*
X555793Y299000D01*
X555644Y300520D01*
X555200Y301982D01*
X554480Y303330D01*
X553511Y304511D01*
X552330Y305480D01*
X550982Y306200D01*
X549520Y306644D01*
X548000Y306793D01*
D02*
G37*
G36*
X514000Y304793D02*
X512480Y304644D01*
X511018Y304200D01*
X509670Y303480D01*
X508489Y302511D01*
X507520Y301330D01*
X506800Y299982D01*
X506356Y298520D01*
X506207Y297000D01*
X506356Y295480D01*
X506800Y294018D01*
X507520Y292670D01*
X508489Y291489D01*
X509670Y290520D01*
X511018Y289800D01*
X512480Y289356D01*
X514000Y289207D01*
X515520Y289356D01*
X516982Y289800D01*
X518330Y290520D01*
X519511Y291489D01*
X520480Y292670D01*
X521200Y294018D01*
X521644Y295480D01*
X521793Y297000D01*
X521644Y298520D01*
X521200Y299982D01*
X520480Y301330D01*
X519511Y302511D01*
X518330Y303480D01*
X516982Y304200D01*
X515520Y304644D01*
X514000Y304793D01*
D02*
G37*
G36*
X578000Y306793D02*
X576480Y306644D01*
X575018Y306200D01*
X573670Y305480D01*
X572489Y304511D01*
X571520Y303330D01*
X570800Y301982D01*
X570356Y300520D01*
X570207Y299000D01*
X570356Y297480D01*
X570800Y296018D01*
X571520Y294670D01*
X572489Y293489D01*
X573670Y292520D01*
X575018Y291800D01*
X576002Y291501D01*
Y276857D01*
X575550Y276644D01*
X574940Y277145D01*
X573558Y277883D01*
X572059Y278338D01*
X570500Y278491D01*
X568953Y278339D01*
X568623Y278326D01*
X568453Y278453D01*
Y278453D01*
X552547D01*
Y262547D01*
X568453D01*
Y262547D01*
X568623Y262674D01*
X568953Y262661D01*
X570500Y262509D01*
X572059Y262662D01*
X573558Y263117D01*
X574940Y263856D01*
X575550Y264356D01*
X576002Y264143D01*
Y252000D01*
X594000D01*
Y263047D01*
X602953D01*
Y263047D01*
X603124Y263174D01*
X603453Y263161D01*
X605000Y263009D01*
X606559Y263162D01*
X608058Y263617D01*
X609440Y264355D01*
X610651Y265349D01*
X611645Y266560D01*
X612176Y267554D01*
X612817Y267693D01*
X613007Y267547D01*
X613968Y267149D01*
X614500Y267079D01*
Y271000D01*
Y274921D01*
X613968Y274851D01*
X613007Y274453D01*
X612817Y274307D01*
X612176Y274446D01*
X611645Y275440D01*
X610651Y276651D01*
X609440Y277644D01*
X608058Y278383D01*
X606559Y278838D01*
X605000Y278991D01*
X603453Y278839D01*
X603124Y278826D01*
X602953Y278953D01*
Y278953D01*
X594000D01*
Y291991D01*
X582369D01*
X582247Y292476D01*
X582330Y292520D01*
X583511Y293489D01*
X584480Y294670D01*
X585200Y296018D01*
X585644Y297480D01*
X585793Y299000D01*
X585644Y300520D01*
X585200Y301982D01*
X584480Y303330D01*
X583511Y304511D01*
X582330Y305480D01*
X580982Y306200D01*
X579520Y306644D01*
X578000Y306793D01*
D02*
G37*
G36*
X511453Y278953D02*
X495547D01*
Y274972D01*
X495047Y274638D01*
X494532Y274851D01*
X494000Y274921D01*
Y271000D01*
Y267079D01*
X494532Y267149D01*
X495047Y267362D01*
X495547Y267028D01*
Y263047D01*
X511007D01*
X511453Y263047D01*
X511507Y262570D01*
Y249502D01*
X513897D01*
X514111Y249050D01*
X513520Y248330D01*
X512800Y246982D01*
X512356Y245520D01*
X512207Y244000D01*
X512356Y242480D01*
X512800Y241018D01*
X513520Y239670D01*
X514489Y238489D01*
X515670Y237520D01*
X517018Y236800D01*
X518480Y236356D01*
X520000Y236207D01*
X521520Y236356D01*
X522982Y236800D01*
X524330Y237520D01*
X525511Y238489D01*
X526480Y239670D01*
X527200Y241018D01*
X527644Y242480D01*
X527793Y244000D01*
X527644Y245520D01*
X527200Y246982D01*
X526480Y248330D01*
X525889Y249050D01*
X526103Y249502D01*
X545350D01*
X545500Y249502D01*
X545850Y249147D01*
Y238850D01*
X562150D01*
X562150Y238850D01*
X562650Y238944D01*
X564000Y238811D01*
X565598Y238968D01*
X567134Y239434D01*
X568550Y240191D01*
X569791Y241210D01*
X570809Y242450D01*
X571297Y243363D01*
X571786Y243469D01*
X571907Y243375D01*
X572917Y242957D01*
X573500Y242880D01*
Y247000D01*
Y251120D01*
X572917Y251043D01*
X571907Y250625D01*
X571786Y250531D01*
X571297Y250637D01*
X570809Y251550D01*
X569791Y252790D01*
X568550Y253809D01*
X567134Y254566D01*
X565598Y255032D01*
X564000Y255189D01*
X562650Y255056D01*
X562150Y255150D01*
Y255150D01*
X546000D01*
X545850Y255150D01*
X545500Y255504D01*
Y267500D01*
X542953D01*
Y278453D01*
X527047D01*
Y278453D01*
X526876Y278326D01*
X526547Y278339D01*
X525000Y278491D01*
X523441Y278338D01*
X521942Y277883D01*
X520560Y277145D01*
X519349Y276151D01*
X518356Y274940D01*
X517617Y273558D01*
X517162Y272059D01*
X517009Y270500D01*
X517162Y268941D01*
X517478Y267902D01*
X517180Y267500D01*
X511507Y267500D01*
X511453Y267977D01*
Y278953D01*
D02*
G37*
G36*
X615500Y274921D02*
Y271500D01*
X618921D01*
X618851Y272032D01*
X618453Y272993D01*
X617819Y273819D01*
X616993Y274453D01*
X616032Y274851D01*
X615500Y274921D01*
D02*
G37*
G36*
X618921Y270500D02*
X615500D01*
Y267079D01*
X616032Y267149D01*
X616993Y267547D01*
X617819Y268181D01*
X618453Y269007D01*
X618851Y269968D01*
X618921Y270500D01*
D02*
G37*
G36*
X490500Y289993D02*
X472502D01*
Y256000D01*
X490500D01*
Y267689D01*
X491000Y267936D01*
X491507Y267547D01*
X492468Y267149D01*
X493000Y267079D01*
Y271000D01*
Y274921D01*
X492468Y274851D01*
X491507Y274453D01*
X491000Y274064D01*
X490500Y274311D01*
Y289993D01*
D02*
G37*
G36*
X574500Y251120D02*
Y247500D01*
X578120D01*
X578043Y248083D01*
X577625Y249093D01*
X576960Y249959D01*
X576093Y250625D01*
X575083Y251043D01*
X574500Y251120D01*
D02*
G37*
G36*
X490500Y247723D02*
Y244500D01*
X493722D01*
X493659Y244981D01*
X493281Y245894D01*
X492679Y246679D01*
X491894Y247281D01*
X490980Y247659D01*
X490500Y247723D01*
D02*
G37*
G36*
X489500D02*
X489019Y247659D01*
X488106Y247281D01*
X487321Y246679D01*
X486719Y245894D01*
X486341Y244981D01*
X486277Y244500D01*
X489500D01*
Y247723D01*
D02*
G37*
G36*
X578120Y246500D02*
X574500D01*
Y242880D01*
X575083Y242957D01*
X576093Y243375D01*
X576960Y244040D01*
X577625Y244907D01*
X578043Y245917D01*
X578120Y246500D01*
D02*
G37*
G36*
X493722Y243500D02*
X490500D01*
Y240278D01*
X490980Y240341D01*
X491894Y240719D01*
X492679Y241321D01*
X493281Y242106D01*
X493659Y243020D01*
X493722Y243500D01*
D02*
G37*
G36*
X489500D02*
X486277D01*
X486341Y243020D01*
X486719Y242106D01*
X487321Y241321D01*
X488106Y240719D01*
X489019Y240341D01*
X489500Y240278D01*
Y243500D01*
D02*
G37*
%LPD*%
D10*
X541499Y462998D02*
X540499Y463998D01*
X538500D01*
X537500Y462998D01*
Y459000D01*
X538500Y458000D01*
X540499D01*
X541499Y459000D01*
X547497Y463998D02*
Y458000D01*
X544498D01*
X543498Y459000D01*
Y460999D01*
X544498Y461999D01*
X547497D01*
X553495Y462998D02*
X552495Y463998D01*
X550496D01*
X549496Y462998D01*
Y461999D01*
X550496Y460999D01*
X552495D01*
X553495Y459999D01*
Y459000D01*
X552495Y458000D01*
X550496D01*
X549496Y459000D01*
X471000Y351500D02*
X465002D01*
Y354499D01*
X466002Y355499D01*
X468001D01*
X469001Y354499D01*
Y351500D01*
X467001Y357498D02*
X470000D01*
X471000Y358498D01*
X470000Y359497D01*
X471000Y360497D01*
X470000Y361497D01*
X467001D01*
Y363496D02*
X471000D01*
X469001D01*
X468001Y364496D01*
X467001Y365495D01*
Y366495D01*
X466002Y369494D02*
X465002Y370494D01*
Y372493D01*
X466002Y373493D01*
X467001D01*
X468001Y372493D01*
Y371494D01*
Y372493D01*
X469001Y373493D01*
X470000D01*
X471000Y372493D01*
Y370494D01*
X470000Y369494D01*
X468001Y375492D02*
Y379491D01*
X466002Y377492D02*
X470000D01*
X517000Y463998D02*
X520999D01*
X518999D01*
Y458000D01*
X522998D02*
Y463998D01*
X524997Y461999D01*
X526997Y463998D01*
Y458000D01*
X528996D02*
Y463998D01*
X531995D01*
X532995Y462998D01*
Y460999D01*
X531995Y459999D01*
X528996D01*
X568500Y526000D02*
Y529999D01*
X570499Y531998D01*
X572499Y529999D01*
Y526000D01*
Y528999D01*
X568500D01*
X574498Y531998D02*
Y526000D01*
X577497D01*
X578497Y527000D01*
Y530998D01*
X577497Y531998D01*
X574498D01*
X584495Y530998D02*
X583495Y531998D01*
X581496D01*
X580496Y530998D01*
Y527000D01*
X581496Y526000D01*
X583495D01*
X584495Y527000D01*
X586494Y531998D02*
Y526000D01*
X590493D01*
X506500Y528999D02*
X510499D01*
X508499Y530998D02*
Y527000D01*
X512498Y526000D02*
Y531998D01*
X515497D01*
X516497Y530998D01*
Y528999D01*
X515497Y527999D01*
X512498D01*
X518496Y529999D02*
Y527000D01*
X519496Y526000D01*
X520496Y527000D01*
X521495Y526000D01*
X522495Y527000D01*
Y529999D01*
X524494D02*
Y526000D01*
Y527999D01*
X525494Y528999D01*
X526494Y529999D01*
X527493D01*
X536500Y526000D02*
Y529999D01*
X538499Y531998D01*
X540499Y529999D01*
Y526000D01*
Y528999D01*
X536500D01*
X542498Y531998D02*
Y526000D01*
X545497D01*
X546497Y527000D01*
Y530998D01*
X545497Y531998D01*
X542498D01*
X552495Y530998D02*
X551495Y531998D01*
X549496D01*
X548496Y530998D01*
Y527000D01*
X549496Y526000D01*
X551495D01*
X552495Y527000D01*
X554494Y531998D02*
X558493D01*
X556494D01*
Y526000D01*
X473502Y383500D02*
X479500D01*
Y386499D01*
X478500Y387499D01*
X474502D01*
X473502Y386499D01*
Y383500D01*
X474502Y393497D02*
X473502Y392497D01*
Y390498D01*
X474502Y389498D01*
X475501D01*
X476501Y390498D01*
Y392497D01*
X477501Y393497D01*
X478500D01*
X479500Y392497D01*
Y390498D01*
X478500Y389498D01*
X479500Y395496D02*
X473502D01*
Y398495D01*
X474502Y399495D01*
X476501D01*
X477501Y398495D01*
Y395496D01*
X539500Y261500D02*
Y257501D01*
X537501Y255502D01*
X535501Y257501D01*
Y261500D01*
Y258501D01*
X539500D01*
X533502Y255502D02*
Y261500D01*
X530503D01*
X529503Y260500D01*
Y256502D01*
X530503Y255502D01*
X533502D01*
X523505Y256502D02*
X524505Y255502D01*
X526504D01*
X527504Y256502D01*
Y260500D01*
X526504Y261500D01*
X524505D01*
X523505Y260500D01*
X521506Y261500D02*
Y255502D01*
X518507D01*
X517507Y256502D01*
Y258501D01*
X518507Y259501D01*
X521506D01*
X524500Y389500D02*
Y391499D01*
Y390500D01*
X518502D01*
X519502Y389500D01*
X524500Y398497D02*
Y394498D01*
X520501Y398497D01*
X519502D01*
X518502Y397497D01*
Y395498D01*
X519502Y394498D01*
X521501Y400496D02*
Y404495D01*
X519502Y402496D02*
X523500D01*
X570001Y389500D02*
Y393499D01*
X568002Y391499D02*
X572000D01*
X573000Y395498D02*
Y397497D01*
Y396498D01*
X567002D01*
X568002Y395498D01*
X573000Y404495D02*
Y400496D01*
X569001Y404495D01*
X568002D01*
X567002Y403496D01*
Y401496D01*
X568002Y400496D01*
X585001Y258000D02*
Y261999D01*
X583002Y259999D02*
X587000D01*
X588000Y263998D02*
X582002D01*
Y266997D01*
X583002Y267997D01*
X585001D01*
X586001Y266997D01*
Y263998D01*
X584001Y269996D02*
X587000D01*
X588000Y270996D01*
X587000Y271995D01*
X588000Y272995D01*
X587000Y273995D01*
X584001D01*
Y275994D02*
X588000D01*
X586001D01*
X585001Y276994D01*
X584001Y277993D01*
Y278993D01*
X583002Y285991D02*
X582002Y284991D01*
Y282992D01*
X583002Y281992D01*
X584001D01*
X585001Y282992D01*
Y284991D01*
X586001Y285991D01*
X587000D01*
X588000Y284991D01*
Y282992D01*
X587000Y281992D01*
X484500Y262000D02*
X478502D01*
Y264999D01*
X479502Y265999D01*
X481501D01*
X482501Y264999D01*
Y262000D01*
X478502Y267998D02*
X483500D01*
X484500Y268998D01*
Y270997D01*
X483500Y271997D01*
X478502D01*
X484500Y273996D02*
X478502D01*
X480501Y275995D01*
X478502Y277995D01*
X484500D01*
Y279994D02*
X478502D01*
Y282993D01*
X479502Y283993D01*
X481501D01*
X482501Y282993D01*
Y279994D01*
D11*
X578000Y299000D02*
D03*
X548000D02*
D03*
X514000Y297000D02*
D03*
X484000D02*
D03*
X520000Y244000D02*
D03*
X490000D02*
D03*
X602500Y339500D02*
D03*
X572500D02*
D03*
X544500Y338000D02*
D03*
X514500D02*
D03*
X562000Y473500D02*
D03*
Y503500D02*
D03*
X511000Y503000D02*
D03*
Y473000D02*
D03*
X528000Y473500D02*
D03*
Y503500D02*
D03*
X545000Y473000D02*
D03*
Y503000D02*
D03*
D12*
X578500Y368500D02*
D03*
X588500D02*
D03*
X518000Y369500D02*
D03*
X528000D02*
D03*
X574000Y247000D02*
D03*
X564000D02*
D03*
D13*
X598500Y368500D02*
D03*
X538000Y369500D02*
D03*
X554000Y247000D02*
D03*
D14*
X560500Y270500D02*
D03*
X535000D02*
D03*
X513000Y516500D02*
D03*
X573500D02*
D03*
X543250D02*
D03*
X485500Y398000D02*
D03*
X541250D02*
D03*
X580000Y398500D02*
D03*
X595000Y271000D02*
D03*
X503500D02*
D03*
D15*
X570500Y270500D02*
D03*
X525000D02*
D03*
X479500Y369000D02*
D03*
X523000Y516500D02*
D03*
X583500D02*
D03*
X553250D02*
D03*
X495500Y398000D02*
D03*
X531250D02*
D03*
X590000Y398500D02*
D03*
X605000Y271000D02*
D03*
X615000D02*
D03*
X493500D02*
D03*
D16*
X479500Y359000D02*
D03*
M02*
