M48
;Layer_Color=9474304
;FILE_FORMAT=2:5
INCH,LZ
;TYPE=PLATED
T1F00S00C0.03346
T2F00S00C0.03543
T3F00S00C0.03937
%
T01
X048Y02455
X051
X05105Y0282
X04805
X05365Y0291
X05665
X05725Y03395
X05445Y0338
X05145
X06025Y03395
X0544Y04505
X0527Y045
X051Y04505
X0493Y045
Y048
X051Y04805
X0527Y048
X0544Y04805
T02
X0482Y02695
X0492
X05135Y0269
X05235
X0549
X0559
X05835Y02695
X05935
X06035
X059Y03985
X058
X054125Y0398
X053125
X04955
X04855
X04795Y0369
Y0359
X0495Y04935
X0505
X052525
X053525
X05555
X05655
T03
X05425Y02455
X05525
X05625
X05785Y03685
X05885
X05985
X0538Y03695
X0528
X0518
M30
